G04 #@! TF.GenerationSoftware,KiCad,Pcbnew,(5.1.4)-1*
G04 #@! TF.CreationDate,2021-01-15T10:18:39-05:00*
G04 #@! TF.ProjectId,DATALITE,44415441-4c49-4544-952e-6b696361645f,rev?*
G04 #@! TF.SameCoordinates,Original*
G04 #@! TF.FileFunction,Soldermask,Top*
G04 #@! TF.FilePolarity,Negative*
%FSLAX46Y46*%
G04 Gerber Fmt 4.6, Leading zero omitted, Abs format (unit mm)*
G04 Created by KiCad (PCBNEW (5.1.4)-1) date 2021-01-15 10:18:39*
%MOMM*%
%LPD*%
G04 APERTURE LIST*
%ADD10C,0.100000*%
G04 APERTURE END LIST*
D10*
G36*
X45469487Y12501004D02*
G01*
X45706253Y12402932D01*
X45706255Y12402931D01*
X45891224Y12279339D01*
X45919339Y12260553D01*
X46100553Y12079339D01*
X46242932Y11866253D01*
X46341004Y11629487D01*
X46391000Y11378139D01*
X46391000Y11121861D01*
X46341004Y10870513D01*
X46325774Y10833745D01*
X46242931Y10633745D01*
X46100553Y10420661D01*
X45919339Y10239447D01*
X45706255Y10097069D01*
X45706254Y10097068D01*
X45706253Y10097068D01*
X45469487Y9998996D01*
X45218139Y9949000D01*
X44961861Y9949000D01*
X44710513Y9998996D01*
X44473747Y10097068D01*
X44473746Y10097068D01*
X44473745Y10097069D01*
X44260661Y10239447D01*
X44079447Y10420661D01*
X43937069Y10633745D01*
X43854226Y10833745D01*
X43838996Y10870513D01*
X43789000Y11121861D01*
X43789000Y11378139D01*
X43838996Y11629487D01*
X43937068Y11866253D01*
X44079447Y12079339D01*
X44260661Y12260553D01*
X44288776Y12279339D01*
X44473745Y12402931D01*
X44473747Y12402932D01*
X44710513Y12501004D01*
X44961861Y12551000D01*
X45218139Y12551000D01*
X45469487Y12501004D01*
X45469487Y12501004D01*
G37*
G36*
X40389487Y12501004D02*
G01*
X40626253Y12402932D01*
X40626255Y12402931D01*
X40811224Y12279339D01*
X40839339Y12260553D01*
X41020553Y12079339D01*
X41162932Y11866253D01*
X41261004Y11629487D01*
X41311000Y11378139D01*
X41311000Y11121861D01*
X41261004Y10870513D01*
X41245774Y10833745D01*
X41162931Y10633745D01*
X41020553Y10420661D01*
X40839339Y10239447D01*
X40626255Y10097069D01*
X40626254Y10097068D01*
X40626253Y10097068D01*
X40389487Y9998996D01*
X40138139Y9949000D01*
X39881861Y9949000D01*
X39630513Y9998996D01*
X39393747Y10097068D01*
X39393746Y10097068D01*
X39393745Y10097069D01*
X39180661Y10239447D01*
X38999447Y10420661D01*
X38857069Y10633745D01*
X38774226Y10833745D01*
X38758996Y10870513D01*
X38709000Y11121861D01*
X38709000Y11378139D01*
X38758996Y11629487D01*
X38857068Y11866253D01*
X38999447Y12079339D01*
X39180661Y12260553D01*
X39208776Y12279339D01*
X39393745Y12402931D01*
X39393747Y12402932D01*
X39630513Y12501004D01*
X39881861Y12551000D01*
X40138139Y12551000D01*
X40389487Y12501004D01*
X40389487Y12501004D01*
G37*
G36*
X35309487Y12501004D02*
G01*
X35546253Y12402932D01*
X35546255Y12402931D01*
X35731224Y12279339D01*
X35759339Y12260553D01*
X35940553Y12079339D01*
X36082932Y11866253D01*
X36181004Y11629487D01*
X36231000Y11378139D01*
X36231000Y11121861D01*
X36181004Y10870513D01*
X36165774Y10833745D01*
X36082931Y10633745D01*
X35940553Y10420661D01*
X35759339Y10239447D01*
X35546255Y10097069D01*
X35546254Y10097068D01*
X35546253Y10097068D01*
X35309487Y9998996D01*
X35058139Y9949000D01*
X34801861Y9949000D01*
X34550513Y9998996D01*
X34313747Y10097068D01*
X34313746Y10097068D01*
X34313745Y10097069D01*
X34100661Y10239447D01*
X33919447Y10420661D01*
X33777069Y10633745D01*
X33694226Y10833745D01*
X33678996Y10870513D01*
X33629000Y11121861D01*
X33629000Y11378139D01*
X33678996Y11629487D01*
X33777068Y11866253D01*
X33919447Y12079339D01*
X34100661Y12260553D01*
X34128776Y12279339D01*
X34313745Y12402931D01*
X34313747Y12402932D01*
X34550513Y12501004D01*
X34801861Y12551000D01*
X35058139Y12551000D01*
X35309487Y12501004D01*
X35309487Y12501004D01*
G37*
G36*
X30229487Y12501004D02*
G01*
X30466253Y12402932D01*
X30466255Y12402931D01*
X30651224Y12279339D01*
X30679339Y12260553D01*
X30860553Y12079339D01*
X31002932Y11866253D01*
X31101004Y11629487D01*
X31151000Y11378139D01*
X31151000Y11121861D01*
X31101004Y10870513D01*
X31085774Y10833745D01*
X31002931Y10633745D01*
X30860553Y10420661D01*
X30679339Y10239447D01*
X30466255Y10097069D01*
X30466254Y10097068D01*
X30466253Y10097068D01*
X30229487Y9998996D01*
X29978139Y9949000D01*
X29721861Y9949000D01*
X29470513Y9998996D01*
X29233747Y10097068D01*
X29233746Y10097068D01*
X29233745Y10097069D01*
X29020661Y10239447D01*
X28839447Y10420661D01*
X28697069Y10633745D01*
X28614226Y10833745D01*
X28598996Y10870513D01*
X28549000Y11121861D01*
X28549000Y11378139D01*
X28598996Y11629487D01*
X28697068Y11866253D01*
X28839447Y12079339D01*
X29020661Y12260553D01*
X29048776Y12279339D01*
X29233745Y12402931D01*
X29233747Y12402932D01*
X29470513Y12501004D01*
X29721861Y12551000D01*
X29978139Y12551000D01*
X30229487Y12501004D01*
X30229487Y12501004D01*
G37*
G36*
X76219487Y12701004D02*
G01*
X76456253Y12602932D01*
X76456255Y12602931D01*
X76669339Y12460553D01*
X76850553Y12279339D01*
X76984189Y12079339D01*
X76992932Y12066253D01*
X77091004Y11829487D01*
X77141000Y11578139D01*
X77141000Y11321861D01*
X77091004Y11070513D01*
X76992932Y10833747D01*
X76992931Y10833745D01*
X76850553Y10620661D01*
X76669339Y10439447D01*
X76456255Y10297069D01*
X76456254Y10297068D01*
X76456253Y10297068D01*
X76219487Y10198996D01*
X75968139Y10149000D01*
X75711861Y10149000D01*
X75460513Y10198996D01*
X75223747Y10297068D01*
X75223746Y10297068D01*
X75223745Y10297069D01*
X75010661Y10439447D01*
X74829447Y10620661D01*
X74687069Y10833745D01*
X74687068Y10833747D01*
X74588996Y11070513D01*
X74539000Y11321861D01*
X74539000Y11578139D01*
X74588996Y11829487D01*
X74687068Y12066253D01*
X74695812Y12079339D01*
X74829447Y12279339D01*
X75010661Y12460553D01*
X75223745Y12602931D01*
X75223747Y12602932D01*
X75460513Y12701004D01*
X75711861Y12751000D01*
X75968139Y12751000D01*
X76219487Y12701004D01*
X76219487Y12701004D01*
G37*
G36*
X81299487Y12701004D02*
G01*
X81536253Y12602932D01*
X81536255Y12602931D01*
X81749339Y12460553D01*
X81930553Y12279339D01*
X82064189Y12079339D01*
X82072932Y12066253D01*
X82171004Y11829487D01*
X82221000Y11578139D01*
X82221000Y11321861D01*
X82171004Y11070513D01*
X82072932Y10833747D01*
X82072931Y10833745D01*
X81930553Y10620661D01*
X81749339Y10439447D01*
X81536255Y10297069D01*
X81536254Y10297068D01*
X81536253Y10297068D01*
X81299487Y10198996D01*
X81048139Y10149000D01*
X80791861Y10149000D01*
X80540513Y10198996D01*
X80303747Y10297068D01*
X80303746Y10297068D01*
X80303745Y10297069D01*
X80090661Y10439447D01*
X79909447Y10620661D01*
X79767069Y10833745D01*
X79767068Y10833747D01*
X79668996Y11070513D01*
X79619000Y11321861D01*
X79619000Y11578139D01*
X79668996Y11829487D01*
X79767068Y12066253D01*
X79775812Y12079339D01*
X79909447Y12279339D01*
X80090661Y12460553D01*
X80303745Y12602931D01*
X80303747Y12602932D01*
X80540513Y12701004D01*
X80791861Y12751000D01*
X81048139Y12751000D01*
X81299487Y12701004D01*
X81299487Y12701004D01*
G37*
G36*
X86379487Y12701004D02*
G01*
X86616253Y12602932D01*
X86616255Y12602931D01*
X86829339Y12460553D01*
X87010553Y12279339D01*
X87144189Y12079339D01*
X87152932Y12066253D01*
X87251004Y11829487D01*
X87301000Y11578139D01*
X87301000Y11321861D01*
X87251004Y11070513D01*
X87152932Y10833747D01*
X87152931Y10833745D01*
X87010553Y10620661D01*
X86829339Y10439447D01*
X86616255Y10297069D01*
X86616254Y10297068D01*
X86616253Y10297068D01*
X86379487Y10198996D01*
X86128139Y10149000D01*
X85871861Y10149000D01*
X85620513Y10198996D01*
X85383747Y10297068D01*
X85383746Y10297068D01*
X85383745Y10297069D01*
X85170661Y10439447D01*
X84989447Y10620661D01*
X84847069Y10833745D01*
X84847068Y10833747D01*
X84748996Y11070513D01*
X84699000Y11321861D01*
X84699000Y11578139D01*
X84748996Y11829487D01*
X84847068Y12066253D01*
X84855812Y12079339D01*
X84989447Y12279339D01*
X85170661Y12460553D01*
X85383745Y12602931D01*
X85383747Y12602932D01*
X85620513Y12701004D01*
X85871861Y12751000D01*
X86128139Y12751000D01*
X86379487Y12701004D01*
X86379487Y12701004D01*
G37*
G36*
X61659487Y12701004D02*
G01*
X61896253Y12602932D01*
X61896255Y12602931D01*
X62109339Y12460553D01*
X62290553Y12279339D01*
X62424189Y12079339D01*
X62432932Y12066253D01*
X62531004Y11829487D01*
X62581000Y11578139D01*
X62581000Y11321861D01*
X62531004Y11070513D01*
X62432932Y10833747D01*
X62432931Y10833745D01*
X62290553Y10620661D01*
X62109339Y10439447D01*
X61896255Y10297069D01*
X61896254Y10297068D01*
X61896253Y10297068D01*
X61659487Y10198996D01*
X61408139Y10149000D01*
X61151861Y10149000D01*
X60900513Y10198996D01*
X60663747Y10297068D01*
X60663746Y10297068D01*
X60663745Y10297069D01*
X60450661Y10439447D01*
X60269447Y10620661D01*
X60127069Y10833745D01*
X60127068Y10833747D01*
X60028996Y11070513D01*
X59979000Y11321861D01*
X59979000Y11578139D01*
X60028996Y11829487D01*
X60127068Y12066253D01*
X60135812Y12079339D01*
X60269447Y12279339D01*
X60450661Y12460553D01*
X60663745Y12602931D01*
X60663747Y12602932D01*
X60900513Y12701004D01*
X61151861Y12751000D01*
X61408139Y12751000D01*
X61659487Y12701004D01*
X61659487Y12701004D01*
G37*
G36*
X56579487Y12701004D02*
G01*
X56816253Y12602932D01*
X56816255Y12602931D01*
X57029339Y12460553D01*
X57210553Y12279339D01*
X57344189Y12079339D01*
X57352932Y12066253D01*
X57451004Y11829487D01*
X57501000Y11578139D01*
X57501000Y11321861D01*
X57451004Y11070513D01*
X57352932Y10833747D01*
X57352931Y10833745D01*
X57210553Y10620661D01*
X57029339Y10439447D01*
X56816255Y10297069D01*
X56816254Y10297068D01*
X56816253Y10297068D01*
X56579487Y10198996D01*
X56328139Y10149000D01*
X56071861Y10149000D01*
X55820513Y10198996D01*
X55583747Y10297068D01*
X55583746Y10297068D01*
X55583745Y10297069D01*
X55370661Y10439447D01*
X55189447Y10620661D01*
X55047069Y10833745D01*
X55047068Y10833747D01*
X54948996Y11070513D01*
X54899000Y11321861D01*
X54899000Y11578139D01*
X54948996Y11829487D01*
X55047068Y12066253D01*
X55055812Y12079339D01*
X55189447Y12279339D01*
X55370661Y12460553D01*
X55583745Y12602931D01*
X55583747Y12602932D01*
X55820513Y12701004D01*
X56071861Y12751000D01*
X56328139Y12751000D01*
X56579487Y12701004D01*
X56579487Y12701004D01*
G37*
G36*
X66739487Y12701004D02*
G01*
X66976253Y12602932D01*
X66976255Y12602931D01*
X67189339Y12460553D01*
X67370553Y12279339D01*
X67504189Y12079339D01*
X67512932Y12066253D01*
X67611004Y11829487D01*
X67661000Y11578139D01*
X67661000Y11321861D01*
X67611004Y11070513D01*
X67512932Y10833747D01*
X67512931Y10833745D01*
X67370553Y10620661D01*
X67189339Y10439447D01*
X66976255Y10297069D01*
X66976254Y10297068D01*
X66976253Y10297068D01*
X66739487Y10198996D01*
X66488139Y10149000D01*
X66231861Y10149000D01*
X65980513Y10198996D01*
X65743747Y10297068D01*
X65743746Y10297068D01*
X65743745Y10297069D01*
X65530661Y10439447D01*
X65349447Y10620661D01*
X65207069Y10833745D01*
X65207068Y10833747D01*
X65108996Y11070513D01*
X65059000Y11321861D01*
X65059000Y11578139D01*
X65108996Y11829487D01*
X65207068Y12066253D01*
X65215812Y12079339D01*
X65349447Y12279339D01*
X65530661Y12460553D01*
X65743745Y12602931D01*
X65743747Y12602932D01*
X65980513Y12701004D01*
X66231861Y12751000D01*
X66488139Y12751000D01*
X66739487Y12701004D01*
X66739487Y12701004D01*
G37*
G36*
X30237395Y19314454D02*
G01*
X30410466Y19242766D01*
X30410467Y19242765D01*
X30566227Y19138690D01*
X30698690Y19006227D01*
X30698691Y19006225D01*
X30802766Y18850466D01*
X30874454Y18677395D01*
X30911000Y18493667D01*
X30911000Y18306333D01*
X30874454Y18122605D01*
X30802766Y17949534D01*
X30802765Y17949533D01*
X30698690Y17793773D01*
X30566227Y17661310D01*
X30487818Y17608919D01*
X30410466Y17557234D01*
X30237395Y17485546D01*
X30053667Y17449000D01*
X29866333Y17449000D01*
X29682605Y17485546D01*
X29509534Y17557234D01*
X29432182Y17608919D01*
X29353773Y17661310D01*
X29221310Y17793773D01*
X29117235Y17949533D01*
X29117234Y17949534D01*
X29045546Y18122605D01*
X29009000Y18306333D01*
X29009000Y18493667D01*
X29045546Y18677395D01*
X29117234Y18850466D01*
X29221309Y19006225D01*
X29221310Y19006227D01*
X29353773Y19138690D01*
X29509533Y19242765D01*
X29509534Y19242766D01*
X29682605Y19314454D01*
X29866333Y19351000D01*
X30053667Y19351000D01*
X30237395Y19314454D01*
X30237395Y19314454D01*
G37*
G36*
X27697395Y19314454D02*
G01*
X27870466Y19242766D01*
X27870467Y19242765D01*
X28026227Y19138690D01*
X28158690Y19006227D01*
X28158691Y19006225D01*
X28262766Y18850466D01*
X28334454Y18677395D01*
X28371000Y18493667D01*
X28371000Y18306333D01*
X28334454Y18122605D01*
X28262766Y17949534D01*
X28262765Y17949533D01*
X28158690Y17793773D01*
X28026227Y17661310D01*
X27947818Y17608919D01*
X27870466Y17557234D01*
X27697395Y17485546D01*
X27513667Y17449000D01*
X27326333Y17449000D01*
X27142605Y17485546D01*
X26969534Y17557234D01*
X26892182Y17608919D01*
X26813773Y17661310D01*
X26681310Y17793773D01*
X26577235Y17949533D01*
X26577234Y17949534D01*
X26505546Y18122605D01*
X26469000Y18306333D01*
X26469000Y18493667D01*
X26505546Y18677395D01*
X26577234Y18850466D01*
X26681309Y19006225D01*
X26681310Y19006227D01*
X26813773Y19138690D01*
X26969533Y19242765D01*
X26969534Y19242766D01*
X27142605Y19314454D01*
X27326333Y19351000D01*
X27513667Y19351000D01*
X27697395Y19314454D01*
X27697395Y19314454D01*
G37*
G36*
X32777395Y19314454D02*
G01*
X32950466Y19242766D01*
X32950467Y19242765D01*
X33106227Y19138690D01*
X33238690Y19006227D01*
X33238691Y19006225D01*
X33342766Y18850466D01*
X33414454Y18677395D01*
X33451000Y18493667D01*
X33451000Y18306333D01*
X33414454Y18122605D01*
X33342766Y17949534D01*
X33342765Y17949533D01*
X33238690Y17793773D01*
X33106227Y17661310D01*
X33027818Y17608919D01*
X32950466Y17557234D01*
X32777395Y17485546D01*
X32593667Y17449000D01*
X32406333Y17449000D01*
X32222605Y17485546D01*
X32049534Y17557234D01*
X31972182Y17608919D01*
X31893773Y17661310D01*
X31761310Y17793773D01*
X31657235Y17949533D01*
X31657234Y17949534D01*
X31585546Y18122605D01*
X31549000Y18306333D01*
X31549000Y18493667D01*
X31585546Y18677395D01*
X31657234Y18850466D01*
X31761309Y19006225D01*
X31761310Y19006227D01*
X31893773Y19138690D01*
X32049533Y19242765D01*
X32049534Y19242766D01*
X32222605Y19314454D01*
X32406333Y19351000D01*
X32593667Y19351000D01*
X32777395Y19314454D01*
X32777395Y19314454D01*
G37*
G36*
X39647395Y19314454D02*
G01*
X39820466Y19242766D01*
X39820467Y19242765D01*
X39976227Y19138690D01*
X40108690Y19006227D01*
X40108691Y19006225D01*
X40212766Y18850466D01*
X40284454Y18677395D01*
X40321000Y18493667D01*
X40321000Y18306333D01*
X40284454Y18122605D01*
X40212766Y17949534D01*
X40212765Y17949533D01*
X40108690Y17793773D01*
X39976227Y17661310D01*
X39897818Y17608919D01*
X39820466Y17557234D01*
X39647395Y17485546D01*
X39463667Y17449000D01*
X39276333Y17449000D01*
X39092605Y17485546D01*
X38919534Y17557234D01*
X38842182Y17608919D01*
X38763773Y17661310D01*
X38631310Y17793773D01*
X38527235Y17949533D01*
X38527234Y17949534D01*
X38455546Y18122605D01*
X38419000Y18306333D01*
X38419000Y18493667D01*
X38455546Y18677395D01*
X38527234Y18850466D01*
X38631309Y19006225D01*
X38631310Y19006227D01*
X38763773Y19138690D01*
X38919533Y19242765D01*
X38919534Y19242766D01*
X39092605Y19314454D01*
X39276333Y19351000D01*
X39463667Y19351000D01*
X39647395Y19314454D01*
X39647395Y19314454D01*
G37*
G36*
X42187395Y19314454D02*
G01*
X42360466Y19242766D01*
X42360467Y19242765D01*
X42516227Y19138690D01*
X42648690Y19006227D01*
X42648691Y19006225D01*
X42752766Y18850466D01*
X42824454Y18677395D01*
X42861000Y18493667D01*
X42861000Y18306333D01*
X42824454Y18122605D01*
X42752766Y17949534D01*
X42752765Y17949533D01*
X42648690Y17793773D01*
X42516227Y17661310D01*
X42437818Y17608919D01*
X42360466Y17557234D01*
X42187395Y17485546D01*
X42003667Y17449000D01*
X41816333Y17449000D01*
X41632605Y17485546D01*
X41459534Y17557234D01*
X41382182Y17608919D01*
X41303773Y17661310D01*
X41171310Y17793773D01*
X41067235Y17949533D01*
X41067234Y17949534D01*
X40995546Y18122605D01*
X40959000Y18306333D01*
X40959000Y18493667D01*
X40995546Y18677395D01*
X41067234Y18850466D01*
X41171309Y19006225D01*
X41171310Y19006227D01*
X41303773Y19138690D01*
X41459533Y19242765D01*
X41459534Y19242766D01*
X41632605Y19314454D01*
X41816333Y19351000D01*
X42003667Y19351000D01*
X42187395Y19314454D01*
X42187395Y19314454D01*
G37*
G36*
X44727395Y19314454D02*
G01*
X44900466Y19242766D01*
X44900467Y19242765D01*
X45056227Y19138690D01*
X45188690Y19006227D01*
X45188691Y19006225D01*
X45292766Y18850466D01*
X45364454Y18677395D01*
X45401000Y18493667D01*
X45401000Y18306333D01*
X45364454Y18122605D01*
X45292766Y17949534D01*
X45292765Y17949533D01*
X45188690Y17793773D01*
X45056227Y17661310D01*
X44977818Y17608919D01*
X44900466Y17557234D01*
X44727395Y17485546D01*
X44543667Y17449000D01*
X44356333Y17449000D01*
X44172605Y17485546D01*
X43999534Y17557234D01*
X43922182Y17608919D01*
X43843773Y17661310D01*
X43711310Y17793773D01*
X43607235Y17949533D01*
X43607234Y17949534D01*
X43535546Y18122605D01*
X43499000Y18306333D01*
X43499000Y18493667D01*
X43535546Y18677395D01*
X43607234Y18850466D01*
X43711309Y19006225D01*
X43711310Y19006227D01*
X43843773Y19138690D01*
X43999533Y19242765D01*
X43999534Y19242766D01*
X44172605Y19314454D01*
X44356333Y19351000D01*
X44543667Y19351000D01*
X44727395Y19314454D01*
X44727395Y19314454D01*
G37*
G36*
X100966823Y32218687D02*
G01*
X101127242Y32170024D01*
X101259906Y32099114D01*
X101275078Y32091004D01*
X101404659Y31984659D01*
X101511004Y31855078D01*
X101511005Y31855076D01*
X101590024Y31707242D01*
X101638687Y31546823D01*
X101655117Y31380000D01*
X101638687Y31213177D01*
X101590024Y31052758D01*
X101519114Y30920094D01*
X101511004Y30904922D01*
X101404659Y30775341D01*
X101275078Y30668996D01*
X101275076Y30668995D01*
X101127242Y30589976D01*
X100966823Y30541313D01*
X100841804Y30529000D01*
X100758196Y30529000D01*
X100633177Y30541313D01*
X100472758Y30589976D01*
X100324924Y30668995D01*
X100324922Y30668996D01*
X100195341Y30775341D01*
X100088996Y30904922D01*
X100080886Y30920094D01*
X100009976Y31052758D01*
X99961313Y31213177D01*
X99944883Y31380000D01*
X99961313Y31546823D01*
X100009976Y31707242D01*
X100088995Y31855076D01*
X100088996Y31855078D01*
X100195341Y31984659D01*
X100324922Y32091004D01*
X100340094Y32099114D01*
X100472758Y32170024D01*
X100633177Y32218687D01*
X100758196Y32231000D01*
X100841804Y32231000D01*
X100966823Y32218687D01*
X100966823Y32218687D01*
G37*
G36*
X66363512Y32786073D02*
G01*
X66512812Y32756376D01*
X66676784Y32688456D01*
X66824354Y32589853D01*
X66949853Y32464354D01*
X67048456Y32316784D01*
X67116376Y32152812D01*
X67151000Y31978741D01*
X67151000Y31801259D01*
X67116376Y31627188D01*
X67048456Y31463216D01*
X66949853Y31315646D01*
X66824354Y31190147D01*
X66676784Y31091544D01*
X66512812Y31023624D01*
X66363512Y30993927D01*
X66338742Y30989000D01*
X66161258Y30989000D01*
X66136488Y30993927D01*
X65987188Y31023624D01*
X65823216Y31091544D01*
X65675646Y31190147D01*
X65550147Y31315646D01*
X65451544Y31463216D01*
X65383624Y31627188D01*
X65349000Y31801259D01*
X65349000Y31978741D01*
X65383624Y32152812D01*
X65451544Y32316784D01*
X65550147Y32464354D01*
X65675646Y32589853D01*
X65823216Y32688456D01*
X65987188Y32756376D01*
X66136488Y32786073D01*
X66161258Y32791000D01*
X66338742Y32791000D01*
X66363512Y32786073D01*
X66363512Y32786073D01*
G37*
G36*
X40963512Y32786073D02*
G01*
X41112812Y32756376D01*
X41276784Y32688456D01*
X41424354Y32589853D01*
X41549853Y32464354D01*
X41648456Y32316784D01*
X41716376Y32152812D01*
X41751000Y31978741D01*
X41751000Y31801259D01*
X41716376Y31627188D01*
X41648456Y31463216D01*
X41549853Y31315646D01*
X41424354Y31190147D01*
X41276784Y31091544D01*
X41112812Y31023624D01*
X40963512Y30993927D01*
X40938742Y30989000D01*
X40761258Y30989000D01*
X40736488Y30993927D01*
X40587188Y31023624D01*
X40423216Y31091544D01*
X40275646Y31190147D01*
X40150147Y31315646D01*
X40051544Y31463216D01*
X39983624Y31627188D01*
X39949000Y31801259D01*
X39949000Y31978741D01*
X39983624Y32152812D01*
X40051544Y32316784D01*
X40150147Y32464354D01*
X40275646Y32589853D01*
X40423216Y32688456D01*
X40587188Y32756376D01*
X40736488Y32786073D01*
X40761258Y32791000D01*
X40938742Y32791000D01*
X40963512Y32786073D01*
X40963512Y32786073D01*
G37*
G36*
X40963512Y35326073D02*
G01*
X41112812Y35296376D01*
X41276784Y35228456D01*
X41424354Y35129853D01*
X41549853Y35004354D01*
X41648456Y34856784D01*
X41716376Y34692812D01*
X41751000Y34518741D01*
X41751000Y34341259D01*
X41716376Y34167188D01*
X41648456Y34003216D01*
X41549853Y33855646D01*
X41424354Y33730147D01*
X41276784Y33631544D01*
X41112812Y33563624D01*
X40963512Y33533927D01*
X40938742Y33529000D01*
X40761258Y33529000D01*
X40736488Y33533927D01*
X40587188Y33563624D01*
X40423216Y33631544D01*
X40275646Y33730147D01*
X40150147Y33855646D01*
X40051544Y34003216D01*
X39983624Y34167188D01*
X39949000Y34341259D01*
X39949000Y34518741D01*
X39983624Y34692812D01*
X40051544Y34856784D01*
X40150147Y35004354D01*
X40275646Y35129853D01*
X40423216Y35228456D01*
X40587188Y35296376D01*
X40736488Y35326073D01*
X40761258Y35331000D01*
X40938742Y35331000D01*
X40963512Y35326073D01*
X40963512Y35326073D01*
G37*
G36*
X66363512Y35326073D02*
G01*
X66512812Y35296376D01*
X66676784Y35228456D01*
X66824354Y35129853D01*
X66949853Y35004354D01*
X67048456Y34856784D01*
X67116376Y34692812D01*
X67151000Y34518741D01*
X67151000Y34341259D01*
X67116376Y34167188D01*
X67048456Y34003216D01*
X66949853Y33855646D01*
X66824354Y33730147D01*
X66676784Y33631544D01*
X66512812Y33563624D01*
X66363512Y33533927D01*
X66338742Y33529000D01*
X66161258Y33529000D01*
X66136488Y33533927D01*
X65987188Y33563624D01*
X65823216Y33631544D01*
X65675646Y33730147D01*
X65550147Y33855646D01*
X65451544Y34003216D01*
X65383624Y34167188D01*
X65349000Y34341259D01*
X65349000Y34518741D01*
X65383624Y34692812D01*
X65451544Y34856784D01*
X65550147Y35004354D01*
X65675646Y35129853D01*
X65823216Y35228456D01*
X65987188Y35296376D01*
X66136488Y35326073D01*
X66161258Y35331000D01*
X66338742Y35331000D01*
X66363512Y35326073D01*
X66363512Y35326073D01*
G37*
G36*
X40963512Y37866073D02*
G01*
X41112812Y37836376D01*
X41276784Y37768456D01*
X41424354Y37669853D01*
X41549853Y37544354D01*
X41648456Y37396784D01*
X41716376Y37232812D01*
X41746073Y37083512D01*
X41751000Y37058742D01*
X41751000Y36881258D01*
X41746073Y36856488D01*
X41716376Y36707188D01*
X41648456Y36543216D01*
X41549853Y36395646D01*
X41424354Y36270147D01*
X41276784Y36171544D01*
X41112812Y36103624D01*
X40963512Y36073927D01*
X40938742Y36069000D01*
X40761258Y36069000D01*
X40736488Y36073927D01*
X40587188Y36103624D01*
X40423216Y36171544D01*
X40275646Y36270147D01*
X40150147Y36395646D01*
X40051544Y36543216D01*
X39983624Y36707188D01*
X39953927Y36856488D01*
X39949000Y36881258D01*
X39949000Y37058742D01*
X39953927Y37083512D01*
X39983624Y37232812D01*
X40051544Y37396784D01*
X40150147Y37544354D01*
X40275646Y37669853D01*
X40423216Y37768456D01*
X40587188Y37836376D01*
X40736488Y37866073D01*
X40761258Y37871000D01*
X40938742Y37871000D01*
X40963512Y37866073D01*
X40963512Y37866073D01*
G37*
G36*
X66363512Y37866073D02*
G01*
X66512812Y37836376D01*
X66676784Y37768456D01*
X66824354Y37669853D01*
X66949853Y37544354D01*
X67048456Y37396784D01*
X67116376Y37232812D01*
X67146073Y37083512D01*
X67151000Y37058742D01*
X67151000Y36881258D01*
X67146073Y36856488D01*
X67116376Y36707188D01*
X67048456Y36543216D01*
X66949853Y36395646D01*
X66824354Y36270147D01*
X66676784Y36171544D01*
X66512812Y36103624D01*
X66363512Y36073927D01*
X66338742Y36069000D01*
X66161258Y36069000D01*
X66136488Y36073927D01*
X65987188Y36103624D01*
X65823216Y36171544D01*
X65675646Y36270147D01*
X65550147Y36395646D01*
X65451544Y36543216D01*
X65383624Y36707188D01*
X65353927Y36856488D01*
X65349000Y36881258D01*
X65349000Y37058742D01*
X65353927Y37083512D01*
X65383624Y37232812D01*
X65451544Y37396784D01*
X65550147Y37544354D01*
X65675646Y37669853D01*
X65823216Y37768456D01*
X65987188Y37836376D01*
X66136488Y37866073D01*
X66161258Y37871000D01*
X66338742Y37871000D01*
X66363512Y37866073D01*
X66363512Y37866073D01*
G37*
G36*
X18097395Y38064454D02*
G01*
X18270466Y37992766D01*
X18270467Y37992765D01*
X18426227Y37888690D01*
X18558690Y37756227D01*
X18558691Y37756225D01*
X18662766Y37600466D01*
X18734454Y37427395D01*
X18771000Y37243667D01*
X18771000Y37056333D01*
X18734454Y36872605D01*
X18662766Y36699534D01*
X18662765Y36699533D01*
X18558690Y36543773D01*
X18426227Y36411310D01*
X18402784Y36395646D01*
X18270466Y36307234D01*
X18097395Y36235546D01*
X17913667Y36199000D01*
X17726333Y36199000D01*
X17542605Y36235546D01*
X17369534Y36307234D01*
X17237216Y36395646D01*
X17213773Y36411310D01*
X17081310Y36543773D01*
X16977235Y36699533D01*
X16977234Y36699534D01*
X16905546Y36872605D01*
X16869000Y37056333D01*
X16869000Y37243667D01*
X16905546Y37427395D01*
X16977234Y37600466D01*
X17081309Y37756225D01*
X17081310Y37756227D01*
X17213773Y37888690D01*
X17369533Y37992765D01*
X17369534Y37992766D01*
X17542605Y38064454D01*
X17726333Y38101000D01*
X17913667Y38101000D01*
X18097395Y38064454D01*
X18097395Y38064454D01*
G37*
G36*
X15557395Y38064454D02*
G01*
X15730466Y37992766D01*
X15730467Y37992765D01*
X15886227Y37888690D01*
X16018690Y37756227D01*
X16018691Y37756225D01*
X16122766Y37600466D01*
X16194454Y37427395D01*
X16231000Y37243667D01*
X16231000Y37056333D01*
X16194454Y36872605D01*
X16122766Y36699534D01*
X16122765Y36699533D01*
X16018690Y36543773D01*
X15886227Y36411310D01*
X15862784Y36395646D01*
X15730466Y36307234D01*
X15557395Y36235546D01*
X15373667Y36199000D01*
X15186333Y36199000D01*
X15002605Y36235546D01*
X14829534Y36307234D01*
X14697216Y36395646D01*
X14673773Y36411310D01*
X14541310Y36543773D01*
X14437235Y36699533D01*
X14437234Y36699534D01*
X14365546Y36872605D01*
X14329000Y37056333D01*
X14329000Y37243667D01*
X14365546Y37427395D01*
X14437234Y37600466D01*
X14541309Y37756225D01*
X14541310Y37756227D01*
X14673773Y37888690D01*
X14829533Y37992765D01*
X14829534Y37992766D01*
X15002605Y38064454D01*
X15186333Y38101000D01*
X15373667Y38101000D01*
X15557395Y38064454D01*
X15557395Y38064454D01*
G37*
G36*
X13017395Y38064454D02*
G01*
X13190466Y37992766D01*
X13190467Y37992765D01*
X13346227Y37888690D01*
X13478690Y37756227D01*
X13478691Y37756225D01*
X13582766Y37600466D01*
X13654454Y37427395D01*
X13691000Y37243667D01*
X13691000Y37056333D01*
X13654454Y36872605D01*
X13582766Y36699534D01*
X13582765Y36699533D01*
X13478690Y36543773D01*
X13346227Y36411310D01*
X13322784Y36395646D01*
X13190466Y36307234D01*
X13017395Y36235546D01*
X12833667Y36199000D01*
X12646333Y36199000D01*
X12462605Y36235546D01*
X12289534Y36307234D01*
X12157216Y36395646D01*
X12133773Y36411310D01*
X12001310Y36543773D01*
X11897235Y36699533D01*
X11897234Y36699534D01*
X11825546Y36872605D01*
X11789000Y37056333D01*
X11789000Y37243667D01*
X11825546Y37427395D01*
X11897234Y37600466D01*
X12001309Y37756225D01*
X12001310Y37756227D01*
X12133773Y37888690D01*
X12289533Y37992765D01*
X12289534Y37992766D01*
X12462605Y38064454D01*
X12646333Y38101000D01*
X12833667Y38101000D01*
X13017395Y38064454D01*
X13017395Y38064454D01*
G37*
G36*
X10477395Y38064454D02*
G01*
X10650466Y37992766D01*
X10650467Y37992765D01*
X10806227Y37888690D01*
X10938690Y37756227D01*
X10938691Y37756225D01*
X11042766Y37600466D01*
X11114454Y37427395D01*
X11151000Y37243667D01*
X11151000Y37056333D01*
X11114454Y36872605D01*
X11042766Y36699534D01*
X11042765Y36699533D01*
X10938690Y36543773D01*
X10806227Y36411310D01*
X10782784Y36395646D01*
X10650466Y36307234D01*
X10477395Y36235546D01*
X10293667Y36199000D01*
X10106333Y36199000D01*
X9922605Y36235546D01*
X9749534Y36307234D01*
X9617216Y36395646D01*
X9593773Y36411310D01*
X9461310Y36543773D01*
X9357235Y36699533D01*
X9357234Y36699534D01*
X9285546Y36872605D01*
X9249000Y37056333D01*
X9249000Y37243667D01*
X9285546Y37427395D01*
X9357234Y37600466D01*
X9461309Y37756225D01*
X9461310Y37756227D01*
X9593773Y37888690D01*
X9749533Y37992765D01*
X9749534Y37992766D01*
X9922605Y38064454D01*
X10106333Y38101000D01*
X10293667Y38101000D01*
X10477395Y38064454D01*
X10477395Y38064454D01*
G37*
G36*
X75077395Y39764454D02*
G01*
X75250466Y39692766D01*
X75250467Y39692765D01*
X75406227Y39588690D01*
X75538690Y39456227D01*
X75538691Y39456225D01*
X75642766Y39300466D01*
X75714454Y39127395D01*
X75751000Y38943667D01*
X75751000Y38756333D01*
X75714454Y38572605D01*
X75642766Y38399534D01*
X75642765Y38399533D01*
X75538690Y38243773D01*
X75406227Y38111310D01*
X75390797Y38101000D01*
X75250466Y38007234D01*
X75077395Y37935546D01*
X74893667Y37899000D01*
X74706333Y37899000D01*
X74522605Y37935546D01*
X74349534Y38007234D01*
X74209203Y38101000D01*
X74193773Y38111310D01*
X74061310Y38243773D01*
X73957235Y38399533D01*
X73957234Y38399534D01*
X73885546Y38572605D01*
X73849000Y38756333D01*
X73849000Y38943667D01*
X73885546Y39127395D01*
X73957234Y39300466D01*
X74061309Y39456225D01*
X74061310Y39456227D01*
X74193773Y39588690D01*
X74349533Y39692765D01*
X74349534Y39692766D01*
X74522605Y39764454D01*
X74706333Y39801000D01*
X74893667Y39801000D01*
X75077395Y39764454D01*
X75077395Y39764454D01*
G37*
G36*
X101651000Y38149000D02*
G01*
X99949000Y38149000D01*
X99949000Y39851000D01*
X101651000Y39851000D01*
X101651000Y38149000D01*
X101651000Y38149000D01*
G37*
G36*
X66363512Y40406073D02*
G01*
X66512812Y40376376D01*
X66676784Y40308456D01*
X66824354Y40209853D01*
X66949853Y40084354D01*
X67048456Y39936784D01*
X67116376Y39772812D01*
X67151000Y39598741D01*
X67151000Y39421259D01*
X67116376Y39247188D01*
X67048456Y39083216D01*
X66949853Y38935646D01*
X66824354Y38810147D01*
X66676784Y38711544D01*
X66512812Y38643624D01*
X66363512Y38613927D01*
X66338742Y38609000D01*
X66161258Y38609000D01*
X66136488Y38613927D01*
X65987188Y38643624D01*
X65823216Y38711544D01*
X65675646Y38810147D01*
X65550147Y38935646D01*
X65451544Y39083216D01*
X65383624Y39247188D01*
X65349000Y39421259D01*
X65349000Y39598741D01*
X65383624Y39772812D01*
X65451544Y39936784D01*
X65550147Y40084354D01*
X65675646Y40209853D01*
X65823216Y40308456D01*
X65987188Y40376376D01*
X66136488Y40406073D01*
X66161258Y40411000D01*
X66338742Y40411000D01*
X66363512Y40406073D01*
X66363512Y40406073D01*
G37*
G36*
X40963512Y40406073D02*
G01*
X41112812Y40376376D01*
X41276784Y40308456D01*
X41424354Y40209853D01*
X41549853Y40084354D01*
X41648456Y39936784D01*
X41716376Y39772812D01*
X41751000Y39598741D01*
X41751000Y39421259D01*
X41716376Y39247188D01*
X41648456Y39083216D01*
X41549853Y38935646D01*
X41424354Y38810147D01*
X41276784Y38711544D01*
X41112812Y38643624D01*
X40963512Y38613927D01*
X40938742Y38609000D01*
X40761258Y38609000D01*
X40736488Y38613927D01*
X40587188Y38643624D01*
X40423216Y38711544D01*
X40275646Y38810147D01*
X40150147Y38935646D01*
X40051544Y39083216D01*
X39983624Y39247188D01*
X39949000Y39421259D01*
X39949000Y39598741D01*
X39983624Y39772812D01*
X40051544Y39936784D01*
X40150147Y40084354D01*
X40275646Y40209853D01*
X40423216Y40308456D01*
X40587188Y40376376D01*
X40736488Y40406073D01*
X40761258Y40411000D01*
X40938742Y40411000D01*
X40963512Y40406073D01*
X40963512Y40406073D01*
G37*
G36*
X66363512Y42946073D02*
G01*
X66512812Y42916376D01*
X66676784Y42848456D01*
X66824354Y42749853D01*
X66949853Y42624354D01*
X67048456Y42476784D01*
X67116376Y42312812D01*
X67151000Y42138741D01*
X67151000Y41961259D01*
X67116376Y41787188D01*
X67048456Y41623216D01*
X66949853Y41475646D01*
X66824354Y41350147D01*
X66676784Y41251544D01*
X66512812Y41183624D01*
X66363512Y41153927D01*
X66338742Y41149000D01*
X66161258Y41149000D01*
X66136488Y41153927D01*
X65987188Y41183624D01*
X65823216Y41251544D01*
X65675646Y41350147D01*
X65550147Y41475646D01*
X65451544Y41623216D01*
X65383624Y41787188D01*
X65349000Y41961259D01*
X65349000Y42138741D01*
X65383624Y42312812D01*
X65451544Y42476784D01*
X65550147Y42624354D01*
X65675646Y42749853D01*
X65823216Y42848456D01*
X65987188Y42916376D01*
X66136488Y42946073D01*
X66161258Y42951000D01*
X66338742Y42951000D01*
X66363512Y42946073D01*
X66363512Y42946073D01*
G37*
G36*
X40963512Y42946073D02*
G01*
X41112812Y42916376D01*
X41276784Y42848456D01*
X41424354Y42749853D01*
X41549853Y42624354D01*
X41648456Y42476784D01*
X41716376Y42312812D01*
X41751000Y42138741D01*
X41751000Y41961259D01*
X41716376Y41787188D01*
X41648456Y41623216D01*
X41549853Y41475646D01*
X41424354Y41350147D01*
X41276784Y41251544D01*
X41112812Y41183624D01*
X40963512Y41153927D01*
X40938742Y41149000D01*
X40761258Y41149000D01*
X40736488Y41153927D01*
X40587188Y41183624D01*
X40423216Y41251544D01*
X40275646Y41350147D01*
X40150147Y41475646D01*
X40051544Y41623216D01*
X39983624Y41787188D01*
X39949000Y41961259D01*
X39949000Y42138741D01*
X39983624Y42312812D01*
X40051544Y42476784D01*
X40150147Y42624354D01*
X40275646Y42749853D01*
X40423216Y42848456D01*
X40587188Y42916376D01*
X40736488Y42946073D01*
X40761258Y42951000D01*
X40938742Y42951000D01*
X40963512Y42946073D01*
X40963512Y42946073D01*
G37*
G36*
X66363512Y45486073D02*
G01*
X66512812Y45456376D01*
X66676784Y45388456D01*
X66824354Y45289853D01*
X66949853Y45164354D01*
X67048456Y45016784D01*
X67116376Y44852812D01*
X67151000Y44678741D01*
X67151000Y44501259D01*
X67116376Y44327188D01*
X67048456Y44163216D01*
X66949853Y44015646D01*
X66824354Y43890147D01*
X66676784Y43791544D01*
X66512812Y43723624D01*
X66363512Y43693927D01*
X66338742Y43689000D01*
X66161258Y43689000D01*
X66136488Y43693927D01*
X65987188Y43723624D01*
X65823216Y43791544D01*
X65675646Y43890147D01*
X65550147Y44015646D01*
X65451544Y44163216D01*
X65383624Y44327188D01*
X65349000Y44501259D01*
X65349000Y44678741D01*
X65383624Y44852812D01*
X65451544Y45016784D01*
X65550147Y45164354D01*
X65675646Y45289853D01*
X65823216Y45388456D01*
X65987188Y45456376D01*
X66136488Y45486073D01*
X66161258Y45491000D01*
X66338742Y45491000D01*
X66363512Y45486073D01*
X66363512Y45486073D01*
G37*
G36*
X40963512Y45486073D02*
G01*
X41112812Y45456376D01*
X41276784Y45388456D01*
X41424354Y45289853D01*
X41549853Y45164354D01*
X41648456Y45016784D01*
X41716376Y44852812D01*
X41751000Y44678741D01*
X41751000Y44501259D01*
X41716376Y44327188D01*
X41648456Y44163216D01*
X41549853Y44015646D01*
X41424354Y43890147D01*
X41276784Y43791544D01*
X41112812Y43723624D01*
X40963512Y43693927D01*
X40938742Y43689000D01*
X40761258Y43689000D01*
X40736488Y43693927D01*
X40587188Y43723624D01*
X40423216Y43791544D01*
X40275646Y43890147D01*
X40150147Y44015646D01*
X40051544Y44163216D01*
X39983624Y44327188D01*
X39949000Y44501259D01*
X39949000Y44678741D01*
X39983624Y44852812D01*
X40051544Y45016784D01*
X40150147Y45164354D01*
X40275646Y45289853D01*
X40423216Y45388456D01*
X40587188Y45456376D01*
X40736488Y45486073D01*
X40761258Y45491000D01*
X40938742Y45491000D01*
X40963512Y45486073D01*
X40963512Y45486073D01*
G37*
G36*
X16177395Y47364454D02*
G01*
X16350466Y47292766D01*
X16350467Y47292765D01*
X16506227Y47188690D01*
X16638690Y47056227D01*
X16638691Y47056225D01*
X16742766Y46900466D01*
X16814454Y46727395D01*
X16851000Y46543667D01*
X16851000Y46356333D01*
X16814454Y46172605D01*
X16742766Y45999534D01*
X16742765Y45999533D01*
X16638690Y45843773D01*
X16506227Y45711310D01*
X16427818Y45658919D01*
X16350466Y45607234D01*
X16177395Y45535546D01*
X15993667Y45499000D01*
X15806333Y45499000D01*
X15622605Y45535546D01*
X15449534Y45607234D01*
X15372182Y45658919D01*
X15293773Y45711310D01*
X15161310Y45843773D01*
X15057235Y45999533D01*
X15057234Y45999534D01*
X14985546Y46172605D01*
X14949000Y46356333D01*
X14949000Y46543667D01*
X14985546Y46727395D01*
X15057234Y46900466D01*
X15161309Y47056225D01*
X15161310Y47056227D01*
X15293773Y47188690D01*
X15449533Y47292765D01*
X15449534Y47292766D01*
X15622605Y47364454D01*
X15806333Y47401000D01*
X15993667Y47401000D01*
X16177395Y47364454D01*
X16177395Y47364454D01*
G37*
G36*
X28877395Y47364454D02*
G01*
X29050466Y47292766D01*
X29050467Y47292765D01*
X29206227Y47188690D01*
X29338690Y47056227D01*
X29338691Y47056225D01*
X29442766Y46900466D01*
X29514454Y46727395D01*
X29551000Y46543667D01*
X29551000Y46356333D01*
X29514454Y46172605D01*
X29442766Y45999534D01*
X29442765Y45999533D01*
X29338690Y45843773D01*
X29206227Y45711310D01*
X29127818Y45658919D01*
X29050466Y45607234D01*
X28877395Y45535546D01*
X28693667Y45499000D01*
X28506333Y45499000D01*
X28322605Y45535546D01*
X28149534Y45607234D01*
X28072182Y45658919D01*
X27993773Y45711310D01*
X27861310Y45843773D01*
X27757235Y45999533D01*
X27757234Y45999534D01*
X27685546Y46172605D01*
X27649000Y46356333D01*
X27649000Y46543667D01*
X27685546Y46727395D01*
X27757234Y46900466D01*
X27861309Y47056225D01*
X27861310Y47056227D01*
X27993773Y47188690D01*
X28149533Y47292765D01*
X28149534Y47292766D01*
X28322605Y47364454D01*
X28506333Y47401000D01*
X28693667Y47401000D01*
X28877395Y47364454D01*
X28877395Y47364454D01*
G37*
G36*
X66363512Y48026073D02*
G01*
X66512812Y47996376D01*
X66676784Y47928456D01*
X66824354Y47829853D01*
X66949853Y47704354D01*
X67048456Y47556784D01*
X67116376Y47392812D01*
X67151000Y47218741D01*
X67151000Y47041259D01*
X67116376Y46867188D01*
X67048456Y46703216D01*
X66949853Y46555646D01*
X66824354Y46430147D01*
X66676784Y46331544D01*
X66512812Y46263624D01*
X66363512Y46233927D01*
X66338742Y46229000D01*
X66161258Y46229000D01*
X66136488Y46233927D01*
X65987188Y46263624D01*
X65823216Y46331544D01*
X65675646Y46430147D01*
X65550147Y46555646D01*
X65451544Y46703216D01*
X65383624Y46867188D01*
X65349000Y47041259D01*
X65349000Y47218741D01*
X65383624Y47392812D01*
X65451544Y47556784D01*
X65550147Y47704354D01*
X65675646Y47829853D01*
X65823216Y47928456D01*
X65987188Y47996376D01*
X66136488Y48026073D01*
X66161258Y48031000D01*
X66338742Y48031000D01*
X66363512Y48026073D01*
X66363512Y48026073D01*
G37*
G36*
X40963512Y48026073D02*
G01*
X41112812Y47996376D01*
X41276784Y47928456D01*
X41424354Y47829853D01*
X41549853Y47704354D01*
X41648456Y47556784D01*
X41716376Y47392812D01*
X41751000Y47218741D01*
X41751000Y47041259D01*
X41716376Y46867188D01*
X41648456Y46703216D01*
X41549853Y46555646D01*
X41424354Y46430147D01*
X41276784Y46331544D01*
X41112812Y46263624D01*
X40963512Y46233927D01*
X40938742Y46229000D01*
X40761258Y46229000D01*
X40736488Y46233927D01*
X40587188Y46263624D01*
X40423216Y46331544D01*
X40275646Y46430147D01*
X40150147Y46555646D01*
X40051544Y46703216D01*
X39983624Y46867188D01*
X39949000Y47041259D01*
X39949000Y47218741D01*
X39983624Y47392812D01*
X40051544Y47556784D01*
X40150147Y47704354D01*
X40275646Y47829853D01*
X40423216Y47928456D01*
X40587188Y47996376D01*
X40736488Y48026073D01*
X40761258Y48031000D01*
X40938742Y48031000D01*
X40963512Y48026073D01*
X40963512Y48026073D01*
G37*
G36*
X100327395Y49444454D02*
G01*
X100500466Y49372766D01*
X100500467Y49372765D01*
X100656227Y49268690D01*
X100788690Y49136227D01*
X100815805Y49095646D01*
X100892766Y48980466D01*
X100964454Y48807395D01*
X101001000Y48623667D01*
X101001000Y48436333D01*
X100964454Y48252605D01*
X100892766Y48079534D01*
X100841081Y48002182D01*
X100788690Y47923773D01*
X100656227Y47791310D01*
X100577818Y47738919D01*
X100500466Y47687234D01*
X100327395Y47615546D01*
X100143667Y47579000D01*
X99956333Y47579000D01*
X99772605Y47615546D01*
X99599534Y47687234D01*
X99522182Y47738919D01*
X99443773Y47791310D01*
X99311310Y47923773D01*
X99258919Y48002182D01*
X99207234Y48079534D01*
X99135546Y48252605D01*
X99099000Y48436333D01*
X99099000Y48623667D01*
X99135546Y48807395D01*
X99207234Y48980466D01*
X99284195Y49095646D01*
X99311310Y49136227D01*
X99443773Y49268690D01*
X99599533Y49372765D01*
X99599534Y49372766D01*
X99772605Y49444454D01*
X99956333Y49481000D01*
X100143667Y49481000D01*
X100327395Y49444454D01*
X100327395Y49444454D01*
G37*
G36*
X78777395Y49864454D02*
G01*
X78950466Y49792766D01*
X78950467Y49792765D01*
X79106227Y49688690D01*
X79238690Y49556227D01*
X79238691Y49556225D01*
X79342766Y49400466D01*
X79414454Y49227395D01*
X79451000Y49043667D01*
X79451000Y48856333D01*
X79414454Y48672605D01*
X79342766Y48499534D01*
X79342765Y48499533D01*
X79238690Y48343773D01*
X79106227Y48211310D01*
X79027818Y48158919D01*
X78950466Y48107234D01*
X78777395Y48035546D01*
X78593667Y47999000D01*
X78406333Y47999000D01*
X78222605Y48035546D01*
X78049534Y48107234D01*
X77972182Y48158919D01*
X77893773Y48211310D01*
X77761310Y48343773D01*
X77657235Y48499533D01*
X77657234Y48499534D01*
X77585546Y48672605D01*
X77549000Y48856333D01*
X77549000Y49043667D01*
X77585546Y49227395D01*
X77657234Y49400466D01*
X77761309Y49556225D01*
X77761310Y49556227D01*
X77893773Y49688690D01*
X78049533Y49792765D01*
X78049534Y49792766D01*
X78222605Y49864454D01*
X78406333Y49901000D01*
X78593667Y49901000D01*
X78777395Y49864454D01*
X78777395Y49864454D01*
G37*
G36*
X91477395Y49864454D02*
G01*
X91650466Y49792766D01*
X91650467Y49792765D01*
X91806227Y49688690D01*
X91938690Y49556227D01*
X91938691Y49556225D01*
X92042766Y49400466D01*
X92114454Y49227395D01*
X92151000Y49043667D01*
X92151000Y48856333D01*
X92114454Y48672605D01*
X92042766Y48499534D01*
X92042765Y48499533D01*
X91938690Y48343773D01*
X91806227Y48211310D01*
X91727818Y48158919D01*
X91650466Y48107234D01*
X91477395Y48035546D01*
X91293667Y47999000D01*
X91106333Y47999000D01*
X90922605Y48035546D01*
X90749534Y48107234D01*
X90672182Y48158919D01*
X90593773Y48211310D01*
X90461310Y48343773D01*
X90357235Y48499533D01*
X90357234Y48499534D01*
X90285546Y48672605D01*
X90249000Y48856333D01*
X90249000Y49043667D01*
X90285546Y49227395D01*
X90357234Y49400466D01*
X90461309Y49556225D01*
X90461310Y49556227D01*
X90593773Y49688690D01*
X90749533Y49792765D01*
X90749534Y49792766D01*
X90922605Y49864454D01*
X91106333Y49901000D01*
X91293667Y49901000D01*
X91477395Y49864454D01*
X91477395Y49864454D01*
G37*
G36*
X11927395Y50214454D02*
G01*
X12100466Y50142766D01*
X12100467Y50142765D01*
X12256227Y50038690D01*
X12388690Y49906227D01*
X12416602Y49864454D01*
X12492766Y49750466D01*
X12564454Y49577395D01*
X12601000Y49393667D01*
X12601000Y49206333D01*
X12564454Y49022605D01*
X12492766Y48849534D01*
X12462090Y48803624D01*
X12388690Y48693773D01*
X12256227Y48561310D01*
X12177818Y48508919D01*
X12100466Y48457234D01*
X11927395Y48385546D01*
X11743667Y48349000D01*
X11556333Y48349000D01*
X11372605Y48385546D01*
X11199534Y48457234D01*
X11122182Y48508919D01*
X11043773Y48561310D01*
X10911310Y48693773D01*
X10837910Y48803624D01*
X10807234Y48849534D01*
X10735546Y49022605D01*
X10699000Y49206333D01*
X10699000Y49393667D01*
X10735546Y49577395D01*
X10807234Y49750466D01*
X10883398Y49864454D01*
X10911310Y49906227D01*
X11043773Y50038690D01*
X11199533Y50142765D01*
X11199534Y50142766D01*
X11372605Y50214454D01*
X11556333Y50251000D01*
X11743667Y50251000D01*
X11927395Y50214454D01*
X11927395Y50214454D01*
G37*
G36*
X6577395Y50214454D02*
G01*
X6750466Y50142766D01*
X6750467Y50142765D01*
X6906227Y50038690D01*
X7038690Y49906227D01*
X7066602Y49864454D01*
X7142766Y49750466D01*
X7214454Y49577395D01*
X7251000Y49393667D01*
X7251000Y49206333D01*
X7214454Y49022605D01*
X7142766Y48849534D01*
X7112090Y48803624D01*
X7038690Y48693773D01*
X6906227Y48561310D01*
X6827818Y48508919D01*
X6750466Y48457234D01*
X6577395Y48385546D01*
X6393667Y48349000D01*
X6206333Y48349000D01*
X6022605Y48385546D01*
X5849534Y48457234D01*
X5772182Y48508919D01*
X5693773Y48561310D01*
X5561310Y48693773D01*
X5487910Y48803624D01*
X5457234Y48849534D01*
X5385546Y49022605D01*
X5349000Y49206333D01*
X5349000Y49393667D01*
X5385546Y49577395D01*
X5457234Y49750466D01*
X5533398Y49864454D01*
X5561310Y49906227D01*
X5693773Y50038690D01*
X5849533Y50142765D01*
X5849534Y50142766D01*
X6022605Y50214454D01*
X6206333Y50251000D01*
X6393667Y50251000D01*
X6577395Y50214454D01*
X6577395Y50214454D01*
G37*
G36*
X66363512Y50566073D02*
G01*
X66512812Y50536376D01*
X66676784Y50468456D01*
X66824354Y50369853D01*
X66949853Y50244354D01*
X67048456Y50096784D01*
X67116376Y49932812D01*
X67140544Y49811309D01*
X67151000Y49758742D01*
X67151000Y49581258D01*
X67146073Y49556488D01*
X67116376Y49407188D01*
X67048456Y49243216D01*
X66949853Y49095646D01*
X66824354Y48970147D01*
X66676784Y48871544D01*
X66512812Y48803624D01*
X66363512Y48773927D01*
X66338742Y48769000D01*
X66161258Y48769000D01*
X66136488Y48773927D01*
X65987188Y48803624D01*
X65823216Y48871544D01*
X65675646Y48970147D01*
X65550147Y49095646D01*
X65451544Y49243216D01*
X65383624Y49407188D01*
X65353927Y49556488D01*
X65349000Y49581258D01*
X65349000Y49758742D01*
X65359456Y49811309D01*
X65383624Y49932812D01*
X65451544Y50096784D01*
X65550147Y50244354D01*
X65675646Y50369853D01*
X65823216Y50468456D01*
X65987188Y50536376D01*
X66136488Y50566073D01*
X66161258Y50571000D01*
X66338742Y50571000D01*
X66363512Y50566073D01*
X66363512Y50566073D01*
G37*
G36*
X40963512Y50566073D02*
G01*
X41112812Y50536376D01*
X41276784Y50468456D01*
X41424354Y50369853D01*
X41549853Y50244354D01*
X41648456Y50096784D01*
X41716376Y49932812D01*
X41740544Y49811309D01*
X41751000Y49758742D01*
X41751000Y49581258D01*
X41746073Y49556488D01*
X41716376Y49407188D01*
X41648456Y49243216D01*
X41549853Y49095646D01*
X41424354Y48970147D01*
X41276784Y48871544D01*
X41112812Y48803624D01*
X40963512Y48773927D01*
X40938742Y48769000D01*
X40761258Y48769000D01*
X40736488Y48773927D01*
X40587188Y48803624D01*
X40423216Y48871544D01*
X40275646Y48970147D01*
X40150147Y49095646D01*
X40051544Y49243216D01*
X39983624Y49407188D01*
X39953927Y49556488D01*
X39949000Y49581258D01*
X39949000Y49758742D01*
X39959456Y49811309D01*
X39983624Y49932812D01*
X40051544Y50096784D01*
X40150147Y50244354D01*
X40275646Y50369853D01*
X40423216Y50468456D01*
X40587188Y50536376D01*
X40736488Y50566073D01*
X40761258Y50571000D01*
X40938742Y50571000D01*
X40963512Y50566073D01*
X40963512Y50566073D01*
G37*
G36*
X32677395Y51464454D02*
G01*
X32850466Y51392766D01*
X32850467Y51392765D01*
X33006227Y51288690D01*
X33138690Y51156227D01*
X33191081Y51077818D01*
X33242766Y51000466D01*
X33314454Y50827395D01*
X33351000Y50643667D01*
X33351000Y50456333D01*
X33314454Y50272605D01*
X33242766Y50099534D01*
X33240927Y50096782D01*
X33138690Y49943773D01*
X33006227Y49811310D01*
X32978472Y49792765D01*
X32850466Y49707234D01*
X32677395Y49635546D01*
X32493667Y49599000D01*
X32306333Y49599000D01*
X32122605Y49635546D01*
X31949534Y49707234D01*
X31821528Y49792765D01*
X31793773Y49811310D01*
X31661310Y49943773D01*
X31559073Y50096782D01*
X31557234Y50099534D01*
X31485546Y50272605D01*
X31449000Y50456333D01*
X31449000Y50643667D01*
X31485546Y50827395D01*
X31557234Y51000466D01*
X31608919Y51077818D01*
X31661310Y51156227D01*
X31793773Y51288690D01*
X31949533Y51392765D01*
X31949534Y51392766D01*
X32122605Y51464454D01*
X32306333Y51501000D01*
X32493667Y51501000D01*
X32677395Y51464454D01*
X32677395Y51464454D01*
G37*
G36*
X100327395Y51984454D02*
G01*
X100500466Y51912766D01*
X100500467Y51912765D01*
X100656227Y51808690D01*
X100788690Y51676227D01*
X100815805Y51635646D01*
X100892766Y51520466D01*
X100964454Y51347395D01*
X101001000Y51163667D01*
X101001000Y50976333D01*
X100964454Y50792605D01*
X100892766Y50619534D01*
X100841081Y50542182D01*
X100788690Y50463773D01*
X100656227Y50331310D01*
X100577818Y50278919D01*
X100500466Y50227234D01*
X100327395Y50155546D01*
X100143667Y50119000D01*
X99956333Y50119000D01*
X99772605Y50155546D01*
X99599534Y50227234D01*
X99522182Y50278919D01*
X99443773Y50331310D01*
X99311310Y50463773D01*
X99258919Y50542182D01*
X99207234Y50619534D01*
X99135546Y50792605D01*
X99099000Y50976333D01*
X99099000Y51163667D01*
X99135546Y51347395D01*
X99207234Y51520466D01*
X99284195Y51635646D01*
X99311310Y51676227D01*
X99443773Y51808690D01*
X99599533Y51912765D01*
X99599534Y51912766D01*
X99772605Y51984454D01*
X99956333Y52021000D01*
X100143667Y52021000D01*
X100327395Y51984454D01*
X100327395Y51984454D01*
G37*
G36*
X75077395Y52464454D02*
G01*
X75250466Y52392766D01*
X75250467Y52392765D01*
X75406227Y52288690D01*
X75538690Y52156227D01*
X75538691Y52156225D01*
X75642766Y52000466D01*
X75714454Y51827395D01*
X75751000Y51643667D01*
X75751000Y51456333D01*
X75714454Y51272605D01*
X75642766Y51099534D01*
X75642765Y51099533D01*
X75538690Y50943773D01*
X75406227Y50811310D01*
X75378233Y50792605D01*
X75250466Y50707234D01*
X75077395Y50635546D01*
X74893667Y50599000D01*
X74706333Y50599000D01*
X74522605Y50635546D01*
X74349534Y50707234D01*
X74221767Y50792605D01*
X74193773Y50811310D01*
X74061310Y50943773D01*
X73957235Y51099533D01*
X73957234Y51099534D01*
X73885546Y51272605D01*
X73849000Y51456333D01*
X73849000Y51643667D01*
X73885546Y51827395D01*
X73957234Y52000466D01*
X74061309Y52156225D01*
X74061310Y52156227D01*
X74193773Y52288690D01*
X74349533Y52392765D01*
X74349534Y52392766D01*
X74522605Y52464454D01*
X74706333Y52501000D01*
X74893667Y52501000D01*
X75077395Y52464454D01*
X75077395Y52464454D01*
G37*
G36*
X40963512Y53106073D02*
G01*
X41112812Y53076376D01*
X41276784Y53008456D01*
X41424354Y52909853D01*
X41549853Y52784354D01*
X41648456Y52636784D01*
X41716376Y52472812D01*
X41751000Y52298741D01*
X41751000Y52121259D01*
X41716376Y51947188D01*
X41648456Y51783216D01*
X41549853Y51635646D01*
X41424354Y51510147D01*
X41276784Y51411544D01*
X41112812Y51343624D01*
X40963512Y51313927D01*
X40938742Y51309000D01*
X40761258Y51309000D01*
X40736488Y51313927D01*
X40587188Y51343624D01*
X40423216Y51411544D01*
X40275646Y51510147D01*
X40150147Y51635646D01*
X40051544Y51783216D01*
X39983624Y51947188D01*
X39949000Y52121259D01*
X39949000Y52298741D01*
X39983624Y52472812D01*
X40051544Y52636784D01*
X40150147Y52784354D01*
X40275646Y52909853D01*
X40423216Y53008456D01*
X40587188Y53076376D01*
X40736488Y53106073D01*
X40761258Y53111000D01*
X40938742Y53111000D01*
X40963512Y53106073D01*
X40963512Y53106073D01*
G37*
G36*
X66363512Y53106073D02*
G01*
X66512812Y53076376D01*
X66676784Y53008456D01*
X66824354Y52909853D01*
X66949853Y52784354D01*
X67048456Y52636784D01*
X67116376Y52472812D01*
X67151000Y52298741D01*
X67151000Y52121259D01*
X67116376Y51947188D01*
X67048456Y51783216D01*
X66949853Y51635646D01*
X66824354Y51510147D01*
X66676784Y51411544D01*
X66512812Y51343624D01*
X66363512Y51313927D01*
X66338742Y51309000D01*
X66161258Y51309000D01*
X66136488Y51313927D01*
X65987188Y51343624D01*
X65823216Y51411544D01*
X65675646Y51510147D01*
X65550147Y51635646D01*
X65451544Y51783216D01*
X65383624Y51947188D01*
X65349000Y52121259D01*
X65349000Y52298741D01*
X65383624Y52472812D01*
X65451544Y52636784D01*
X65550147Y52784354D01*
X65675646Y52909853D01*
X65823216Y53008456D01*
X65987188Y53076376D01*
X66136488Y53106073D01*
X66161258Y53111000D01*
X66338742Y53111000D01*
X66363512Y53106073D01*
X66363512Y53106073D01*
G37*
G36*
X100327395Y54524454D02*
G01*
X100500466Y54452766D01*
X100500467Y54452765D01*
X100656227Y54348690D01*
X100788690Y54216227D01*
X100815805Y54175646D01*
X100892766Y54060466D01*
X100964454Y53887395D01*
X101001000Y53703667D01*
X101001000Y53516333D01*
X100964454Y53332605D01*
X100892766Y53159534D01*
X100841081Y53082182D01*
X100788690Y53003773D01*
X100656227Y52871310D01*
X100577818Y52818919D01*
X100500466Y52767234D01*
X100327395Y52695546D01*
X100143667Y52659000D01*
X99956333Y52659000D01*
X99772605Y52695546D01*
X99599534Y52767234D01*
X99522182Y52818919D01*
X99443773Y52871310D01*
X99311310Y53003773D01*
X99258919Y53082182D01*
X99207234Y53159534D01*
X99135546Y53332605D01*
X99099000Y53516333D01*
X99099000Y53703667D01*
X99135546Y53887395D01*
X99207234Y54060466D01*
X99284195Y54175646D01*
X99311310Y54216227D01*
X99443773Y54348690D01*
X99599533Y54452765D01*
X99599534Y54452766D01*
X99772605Y54524454D01*
X99956333Y54561000D01*
X100143667Y54561000D01*
X100327395Y54524454D01*
X100327395Y54524454D01*
G37*
G36*
X66363512Y55646073D02*
G01*
X66512812Y55616376D01*
X66676784Y55548456D01*
X66824354Y55449853D01*
X66949853Y55324354D01*
X67048456Y55176784D01*
X67116376Y55012812D01*
X67151000Y54838741D01*
X67151000Y54661259D01*
X67116376Y54487188D01*
X67048456Y54323216D01*
X66949853Y54175646D01*
X66824354Y54050147D01*
X66676784Y53951544D01*
X66512812Y53883624D01*
X66363512Y53853927D01*
X66338742Y53849000D01*
X66161258Y53849000D01*
X66136488Y53853927D01*
X65987188Y53883624D01*
X65823216Y53951544D01*
X65675646Y54050147D01*
X65550147Y54175646D01*
X65451544Y54323216D01*
X65383624Y54487188D01*
X65349000Y54661259D01*
X65349000Y54838741D01*
X65383624Y55012812D01*
X65451544Y55176784D01*
X65550147Y55324354D01*
X65675646Y55449853D01*
X65823216Y55548456D01*
X65987188Y55616376D01*
X66136488Y55646073D01*
X66161258Y55651000D01*
X66338742Y55651000D01*
X66363512Y55646073D01*
X66363512Y55646073D01*
G37*
G36*
X40963512Y55646073D02*
G01*
X41112812Y55616376D01*
X41276784Y55548456D01*
X41424354Y55449853D01*
X41549853Y55324354D01*
X41648456Y55176784D01*
X41716376Y55012812D01*
X41751000Y54838741D01*
X41751000Y54661259D01*
X41716376Y54487188D01*
X41648456Y54323216D01*
X41549853Y54175646D01*
X41424354Y54050147D01*
X41276784Y53951544D01*
X41112812Y53883624D01*
X40963512Y53853927D01*
X40938742Y53849000D01*
X40761258Y53849000D01*
X40736488Y53853927D01*
X40587188Y53883624D01*
X40423216Y53951544D01*
X40275646Y54050147D01*
X40150147Y54175646D01*
X40051544Y54323216D01*
X39983624Y54487188D01*
X39949000Y54661259D01*
X39949000Y54838741D01*
X39983624Y55012812D01*
X40051544Y55176784D01*
X40150147Y55324354D01*
X40275646Y55449853D01*
X40423216Y55548456D01*
X40587188Y55616376D01*
X40736488Y55646073D01*
X40761258Y55651000D01*
X40938742Y55651000D01*
X40963512Y55646073D01*
X40963512Y55646073D01*
G37*
G36*
X100327395Y57064454D02*
G01*
X100500466Y56992766D01*
X100500467Y56992765D01*
X100656227Y56888690D01*
X100788690Y56756227D01*
X100815805Y56715646D01*
X100892766Y56600466D01*
X100964454Y56427395D01*
X101001000Y56243667D01*
X101001000Y56056333D01*
X100964454Y55872605D01*
X100892766Y55699534D01*
X100841081Y55622182D01*
X100788690Y55543773D01*
X100656227Y55411310D01*
X100577818Y55358919D01*
X100500466Y55307234D01*
X100327395Y55235546D01*
X100143667Y55199000D01*
X99956333Y55199000D01*
X99772605Y55235546D01*
X99599534Y55307234D01*
X99522182Y55358919D01*
X99443773Y55411310D01*
X99311310Y55543773D01*
X99258919Y55622182D01*
X99207234Y55699534D01*
X99135546Y55872605D01*
X99099000Y56056333D01*
X99099000Y56243667D01*
X99135546Y56427395D01*
X99207234Y56600466D01*
X99284195Y56715646D01*
X99311310Y56756227D01*
X99443773Y56888690D01*
X99599533Y56992765D01*
X99599534Y56992766D01*
X99772605Y57064454D01*
X99956333Y57101000D01*
X100143667Y57101000D01*
X100327395Y57064454D01*
X100327395Y57064454D01*
G37*
G36*
X40963512Y58186073D02*
G01*
X41112812Y58156376D01*
X41276784Y58088456D01*
X41424354Y57989853D01*
X41549853Y57864354D01*
X41648456Y57716784D01*
X41716376Y57552812D01*
X41751000Y57378741D01*
X41751000Y57201259D01*
X41716376Y57027188D01*
X41648456Y56863216D01*
X41549853Y56715646D01*
X41424354Y56590147D01*
X41276784Y56491544D01*
X41112812Y56423624D01*
X40963512Y56393927D01*
X40938742Y56389000D01*
X40761258Y56389000D01*
X40736488Y56393927D01*
X40587188Y56423624D01*
X40423216Y56491544D01*
X40275646Y56590147D01*
X40150147Y56715646D01*
X40051544Y56863216D01*
X39983624Y57027188D01*
X39949000Y57201259D01*
X39949000Y57378741D01*
X39983624Y57552812D01*
X40051544Y57716784D01*
X40150147Y57864354D01*
X40275646Y57989853D01*
X40423216Y58088456D01*
X40587188Y58156376D01*
X40736488Y58186073D01*
X40761258Y58191000D01*
X40938742Y58191000D01*
X40963512Y58186073D01*
X40963512Y58186073D01*
G37*
G36*
X66363512Y58186073D02*
G01*
X66512812Y58156376D01*
X66676784Y58088456D01*
X66824354Y57989853D01*
X66949853Y57864354D01*
X67048456Y57716784D01*
X67116376Y57552812D01*
X67151000Y57378741D01*
X67151000Y57201259D01*
X67116376Y57027188D01*
X67048456Y56863216D01*
X66949853Y56715646D01*
X66824354Y56590147D01*
X66676784Y56491544D01*
X66512812Y56423624D01*
X66363512Y56393927D01*
X66338742Y56389000D01*
X66161258Y56389000D01*
X66136488Y56393927D01*
X65987188Y56423624D01*
X65823216Y56491544D01*
X65675646Y56590147D01*
X65550147Y56715646D01*
X65451544Y56863216D01*
X65383624Y57027188D01*
X65349000Y57201259D01*
X65349000Y57378741D01*
X65383624Y57552812D01*
X65451544Y57716784D01*
X65550147Y57864354D01*
X65675646Y57989853D01*
X65823216Y58088456D01*
X65987188Y58156376D01*
X66136488Y58186073D01*
X66161258Y58191000D01*
X66338742Y58191000D01*
X66363512Y58186073D01*
X66363512Y58186073D01*
G37*
G36*
X17206564Y60060611D02*
G01*
X17397833Y59981385D01*
X17397835Y59981384D01*
X17569973Y59866365D01*
X17716365Y59719973D01*
X17825777Y59556227D01*
X17831385Y59547833D01*
X17910611Y59356564D01*
X17951000Y59153516D01*
X17951000Y58946484D01*
X17910611Y58743436D01*
X17831385Y58552167D01*
X17831384Y58552165D01*
X17716365Y58380027D01*
X17569973Y58233635D01*
X17397835Y58118616D01*
X17397834Y58118615D01*
X17397833Y58118615D01*
X17206564Y58039389D01*
X17003516Y57999000D01*
X16796484Y57999000D01*
X16593436Y58039389D01*
X16402167Y58118615D01*
X16402166Y58118615D01*
X16402165Y58118616D01*
X16230027Y58233635D01*
X16083635Y58380027D01*
X15968616Y58552165D01*
X15968615Y58552167D01*
X15889389Y58743436D01*
X15849000Y58946484D01*
X15849000Y59153516D01*
X15889389Y59356564D01*
X15968615Y59547833D01*
X15974224Y59556227D01*
X16083635Y59719973D01*
X16230027Y59866365D01*
X16402165Y59981384D01*
X16402167Y59981385D01*
X16593436Y60060611D01*
X16796484Y60101000D01*
X17003516Y60101000D01*
X17206564Y60060611D01*
X17206564Y60060611D01*
G37*
G36*
X87767395Y59864454D02*
G01*
X87940466Y59792766D01*
X87940467Y59792765D01*
X88096227Y59688690D01*
X88228690Y59556227D01*
X88281081Y59477818D01*
X88332766Y59400466D01*
X88404454Y59227395D01*
X88441000Y59043667D01*
X88441000Y58856333D01*
X88404454Y58672605D01*
X88332766Y58499534D01*
X88332765Y58499533D01*
X88228690Y58343773D01*
X88096227Y58211310D01*
X88017818Y58158919D01*
X87940466Y58107234D01*
X87767395Y58035546D01*
X87583667Y57999000D01*
X87396333Y57999000D01*
X87212605Y58035546D01*
X87039534Y58107234D01*
X86962182Y58158919D01*
X86883773Y58211310D01*
X86751310Y58343773D01*
X86647235Y58499533D01*
X86647234Y58499534D01*
X86575546Y58672605D01*
X86539000Y58856333D01*
X86539000Y59043667D01*
X86575546Y59227395D01*
X86647234Y59400466D01*
X86698919Y59477818D01*
X86751310Y59556227D01*
X86883773Y59688690D01*
X87039533Y59792765D01*
X87039534Y59792766D01*
X87212605Y59864454D01*
X87396333Y59901000D01*
X87583667Y59901000D01*
X87767395Y59864454D01*
X87767395Y59864454D01*
G37*
G36*
X85227395Y59864454D02*
G01*
X85400466Y59792766D01*
X85400467Y59792765D01*
X85556227Y59688690D01*
X85688690Y59556227D01*
X85741081Y59477818D01*
X85792766Y59400466D01*
X85864454Y59227395D01*
X85901000Y59043667D01*
X85901000Y58856333D01*
X85864454Y58672605D01*
X85792766Y58499534D01*
X85792765Y58499533D01*
X85688690Y58343773D01*
X85556227Y58211310D01*
X85477818Y58158919D01*
X85400466Y58107234D01*
X85227395Y58035546D01*
X85043667Y57999000D01*
X84856333Y57999000D01*
X84672605Y58035546D01*
X84499534Y58107234D01*
X84422182Y58158919D01*
X84343773Y58211310D01*
X84211310Y58343773D01*
X84107235Y58499533D01*
X84107234Y58499534D01*
X84035546Y58672605D01*
X83999000Y58856333D01*
X83999000Y59043667D01*
X84035546Y59227395D01*
X84107234Y59400466D01*
X84158919Y59477818D01*
X84211310Y59556227D01*
X84343773Y59688690D01*
X84499533Y59792765D01*
X84499534Y59792766D01*
X84672605Y59864454D01*
X84856333Y59901000D01*
X85043667Y59901000D01*
X85227395Y59864454D01*
X85227395Y59864454D01*
G37*
G36*
X23706564Y60060611D02*
G01*
X23897833Y59981385D01*
X23897835Y59981384D01*
X24069973Y59866365D01*
X24216365Y59719973D01*
X24325777Y59556227D01*
X24331385Y59547833D01*
X24410611Y59356564D01*
X24451000Y59153516D01*
X24451000Y58946484D01*
X24410611Y58743436D01*
X24331385Y58552167D01*
X24331384Y58552165D01*
X24216365Y58380027D01*
X24069973Y58233635D01*
X23897835Y58118616D01*
X23897834Y58118615D01*
X23897833Y58118615D01*
X23706564Y58039389D01*
X23503516Y57999000D01*
X23296484Y57999000D01*
X23093436Y58039389D01*
X22902167Y58118615D01*
X22902166Y58118615D01*
X22902165Y58118616D01*
X22730027Y58233635D01*
X22583635Y58380027D01*
X22468616Y58552165D01*
X22468615Y58552167D01*
X22389389Y58743436D01*
X22349000Y58946484D01*
X22349000Y59153516D01*
X22389389Y59356564D01*
X22468615Y59547833D01*
X22474224Y59556227D01*
X22583635Y59719973D01*
X22730027Y59866365D01*
X22902165Y59981384D01*
X22902167Y59981385D01*
X23093436Y60060611D01*
X23296484Y60101000D01*
X23503516Y60101000D01*
X23706564Y60060611D01*
X23706564Y60060611D01*
G37*
G36*
X90307395Y59864454D02*
G01*
X90480466Y59792766D01*
X90480467Y59792765D01*
X90636227Y59688690D01*
X90768690Y59556227D01*
X90821081Y59477818D01*
X90872766Y59400466D01*
X90944454Y59227395D01*
X90981000Y59043667D01*
X90981000Y58856333D01*
X90944454Y58672605D01*
X90872766Y58499534D01*
X90872765Y58499533D01*
X90768690Y58343773D01*
X90636227Y58211310D01*
X90557818Y58158919D01*
X90480466Y58107234D01*
X90307395Y58035546D01*
X90123667Y57999000D01*
X89936333Y57999000D01*
X89752605Y58035546D01*
X89579534Y58107234D01*
X89502182Y58158919D01*
X89423773Y58211310D01*
X89291310Y58343773D01*
X89187235Y58499533D01*
X89187234Y58499534D01*
X89115546Y58672605D01*
X89079000Y58856333D01*
X89079000Y59043667D01*
X89115546Y59227395D01*
X89187234Y59400466D01*
X89238919Y59477818D01*
X89291310Y59556227D01*
X89423773Y59688690D01*
X89579533Y59792765D01*
X89579534Y59792766D01*
X89752605Y59864454D01*
X89936333Y59901000D01*
X90123667Y59901000D01*
X90307395Y59864454D01*
X90307395Y59864454D01*
G37*
G36*
X66363512Y60726073D02*
G01*
X66512812Y60696376D01*
X66676784Y60628456D01*
X66824354Y60529853D01*
X66949853Y60404354D01*
X67048456Y60256784D01*
X67116376Y60092812D01*
X67151000Y59918741D01*
X67151000Y59741259D01*
X67116376Y59567188D01*
X67048456Y59403216D01*
X66949853Y59255646D01*
X66824354Y59130147D01*
X66676784Y59031544D01*
X66512812Y58963624D01*
X66363512Y58933927D01*
X66338742Y58929000D01*
X66161258Y58929000D01*
X66136488Y58933927D01*
X65987188Y58963624D01*
X65823216Y59031544D01*
X65675646Y59130147D01*
X65550147Y59255646D01*
X65451544Y59403216D01*
X65383624Y59567188D01*
X65349000Y59741259D01*
X65349000Y59918741D01*
X65383624Y60092812D01*
X65451544Y60256784D01*
X65550147Y60404354D01*
X65675646Y60529853D01*
X65823216Y60628456D01*
X65987188Y60696376D01*
X66136488Y60726073D01*
X66161258Y60731000D01*
X66338742Y60731000D01*
X66363512Y60726073D01*
X66363512Y60726073D01*
G37*
G36*
X40963512Y60726073D02*
G01*
X41112812Y60696376D01*
X41276784Y60628456D01*
X41424354Y60529853D01*
X41549853Y60404354D01*
X41648456Y60256784D01*
X41716376Y60092812D01*
X41751000Y59918741D01*
X41751000Y59741259D01*
X41716376Y59567188D01*
X41648456Y59403216D01*
X41549853Y59255646D01*
X41424354Y59130147D01*
X41276784Y59031544D01*
X41112812Y58963624D01*
X40963512Y58933927D01*
X40938742Y58929000D01*
X40761258Y58929000D01*
X40736488Y58933927D01*
X40587188Y58963624D01*
X40423216Y59031544D01*
X40275646Y59130147D01*
X40150147Y59255646D01*
X40051544Y59403216D01*
X39983624Y59567188D01*
X39949000Y59741259D01*
X39949000Y59918741D01*
X39983624Y60092812D01*
X40051544Y60256784D01*
X40150147Y60404354D01*
X40275646Y60529853D01*
X40423216Y60628456D01*
X40587188Y60696376D01*
X40736488Y60726073D01*
X40761258Y60731000D01*
X40938742Y60731000D01*
X40963512Y60726073D01*
X40963512Y60726073D01*
G37*
G36*
X11927395Y62914454D02*
G01*
X12100466Y62842766D01*
X12100467Y62842765D01*
X12256227Y62738690D01*
X12388690Y62606227D01*
X12441081Y62527818D01*
X12492766Y62450466D01*
X12564454Y62277395D01*
X12601000Y62093667D01*
X12601000Y61906333D01*
X12564454Y61722605D01*
X12492766Y61549534D01*
X12462090Y61503624D01*
X12388690Y61393773D01*
X12256227Y61261310D01*
X12177818Y61208919D01*
X12100466Y61157234D01*
X11927395Y61085546D01*
X11743667Y61049000D01*
X11556333Y61049000D01*
X11372605Y61085546D01*
X11199534Y61157234D01*
X11122182Y61208919D01*
X11043773Y61261310D01*
X10911310Y61393773D01*
X10837910Y61503624D01*
X10807234Y61549534D01*
X10735546Y61722605D01*
X10699000Y61906333D01*
X10699000Y62093667D01*
X10735546Y62277395D01*
X10807234Y62450466D01*
X10858919Y62527818D01*
X10911310Y62606227D01*
X11043773Y62738690D01*
X11199533Y62842765D01*
X11199534Y62842766D01*
X11372605Y62914454D01*
X11556333Y62951000D01*
X11743667Y62951000D01*
X11927395Y62914454D01*
X11927395Y62914454D01*
G37*
G36*
X6577395Y62914454D02*
G01*
X6750466Y62842766D01*
X6750467Y62842765D01*
X6906227Y62738690D01*
X7038690Y62606227D01*
X7091081Y62527818D01*
X7142766Y62450466D01*
X7214454Y62277395D01*
X7251000Y62093667D01*
X7251000Y61906333D01*
X7214454Y61722605D01*
X7142766Y61549534D01*
X7112090Y61503624D01*
X7038690Y61393773D01*
X6906227Y61261310D01*
X6827818Y61208919D01*
X6750466Y61157234D01*
X6577395Y61085546D01*
X6393667Y61049000D01*
X6206333Y61049000D01*
X6022605Y61085546D01*
X5849534Y61157234D01*
X5772182Y61208919D01*
X5693773Y61261310D01*
X5561310Y61393773D01*
X5487910Y61503624D01*
X5457234Y61549534D01*
X5385546Y61722605D01*
X5349000Y61906333D01*
X5349000Y62093667D01*
X5385546Y62277395D01*
X5457234Y62450466D01*
X5508919Y62527818D01*
X5561310Y62606227D01*
X5693773Y62738690D01*
X5849533Y62842765D01*
X5849534Y62842766D01*
X6022605Y62914454D01*
X6206333Y62951000D01*
X6393667Y62951000D01*
X6577395Y62914454D01*
X6577395Y62914454D01*
G37*
G36*
X40963512Y63266073D02*
G01*
X41112812Y63236376D01*
X41276784Y63168456D01*
X41424354Y63069853D01*
X41549853Y62944354D01*
X41648456Y62796784D01*
X41716376Y62632812D01*
X41740544Y62511309D01*
X41751000Y62458742D01*
X41751000Y62281258D01*
X41746073Y62256488D01*
X41716376Y62107188D01*
X41648456Y61943216D01*
X41549853Y61795646D01*
X41424354Y61670147D01*
X41276784Y61571544D01*
X41112812Y61503624D01*
X40963512Y61473927D01*
X40938742Y61469000D01*
X40761258Y61469000D01*
X40736488Y61473927D01*
X40587188Y61503624D01*
X40423216Y61571544D01*
X40275646Y61670147D01*
X40150147Y61795646D01*
X40051544Y61943216D01*
X39983624Y62107188D01*
X39953927Y62256488D01*
X39949000Y62281258D01*
X39949000Y62458742D01*
X39959456Y62511309D01*
X39983624Y62632812D01*
X40051544Y62796784D01*
X40150147Y62944354D01*
X40275646Y63069853D01*
X40423216Y63168456D01*
X40587188Y63236376D01*
X40736488Y63266073D01*
X40761258Y63271000D01*
X40938742Y63271000D01*
X40963512Y63266073D01*
X40963512Y63266073D01*
G37*
G36*
X66363512Y63266073D02*
G01*
X66512812Y63236376D01*
X66676784Y63168456D01*
X66824354Y63069853D01*
X66949853Y62944354D01*
X67048456Y62796784D01*
X67116376Y62632812D01*
X67140544Y62511309D01*
X67151000Y62458742D01*
X67151000Y62281258D01*
X67146073Y62256488D01*
X67116376Y62107188D01*
X67048456Y61943216D01*
X66949853Y61795646D01*
X66824354Y61670147D01*
X66676784Y61571544D01*
X66512812Y61503624D01*
X66363512Y61473927D01*
X66338742Y61469000D01*
X66161258Y61469000D01*
X66136488Y61473927D01*
X65987188Y61503624D01*
X65823216Y61571544D01*
X65675646Y61670147D01*
X65550147Y61795646D01*
X65451544Y61943216D01*
X65383624Y62107188D01*
X65353927Y62256488D01*
X65349000Y62281258D01*
X65349000Y62458742D01*
X65359456Y62511309D01*
X65383624Y62632812D01*
X65451544Y62796784D01*
X65550147Y62944354D01*
X65675646Y63069853D01*
X65823216Y63168456D01*
X65987188Y63236376D01*
X66136488Y63266073D01*
X66161258Y63271000D01*
X66338742Y63271000D01*
X66363512Y63266073D01*
X66363512Y63266073D01*
G37*
G36*
X32677395Y64164454D02*
G01*
X32850466Y64092766D01*
X32850467Y64092765D01*
X33006227Y63988690D01*
X33138690Y63856227D01*
X33138691Y63856225D01*
X33242766Y63700466D01*
X33314454Y63527395D01*
X33351000Y63343667D01*
X33351000Y63156333D01*
X33314454Y62972605D01*
X33242766Y62799534D01*
X33240927Y62796782D01*
X33138690Y62643773D01*
X33006227Y62511310D01*
X32927818Y62458919D01*
X32850466Y62407234D01*
X32677395Y62335546D01*
X32493667Y62299000D01*
X32306333Y62299000D01*
X32122605Y62335546D01*
X31949534Y62407234D01*
X31872182Y62458919D01*
X31793773Y62511310D01*
X31661310Y62643773D01*
X31559073Y62796782D01*
X31557234Y62799534D01*
X31485546Y62972605D01*
X31449000Y63156333D01*
X31449000Y63343667D01*
X31485546Y63527395D01*
X31557234Y63700466D01*
X31661309Y63856225D01*
X31661310Y63856227D01*
X31793773Y63988690D01*
X31949533Y64092765D01*
X31949534Y64092766D01*
X32122605Y64164454D01*
X32306333Y64201000D01*
X32493667Y64201000D01*
X32677395Y64164454D01*
X32677395Y64164454D01*
G37*
G36*
X17206564Y64560611D02*
G01*
X17397833Y64481385D01*
X17397835Y64481384D01*
X17569973Y64366365D01*
X17716365Y64219973D01*
X17827561Y64053557D01*
X17831385Y64047833D01*
X17910611Y63856564D01*
X17951000Y63653516D01*
X17951000Y63446484D01*
X17910611Y63243436D01*
X17838711Y63069853D01*
X17831384Y63052165D01*
X17716365Y62880027D01*
X17569973Y62733635D01*
X17397835Y62618616D01*
X17397834Y62618615D01*
X17397833Y62618615D01*
X17206564Y62539389D01*
X17003516Y62499000D01*
X16796484Y62499000D01*
X16593436Y62539389D01*
X16402167Y62618615D01*
X16402166Y62618615D01*
X16402165Y62618616D01*
X16230027Y62733635D01*
X16083635Y62880027D01*
X15968616Y63052165D01*
X15961289Y63069853D01*
X15889389Y63243436D01*
X15849000Y63446484D01*
X15849000Y63653516D01*
X15889389Y63856564D01*
X15968615Y64047833D01*
X15972440Y64053557D01*
X16083635Y64219973D01*
X16230027Y64366365D01*
X16402165Y64481384D01*
X16402167Y64481385D01*
X16593436Y64560611D01*
X16796484Y64601000D01*
X17003516Y64601000D01*
X17206564Y64560611D01*
X17206564Y64560611D01*
G37*
G36*
X23706564Y64560611D02*
G01*
X23897833Y64481385D01*
X23897835Y64481384D01*
X24069973Y64366365D01*
X24216365Y64219973D01*
X24327561Y64053557D01*
X24331385Y64047833D01*
X24410611Y63856564D01*
X24451000Y63653516D01*
X24451000Y63446484D01*
X24410611Y63243436D01*
X24338711Y63069853D01*
X24331384Y63052165D01*
X24216365Y62880027D01*
X24069973Y62733635D01*
X23897835Y62618616D01*
X23897834Y62618615D01*
X23897833Y62618615D01*
X23706564Y62539389D01*
X23503516Y62499000D01*
X23296484Y62499000D01*
X23093436Y62539389D01*
X22902167Y62618615D01*
X22902166Y62618615D01*
X22902165Y62618616D01*
X22730027Y62733635D01*
X22583635Y62880027D01*
X22468616Y63052165D01*
X22461289Y63069853D01*
X22389389Y63243436D01*
X22349000Y63446484D01*
X22349000Y63653516D01*
X22389389Y63856564D01*
X22468615Y64047833D01*
X22472440Y64053557D01*
X22583635Y64219973D01*
X22730027Y64366365D01*
X22902165Y64481384D01*
X22902167Y64481385D01*
X23093436Y64560611D01*
X23296484Y64601000D01*
X23503516Y64601000D01*
X23706564Y64560611D01*
X23706564Y64560611D01*
G37*
G36*
X77960442Y65784482D02*
G01*
X78026627Y65777963D01*
X78196466Y65726443D01*
X78352991Y65642778D01*
X78388729Y65613448D01*
X78490186Y65530186D01*
X78573448Y65428729D01*
X78602778Y65392991D01*
X78686443Y65236466D01*
X78737963Y65066627D01*
X78755359Y64890000D01*
X78737963Y64713373D01*
X78686443Y64543534D01*
X78602778Y64387009D01*
X78585836Y64366365D01*
X78490186Y64249814D01*
X78388729Y64166552D01*
X78352991Y64137222D01*
X78196466Y64053557D01*
X78026627Y64002037D01*
X77960442Y63995518D01*
X77894260Y63989000D01*
X77805740Y63989000D01*
X77739558Y63995518D01*
X77673373Y64002037D01*
X77503534Y64053557D01*
X77347009Y64137222D01*
X77311271Y64166552D01*
X77209814Y64249814D01*
X77114164Y64366365D01*
X77097222Y64387009D01*
X77013557Y64543534D01*
X76962037Y64713373D01*
X76944641Y64890000D01*
X76962037Y65066627D01*
X77013557Y65236466D01*
X77097222Y65392991D01*
X77126552Y65428729D01*
X77209814Y65530186D01*
X77311271Y65613448D01*
X77347009Y65642778D01*
X77503534Y65726443D01*
X77673373Y65777963D01*
X77739558Y65784482D01*
X77805740Y65791000D01*
X77894260Y65791000D01*
X77960442Y65784482D01*
X77960442Y65784482D01*
G37*
G36*
X40963512Y65806073D02*
G01*
X41112812Y65776376D01*
X41276784Y65708456D01*
X41424354Y65609853D01*
X41549853Y65484354D01*
X41648456Y65336784D01*
X41716376Y65172812D01*
X41751000Y64998741D01*
X41751000Y64821259D01*
X41716376Y64647188D01*
X41648456Y64483216D01*
X41549853Y64335646D01*
X41424354Y64210147D01*
X41276784Y64111544D01*
X41112812Y64043624D01*
X40963512Y64013927D01*
X40938742Y64009000D01*
X40761258Y64009000D01*
X40736488Y64013927D01*
X40587188Y64043624D01*
X40423216Y64111544D01*
X40275646Y64210147D01*
X40150147Y64335646D01*
X40051544Y64483216D01*
X39983624Y64647188D01*
X39949000Y64821259D01*
X39949000Y64998741D01*
X39983624Y65172812D01*
X40051544Y65336784D01*
X40150147Y65484354D01*
X40275646Y65609853D01*
X40423216Y65708456D01*
X40587188Y65776376D01*
X40736488Y65806073D01*
X40761258Y65811000D01*
X40938742Y65811000D01*
X40963512Y65806073D01*
X40963512Y65806073D01*
G37*
G36*
X66363512Y65806073D02*
G01*
X66512812Y65776376D01*
X66676784Y65708456D01*
X66824354Y65609853D01*
X66949853Y65484354D01*
X67048456Y65336784D01*
X67116376Y65172812D01*
X67151000Y64998741D01*
X67151000Y64821259D01*
X67116376Y64647188D01*
X67048456Y64483216D01*
X66949853Y64335646D01*
X66824354Y64210147D01*
X66676784Y64111544D01*
X66512812Y64043624D01*
X66363512Y64013927D01*
X66338742Y64009000D01*
X66161258Y64009000D01*
X66136488Y64013927D01*
X65987188Y64043624D01*
X65823216Y64111544D01*
X65675646Y64210147D01*
X65550147Y64335646D01*
X65451544Y64483216D01*
X65383624Y64647188D01*
X65349000Y64821259D01*
X65349000Y64998741D01*
X65383624Y65172812D01*
X65451544Y65336784D01*
X65550147Y65484354D01*
X65675646Y65609853D01*
X65823216Y65708456D01*
X65987188Y65776376D01*
X66136488Y65806073D01*
X66161258Y65811000D01*
X66338742Y65811000D01*
X66363512Y65806073D01*
X66363512Y65806073D01*
G37*
G36*
X77960443Y68324481D02*
G01*
X78026627Y68317963D01*
X78196466Y68266443D01*
X78352991Y68182778D01*
X78388729Y68153448D01*
X78490186Y68070186D01*
X78573448Y67968729D01*
X78602778Y67932991D01*
X78686443Y67776466D01*
X78737963Y67606627D01*
X78755359Y67430000D01*
X78737963Y67253373D01*
X78686443Y67083534D01*
X78602778Y66927009D01*
X78573448Y66891271D01*
X78490186Y66789814D01*
X78388729Y66706552D01*
X78352991Y66677222D01*
X78196466Y66593557D01*
X78026627Y66542037D01*
X77960442Y66535518D01*
X77894260Y66529000D01*
X77805740Y66529000D01*
X77739558Y66535518D01*
X77673373Y66542037D01*
X77503534Y66593557D01*
X77347009Y66677222D01*
X77311271Y66706552D01*
X77209814Y66789814D01*
X77126552Y66891271D01*
X77097222Y66927009D01*
X77013557Y67083534D01*
X76962037Y67253373D01*
X76944641Y67430000D01*
X76962037Y67606627D01*
X77013557Y67776466D01*
X77097222Y67932991D01*
X77126552Y67968729D01*
X77209814Y68070186D01*
X77311271Y68153448D01*
X77347009Y68182778D01*
X77503534Y68266443D01*
X77673373Y68317963D01*
X77739557Y68324481D01*
X77805740Y68331000D01*
X77894260Y68331000D01*
X77960443Y68324481D01*
X77960443Y68324481D01*
G37*
G36*
X66361435Y68346486D02*
G01*
X66512812Y68316376D01*
X66676784Y68248456D01*
X66824354Y68149853D01*
X66949853Y68024354D01*
X67048456Y67876784D01*
X67116376Y67712812D01*
X67151000Y67538741D01*
X67151000Y67361259D01*
X67116376Y67187188D01*
X67048456Y67023216D01*
X66949853Y66875646D01*
X66824354Y66750147D01*
X66676784Y66651544D01*
X66512812Y66583624D01*
X66363512Y66553927D01*
X66338742Y66549000D01*
X66161258Y66549000D01*
X66136488Y66553927D01*
X65987188Y66583624D01*
X65823216Y66651544D01*
X65675646Y66750147D01*
X65550147Y66875646D01*
X65451544Y67023216D01*
X65383624Y67187188D01*
X65349000Y67361259D01*
X65349000Y67538741D01*
X65383624Y67712812D01*
X65451544Y67876784D01*
X65550147Y68024354D01*
X65675646Y68149853D01*
X65823216Y68248456D01*
X65987188Y68316376D01*
X66138565Y68346486D01*
X66161258Y68351000D01*
X66338742Y68351000D01*
X66361435Y68346486D01*
X66361435Y68346486D01*
G37*
G36*
X40961435Y68346486D02*
G01*
X41112812Y68316376D01*
X41276784Y68248456D01*
X41424354Y68149853D01*
X41549853Y68024354D01*
X41648456Y67876784D01*
X41716376Y67712812D01*
X41751000Y67538741D01*
X41751000Y67361259D01*
X41716376Y67187188D01*
X41648456Y67023216D01*
X41549853Y66875646D01*
X41424354Y66750147D01*
X41276784Y66651544D01*
X41112812Y66583624D01*
X40963512Y66553927D01*
X40938742Y66549000D01*
X40761258Y66549000D01*
X40736488Y66553927D01*
X40587188Y66583624D01*
X40423216Y66651544D01*
X40275646Y66750147D01*
X40150147Y66875646D01*
X40051544Y67023216D01*
X39983624Y67187188D01*
X39949000Y67361259D01*
X39949000Y67538741D01*
X39983624Y67712812D01*
X40051544Y67876784D01*
X40150147Y68024354D01*
X40275646Y68149853D01*
X40423216Y68248456D01*
X40587188Y68316376D01*
X40738565Y68346486D01*
X40761258Y68351000D01*
X40938742Y68351000D01*
X40961435Y68346486D01*
X40961435Y68346486D01*
G37*
G36*
X6356564Y69110611D02*
G01*
X6547833Y69031385D01*
X6547835Y69031384D01*
X6719973Y68916365D01*
X6866365Y68769973D01*
X6981121Y68598229D01*
X6981385Y68597833D01*
X7060611Y68406564D01*
X7101000Y68203516D01*
X7101000Y67996484D01*
X7060611Y67793436D01*
X6981385Y67602167D01*
X6981384Y67602165D01*
X6866365Y67430027D01*
X6719973Y67283635D01*
X6547835Y67168616D01*
X6547834Y67168615D01*
X6547833Y67168615D01*
X6356564Y67089389D01*
X6153516Y67049000D01*
X5946484Y67049000D01*
X5743436Y67089389D01*
X5552167Y67168615D01*
X5552166Y67168615D01*
X5552165Y67168616D01*
X5380027Y67283635D01*
X5233635Y67430027D01*
X5118616Y67602165D01*
X5118615Y67602167D01*
X5039389Y67793436D01*
X4999000Y67996484D01*
X4999000Y68203516D01*
X5039389Y68406564D01*
X5118615Y68597833D01*
X5118880Y68598229D01*
X5233635Y68769973D01*
X5380027Y68916365D01*
X5552165Y69031384D01*
X5552167Y69031385D01*
X5743436Y69110611D01*
X5946484Y69151000D01*
X6153516Y69151000D01*
X6356564Y69110611D01*
X6356564Y69110611D01*
G37*
G36*
X12856564Y69110611D02*
G01*
X13047833Y69031385D01*
X13047835Y69031384D01*
X13219973Y68916365D01*
X13366365Y68769973D01*
X13481121Y68598229D01*
X13481385Y68597833D01*
X13560611Y68406564D01*
X13601000Y68203516D01*
X13601000Y67996484D01*
X13560611Y67793436D01*
X13481385Y67602167D01*
X13481384Y67602165D01*
X13366365Y67430027D01*
X13219973Y67283635D01*
X13047835Y67168616D01*
X13047834Y67168615D01*
X13047833Y67168615D01*
X12856564Y67089389D01*
X12653516Y67049000D01*
X12446484Y67049000D01*
X12243436Y67089389D01*
X12052167Y67168615D01*
X12052166Y67168615D01*
X12052165Y67168616D01*
X11880027Y67283635D01*
X11733635Y67430027D01*
X11618616Y67602165D01*
X11618615Y67602167D01*
X11539389Y67793436D01*
X11499000Y67996484D01*
X11499000Y68203516D01*
X11539389Y68406564D01*
X11618615Y68597833D01*
X11618880Y68598229D01*
X11733635Y68769973D01*
X11880027Y68916365D01*
X12052165Y69031384D01*
X12052167Y69031385D01*
X12243436Y69110611D01*
X12446484Y69151000D01*
X12653516Y69151000D01*
X12856564Y69110611D01*
X12856564Y69110611D01*
G37*
G36*
X27206564Y69460611D02*
G01*
X27315119Y69415646D01*
X27397835Y69381384D01*
X27569973Y69266365D01*
X27716365Y69119973D01*
X27775558Y69031385D01*
X27831385Y68947833D01*
X27910611Y68756564D01*
X27951000Y68553516D01*
X27951000Y68346484D01*
X27910611Y68143436D01*
X27831385Y67952167D01*
X27831384Y67952165D01*
X27716365Y67780027D01*
X27569973Y67633635D01*
X27397835Y67518616D01*
X27397834Y67518615D01*
X27397833Y67518615D01*
X27206564Y67439389D01*
X27003516Y67399000D01*
X26796484Y67399000D01*
X26593436Y67439389D01*
X26402167Y67518615D01*
X26402166Y67518615D01*
X26402165Y67518616D01*
X26230027Y67633635D01*
X26083635Y67780027D01*
X25968616Y67952165D01*
X25968615Y67952167D01*
X25889389Y68143436D01*
X25849000Y68346484D01*
X25849000Y68553516D01*
X25889389Y68756564D01*
X25968615Y68947833D01*
X26024443Y69031385D01*
X26083635Y69119973D01*
X26230027Y69266365D01*
X26402165Y69381384D01*
X26484881Y69415646D01*
X26593436Y69460611D01*
X26796484Y69501000D01*
X27003516Y69501000D01*
X27206564Y69460611D01*
X27206564Y69460611D01*
G37*
G36*
X33706564Y69460611D02*
G01*
X33815119Y69415646D01*
X33897835Y69381384D01*
X34069973Y69266365D01*
X34216365Y69119973D01*
X34275558Y69031385D01*
X34331385Y68947833D01*
X34410611Y68756564D01*
X34451000Y68553516D01*
X34451000Y68346484D01*
X34410611Y68143436D01*
X34331385Y67952167D01*
X34331384Y67952165D01*
X34216365Y67780027D01*
X34069973Y67633635D01*
X33897835Y67518616D01*
X33897834Y67518615D01*
X33897833Y67518615D01*
X33706564Y67439389D01*
X33503516Y67399000D01*
X33296484Y67399000D01*
X33093436Y67439389D01*
X32902167Y67518615D01*
X32902166Y67518615D01*
X32902165Y67518616D01*
X32730027Y67633635D01*
X32583635Y67780027D01*
X32468616Y67952165D01*
X32468615Y67952167D01*
X32389389Y68143436D01*
X32349000Y68346484D01*
X32349000Y68553516D01*
X32389389Y68756564D01*
X32468615Y68947833D01*
X32524443Y69031385D01*
X32583635Y69119973D01*
X32730027Y69266365D01*
X32902165Y69381384D01*
X32984881Y69415646D01*
X33093436Y69460611D01*
X33296484Y69501000D01*
X33503516Y69501000D01*
X33706564Y69460611D01*
X33706564Y69460611D01*
G37*
G36*
X99498228Y69168297D02*
G01*
X99653100Y69104147D01*
X99792481Y69011015D01*
X99911015Y68892481D01*
X100004147Y68753100D01*
X100068297Y68598228D01*
X100101000Y68433816D01*
X100101000Y68266184D01*
X100068297Y68101772D01*
X100004147Y67946900D01*
X99911015Y67807519D01*
X99792481Y67688985D01*
X99653100Y67595853D01*
X99498228Y67531703D01*
X99333816Y67499000D01*
X99166184Y67499000D01*
X99001772Y67531703D01*
X98846900Y67595853D01*
X98707519Y67688985D01*
X98588985Y67807519D01*
X98495853Y67946900D01*
X98431703Y68101772D01*
X98399000Y68266184D01*
X98399000Y68433816D01*
X98431703Y68598228D01*
X98495853Y68753100D01*
X98588985Y68892481D01*
X98707519Y69011015D01*
X98846900Y69104147D01*
X99001772Y69168297D01*
X99166184Y69201000D01*
X99333816Y69201000D01*
X99498228Y69168297D01*
X99498228Y69168297D01*
G37*
G36*
X102998228Y69168297D02*
G01*
X103153100Y69104147D01*
X103292481Y69011015D01*
X103411015Y68892481D01*
X103504147Y68753100D01*
X103568297Y68598228D01*
X103601000Y68433816D01*
X103601000Y68266184D01*
X103568297Y68101772D01*
X103504147Y67946900D01*
X103411015Y67807519D01*
X103292481Y67688985D01*
X103153100Y67595853D01*
X102998228Y67531703D01*
X102833816Y67499000D01*
X102666184Y67499000D01*
X102501772Y67531703D01*
X102346900Y67595853D01*
X102207519Y67688985D01*
X102088985Y67807519D01*
X101995853Y67946900D01*
X101931703Y68101772D01*
X101899000Y68266184D01*
X101899000Y68433816D01*
X101931703Y68598228D01*
X101995853Y68753100D01*
X102088985Y68892481D01*
X102207519Y69011015D01*
X102346900Y69104147D01*
X102501772Y69168297D01*
X102666184Y69201000D01*
X102833816Y69201000D01*
X102998228Y69168297D01*
X102998228Y69168297D01*
G37*
G36*
X77960443Y70864481D02*
G01*
X78026627Y70857963D01*
X78196466Y70806443D01*
X78352991Y70722778D01*
X78388729Y70693448D01*
X78490186Y70610186D01*
X78573448Y70508729D01*
X78602778Y70472991D01*
X78686443Y70316466D01*
X78737963Y70146627D01*
X78755359Y69970000D01*
X78737963Y69793373D01*
X78686443Y69623534D01*
X78602778Y69467009D01*
X78597527Y69460611D01*
X78490186Y69329814D01*
X78388729Y69246552D01*
X78352991Y69217222D01*
X78196466Y69133557D01*
X78026627Y69082037D01*
X77960443Y69075519D01*
X77894260Y69069000D01*
X77805740Y69069000D01*
X77739557Y69075519D01*
X77673373Y69082037D01*
X77503534Y69133557D01*
X77347009Y69217222D01*
X77311271Y69246552D01*
X77209814Y69329814D01*
X77102473Y69460611D01*
X77097222Y69467009D01*
X77013557Y69623534D01*
X76962037Y69793373D01*
X76944641Y69970000D01*
X76962037Y70146627D01*
X77013557Y70316466D01*
X77097222Y70472991D01*
X77126552Y70508729D01*
X77209814Y70610186D01*
X77311271Y70693448D01*
X77347009Y70722778D01*
X77503534Y70806443D01*
X77673373Y70857963D01*
X77739557Y70864481D01*
X77805740Y70871000D01*
X77894260Y70871000D01*
X77960443Y70864481D01*
X77960443Y70864481D01*
G37*
G36*
X40963512Y70886073D02*
G01*
X41112812Y70856376D01*
X41276784Y70788456D01*
X41424354Y70689853D01*
X41549853Y70564354D01*
X41648456Y70416784D01*
X41716376Y70252812D01*
X41751000Y70078741D01*
X41751000Y69901259D01*
X41716376Y69727188D01*
X41648456Y69563216D01*
X41549853Y69415646D01*
X41424354Y69290147D01*
X41276784Y69191544D01*
X41112812Y69123624D01*
X40963512Y69093927D01*
X40938742Y69089000D01*
X40761258Y69089000D01*
X40736488Y69093927D01*
X40587188Y69123624D01*
X40423216Y69191544D01*
X40275646Y69290147D01*
X40150147Y69415646D01*
X40051544Y69563216D01*
X39983624Y69727188D01*
X39949000Y69901259D01*
X39949000Y70078741D01*
X39983624Y70252812D01*
X40051544Y70416784D01*
X40150147Y70564354D01*
X40275646Y70689853D01*
X40423216Y70788456D01*
X40587188Y70856376D01*
X40736488Y70886073D01*
X40761258Y70891000D01*
X40938742Y70891000D01*
X40963512Y70886073D01*
X40963512Y70886073D01*
G37*
G36*
X66363512Y70886073D02*
G01*
X66512812Y70856376D01*
X66676784Y70788456D01*
X66824354Y70689853D01*
X66949853Y70564354D01*
X67048456Y70416784D01*
X67116376Y70252812D01*
X67151000Y70078741D01*
X67151000Y69901259D01*
X67116376Y69727188D01*
X67048456Y69563216D01*
X66949853Y69415646D01*
X66824354Y69290147D01*
X66676784Y69191544D01*
X66512812Y69123624D01*
X66363512Y69093927D01*
X66338742Y69089000D01*
X66161258Y69089000D01*
X66136488Y69093927D01*
X65987188Y69123624D01*
X65823216Y69191544D01*
X65675646Y69290147D01*
X65550147Y69415646D01*
X65451544Y69563216D01*
X65383624Y69727188D01*
X65349000Y69901259D01*
X65349000Y70078741D01*
X65383624Y70252812D01*
X65451544Y70416784D01*
X65550147Y70564354D01*
X65675646Y70689853D01*
X65823216Y70788456D01*
X65987188Y70856376D01*
X66136488Y70886073D01*
X66161258Y70891000D01*
X66338742Y70891000D01*
X66363512Y70886073D01*
X66363512Y70886073D01*
G37*
G36*
X12856564Y73610611D02*
G01*
X13047833Y73531385D01*
X13047835Y73531384D01*
X13219973Y73416365D01*
X13366365Y73269973D01*
X13477029Y73104353D01*
X13481385Y73097833D01*
X13560611Y72906564D01*
X13601000Y72703516D01*
X13601000Y72496484D01*
X13560611Y72293436D01*
X13481385Y72102167D01*
X13481384Y72102165D01*
X13366365Y71930027D01*
X13219973Y71783635D01*
X13047835Y71668616D01*
X13047834Y71668615D01*
X13047833Y71668615D01*
X12856564Y71589389D01*
X12653516Y71549000D01*
X12446484Y71549000D01*
X12243436Y71589389D01*
X12052167Y71668615D01*
X12052166Y71668615D01*
X12052165Y71668616D01*
X11880027Y71783635D01*
X11733635Y71930027D01*
X11618616Y72102165D01*
X11618615Y72102167D01*
X11539389Y72293436D01*
X11499000Y72496484D01*
X11499000Y72703516D01*
X11539389Y72906564D01*
X11618615Y73097833D01*
X11622972Y73104353D01*
X11733635Y73269973D01*
X11880027Y73416365D01*
X12052165Y73531384D01*
X12052167Y73531385D01*
X12243436Y73610611D01*
X12446484Y73651000D01*
X12653516Y73651000D01*
X12856564Y73610611D01*
X12856564Y73610611D01*
G37*
G36*
X6356564Y73610611D02*
G01*
X6547833Y73531385D01*
X6547835Y73531384D01*
X6719973Y73416365D01*
X6866365Y73269973D01*
X6977029Y73104353D01*
X6981385Y73097833D01*
X7060611Y72906564D01*
X7101000Y72703516D01*
X7101000Y72496484D01*
X7060611Y72293436D01*
X6981385Y72102167D01*
X6981384Y72102165D01*
X6866365Y71930027D01*
X6719973Y71783635D01*
X6547835Y71668616D01*
X6547834Y71668615D01*
X6547833Y71668615D01*
X6356564Y71589389D01*
X6153516Y71549000D01*
X5946484Y71549000D01*
X5743436Y71589389D01*
X5552167Y71668615D01*
X5552166Y71668615D01*
X5552165Y71668616D01*
X5380027Y71783635D01*
X5233635Y71930027D01*
X5118616Y72102165D01*
X5118615Y72102167D01*
X5039389Y72293436D01*
X4999000Y72496484D01*
X4999000Y72703516D01*
X5039389Y72906564D01*
X5118615Y73097833D01*
X5122972Y73104353D01*
X5233635Y73269973D01*
X5380027Y73416365D01*
X5552165Y73531384D01*
X5552167Y73531385D01*
X5743436Y73610611D01*
X5946484Y73651000D01*
X6153516Y73651000D01*
X6356564Y73610611D01*
X6356564Y73610611D01*
G37*
G36*
X77960443Y73404481D02*
G01*
X78026627Y73397963D01*
X78196466Y73346443D01*
X78352991Y73262778D01*
X78388729Y73233448D01*
X78490186Y73150186D01*
X78569520Y73053516D01*
X78602778Y73012991D01*
X78686443Y72856466D01*
X78737963Y72686627D01*
X78755359Y72510000D01*
X78737963Y72333373D01*
X78686443Y72163534D01*
X78602778Y72007009D01*
X78573448Y71971271D01*
X78490186Y71869814D01*
X78388729Y71786552D01*
X78352991Y71757222D01*
X78196466Y71673557D01*
X78026627Y71622037D01*
X77960443Y71615519D01*
X77894260Y71609000D01*
X77805740Y71609000D01*
X77739557Y71615519D01*
X77673373Y71622037D01*
X77503534Y71673557D01*
X77347009Y71757222D01*
X77311271Y71786552D01*
X77209814Y71869814D01*
X77126552Y71971271D01*
X77097222Y72007009D01*
X77013557Y72163534D01*
X76962037Y72333373D01*
X76944641Y72510000D01*
X76962037Y72686627D01*
X77013557Y72856466D01*
X77097222Y73012991D01*
X77130480Y73053516D01*
X77209814Y73150186D01*
X77311271Y73233448D01*
X77347009Y73262778D01*
X77503534Y73346443D01*
X77673373Y73397963D01*
X77739557Y73404481D01*
X77805740Y73411000D01*
X77894260Y73411000D01*
X77960443Y73404481D01*
X77960443Y73404481D01*
G37*
G36*
X66363512Y73426073D02*
G01*
X66512812Y73396376D01*
X66676784Y73328456D01*
X66824354Y73229853D01*
X66949853Y73104354D01*
X67048456Y72956784D01*
X67116376Y72792812D01*
X67151000Y72618741D01*
X67151000Y72441259D01*
X67116376Y72267188D01*
X67048456Y72103216D01*
X66949853Y71955646D01*
X66824354Y71830147D01*
X66676784Y71731544D01*
X66512812Y71663624D01*
X66363512Y71633927D01*
X66338742Y71629000D01*
X66161258Y71629000D01*
X66136488Y71633927D01*
X65987188Y71663624D01*
X65823216Y71731544D01*
X65675646Y71830147D01*
X65550147Y71955646D01*
X65451544Y72103216D01*
X65383624Y72267188D01*
X65349000Y72441259D01*
X65349000Y72618741D01*
X65383624Y72792812D01*
X65451544Y72956784D01*
X65550147Y73104354D01*
X65675646Y73229853D01*
X65823216Y73328456D01*
X65987188Y73396376D01*
X66136488Y73426073D01*
X66161258Y73431000D01*
X66338742Y73431000D01*
X66363512Y73426073D01*
X66363512Y73426073D01*
G37*
G36*
X40963512Y73426073D02*
G01*
X41112812Y73396376D01*
X41276784Y73328456D01*
X41424354Y73229853D01*
X41549853Y73104354D01*
X41648456Y72956784D01*
X41716376Y72792812D01*
X41751000Y72618741D01*
X41751000Y72441259D01*
X41716376Y72267188D01*
X41648456Y72103216D01*
X41549853Y71955646D01*
X41424354Y71830147D01*
X41276784Y71731544D01*
X41112812Y71663624D01*
X40963512Y71633927D01*
X40938742Y71629000D01*
X40761258Y71629000D01*
X40736488Y71633927D01*
X40587188Y71663624D01*
X40423216Y71731544D01*
X40275646Y71830147D01*
X40150147Y71955646D01*
X40051544Y72103216D01*
X39983624Y72267188D01*
X39949000Y72441259D01*
X39949000Y72618741D01*
X39983624Y72792812D01*
X40051544Y72956784D01*
X40150147Y73104354D01*
X40275646Y73229853D01*
X40423216Y73328456D01*
X40587188Y73396376D01*
X40736488Y73426073D01*
X40761258Y73431000D01*
X40938742Y73431000D01*
X40963512Y73426073D01*
X40963512Y73426073D01*
G37*
G36*
X33706564Y73960611D02*
G01*
X33897833Y73881385D01*
X33897835Y73881384D01*
X34069973Y73766365D01*
X34216365Y73619973D01*
X34275558Y73531385D01*
X34331385Y73447833D01*
X34410611Y73256564D01*
X34451000Y73053516D01*
X34451000Y72846484D01*
X34410611Y72643436D01*
X34331385Y72452167D01*
X34331384Y72452165D01*
X34216365Y72280027D01*
X34069973Y72133635D01*
X33897835Y72018616D01*
X33897834Y72018615D01*
X33897833Y72018615D01*
X33706564Y71939389D01*
X33503516Y71899000D01*
X33296484Y71899000D01*
X33093436Y71939389D01*
X32902167Y72018615D01*
X32902166Y72018615D01*
X32902165Y72018616D01*
X32730027Y72133635D01*
X32583635Y72280027D01*
X32468616Y72452165D01*
X32468615Y72452167D01*
X32389389Y72643436D01*
X32349000Y72846484D01*
X32349000Y73053516D01*
X32389389Y73256564D01*
X32468615Y73447833D01*
X32524443Y73531385D01*
X32583635Y73619973D01*
X32730027Y73766365D01*
X32902165Y73881384D01*
X32902167Y73881385D01*
X33093436Y73960611D01*
X33296484Y74001000D01*
X33503516Y74001000D01*
X33706564Y73960611D01*
X33706564Y73960611D01*
G37*
G36*
X27206564Y73960611D02*
G01*
X27397833Y73881385D01*
X27397835Y73881384D01*
X27569973Y73766365D01*
X27716365Y73619973D01*
X27775558Y73531385D01*
X27831385Y73447833D01*
X27910611Y73256564D01*
X27951000Y73053516D01*
X27951000Y72846484D01*
X27910611Y72643436D01*
X27831385Y72452167D01*
X27831384Y72452165D01*
X27716365Y72280027D01*
X27569973Y72133635D01*
X27397835Y72018616D01*
X27397834Y72018615D01*
X27397833Y72018615D01*
X27206564Y71939389D01*
X27003516Y71899000D01*
X26796484Y71899000D01*
X26593436Y71939389D01*
X26402167Y72018615D01*
X26402166Y72018615D01*
X26402165Y72018616D01*
X26230027Y72133635D01*
X26083635Y72280027D01*
X25968616Y72452165D01*
X25968615Y72452167D01*
X25889389Y72643436D01*
X25849000Y72846484D01*
X25849000Y73053516D01*
X25889389Y73256564D01*
X25968615Y73447833D01*
X26024443Y73531385D01*
X26083635Y73619973D01*
X26230027Y73766365D01*
X26402165Y73881384D01*
X26402167Y73881385D01*
X26593436Y73960611D01*
X26796484Y74001000D01*
X27003516Y74001000D01*
X27206564Y73960611D01*
X27206564Y73960611D01*
G37*
G36*
X77960442Y75944482D02*
G01*
X78026627Y75937963D01*
X78196466Y75886443D01*
X78352991Y75802778D01*
X78388729Y75773448D01*
X78490186Y75690186D01*
X78573448Y75588729D01*
X78602778Y75552991D01*
X78686443Y75396466D01*
X78737963Y75226627D01*
X78755359Y75050000D01*
X78737963Y74873373D01*
X78686443Y74703534D01*
X78602778Y74547009D01*
X78573448Y74511271D01*
X78490186Y74409814D01*
X78388729Y74326552D01*
X78352991Y74297222D01*
X78196466Y74213557D01*
X78026627Y74162037D01*
X77960442Y74155518D01*
X77894260Y74149000D01*
X77805740Y74149000D01*
X77739558Y74155518D01*
X77673373Y74162037D01*
X77503534Y74213557D01*
X77347009Y74297222D01*
X77311271Y74326552D01*
X77209814Y74409814D01*
X77126552Y74511271D01*
X77097222Y74547009D01*
X77013557Y74703534D01*
X76962037Y74873373D01*
X76944641Y75050000D01*
X76962037Y75226627D01*
X77013557Y75396466D01*
X77097222Y75552991D01*
X77126552Y75588729D01*
X77209814Y75690186D01*
X77311271Y75773448D01*
X77347009Y75802778D01*
X77503534Y75886443D01*
X77673373Y75937963D01*
X77739558Y75944482D01*
X77805740Y75951000D01*
X77894260Y75951000D01*
X77960442Y75944482D01*
X77960442Y75944482D01*
G37*
G36*
X40963512Y75966073D02*
G01*
X41112812Y75936376D01*
X41276784Y75868456D01*
X41424354Y75769853D01*
X41549853Y75644354D01*
X41648456Y75496784D01*
X41716376Y75332812D01*
X41751000Y75158741D01*
X41751000Y74981259D01*
X41716376Y74807188D01*
X41648456Y74643216D01*
X41549853Y74495646D01*
X41424354Y74370147D01*
X41276784Y74271544D01*
X41112812Y74203624D01*
X40963512Y74173927D01*
X40938742Y74169000D01*
X40761258Y74169000D01*
X40736488Y74173927D01*
X40587188Y74203624D01*
X40423216Y74271544D01*
X40275646Y74370147D01*
X40150147Y74495646D01*
X40051544Y74643216D01*
X39983624Y74807188D01*
X39949000Y74981259D01*
X39949000Y75158741D01*
X39983624Y75332812D01*
X40051544Y75496784D01*
X40150147Y75644354D01*
X40275646Y75769853D01*
X40423216Y75868456D01*
X40587188Y75936376D01*
X40736488Y75966073D01*
X40761258Y75971000D01*
X40938742Y75971000D01*
X40963512Y75966073D01*
X40963512Y75966073D01*
G37*
G36*
X66363512Y75966073D02*
G01*
X66512812Y75936376D01*
X66676784Y75868456D01*
X66824354Y75769853D01*
X66949853Y75644354D01*
X67048456Y75496784D01*
X67116376Y75332812D01*
X67151000Y75158741D01*
X67151000Y74981259D01*
X67116376Y74807188D01*
X67048456Y74643216D01*
X66949853Y74495646D01*
X66824354Y74370147D01*
X66676784Y74271544D01*
X66512812Y74203624D01*
X66363512Y74173927D01*
X66338742Y74169000D01*
X66161258Y74169000D01*
X66136488Y74173927D01*
X65987188Y74203624D01*
X65823216Y74271544D01*
X65675646Y74370147D01*
X65550147Y74495646D01*
X65451544Y74643216D01*
X65383624Y74807188D01*
X65349000Y74981259D01*
X65349000Y75158741D01*
X65383624Y75332812D01*
X65451544Y75496784D01*
X65550147Y75644354D01*
X65675646Y75769853D01*
X65823216Y75868456D01*
X65987188Y75936376D01*
X66136488Y75966073D01*
X66161258Y75971000D01*
X66338742Y75971000D01*
X66363512Y75966073D01*
X66363512Y75966073D01*
G37*
G36*
X101226425Y77198012D02*
G01*
X101392710Y77164937D01*
X101575336Y77089291D01*
X101739694Y76979470D01*
X101879470Y76839694D01*
X101989291Y76675336D01*
X102064937Y76492710D01*
X102103500Y76298836D01*
X102103500Y76101164D01*
X102064937Y75907290D01*
X101989291Y75724664D01*
X101879470Y75560306D01*
X101739694Y75420530D01*
X101575336Y75310709D01*
X101392710Y75235063D01*
X101226425Y75201988D01*
X101198837Y75196500D01*
X101001163Y75196500D01*
X100973575Y75201988D01*
X100807290Y75235063D01*
X100624664Y75310709D01*
X100460306Y75420530D01*
X100320530Y75560306D01*
X100210709Y75724664D01*
X100135063Y75907290D01*
X100096500Y76101164D01*
X100096500Y76298836D01*
X100135063Y76492710D01*
X100210709Y76675336D01*
X100320530Y76839694D01*
X100460306Y76979470D01*
X100624664Y77089291D01*
X100807290Y77164937D01*
X100973575Y77198012D01*
X101001163Y77203500D01*
X101198837Y77203500D01*
X101226425Y77198012D01*
X101226425Y77198012D01*
G37*
G36*
X23306564Y78010611D02*
G01*
X23485566Y77936466D01*
X23497835Y77931384D01*
X23669973Y77816365D01*
X23816365Y77669973D01*
X23915733Y77521259D01*
X23931385Y77497833D01*
X24010611Y77306564D01*
X24051000Y77103516D01*
X24051000Y76896484D01*
X24010611Y76693436D01*
X23931385Y76502167D01*
X23931384Y76502165D01*
X23816365Y76330027D01*
X23669973Y76183635D01*
X23497835Y76068616D01*
X23497834Y76068615D01*
X23497833Y76068615D01*
X23306564Y75989389D01*
X23103516Y75949000D01*
X22896484Y75949000D01*
X22693436Y75989389D01*
X22502167Y76068615D01*
X22502166Y76068615D01*
X22502165Y76068616D01*
X22330027Y76183635D01*
X22183635Y76330027D01*
X22068616Y76502165D01*
X22068615Y76502167D01*
X21989389Y76693436D01*
X21949000Y76896484D01*
X21949000Y77103516D01*
X21989389Y77306564D01*
X22068615Y77497833D01*
X22084268Y77521259D01*
X22183635Y77669973D01*
X22330027Y77816365D01*
X22502165Y77931384D01*
X22514434Y77936466D01*
X22693436Y78010611D01*
X22896484Y78051000D01*
X23103516Y78051000D01*
X23306564Y78010611D01*
X23306564Y78010611D01*
G37*
G36*
X16806564Y78010611D02*
G01*
X16985566Y77936466D01*
X16997835Y77931384D01*
X17169973Y77816365D01*
X17316365Y77669973D01*
X17415733Y77521259D01*
X17431385Y77497833D01*
X17510611Y77306564D01*
X17551000Y77103516D01*
X17551000Y76896484D01*
X17510611Y76693436D01*
X17431385Y76502167D01*
X17431384Y76502165D01*
X17316365Y76330027D01*
X17169973Y76183635D01*
X16997835Y76068616D01*
X16997834Y76068615D01*
X16997833Y76068615D01*
X16806564Y75989389D01*
X16603516Y75949000D01*
X16396484Y75949000D01*
X16193436Y75989389D01*
X16002167Y76068615D01*
X16002166Y76068615D01*
X16002165Y76068616D01*
X15830027Y76183635D01*
X15683635Y76330027D01*
X15568616Y76502165D01*
X15568615Y76502167D01*
X15489389Y76693436D01*
X15449000Y76896484D01*
X15449000Y77103516D01*
X15489389Y77306564D01*
X15568615Y77497833D01*
X15584268Y77521259D01*
X15683635Y77669973D01*
X15830027Y77816365D01*
X16002165Y77931384D01*
X16014434Y77936466D01*
X16193436Y78010611D01*
X16396484Y78051000D01*
X16603516Y78051000D01*
X16806564Y78010611D01*
X16806564Y78010611D01*
G37*
G36*
X77960443Y78484481D02*
G01*
X78026627Y78477963D01*
X78196466Y78426443D01*
X78352991Y78342778D01*
X78388729Y78313448D01*
X78490186Y78230186D01*
X78573448Y78128729D01*
X78602778Y78092991D01*
X78686443Y77936466D01*
X78737963Y77766627D01*
X78755359Y77590000D01*
X78737963Y77413373D01*
X78686443Y77243534D01*
X78602778Y77087009D01*
X78573448Y77051271D01*
X78490186Y76949814D01*
X78388729Y76866552D01*
X78352991Y76837222D01*
X78196466Y76753557D01*
X78026627Y76702037D01*
X77960442Y76695518D01*
X77894260Y76689000D01*
X77805740Y76689000D01*
X77739558Y76695518D01*
X77673373Y76702037D01*
X77503534Y76753557D01*
X77347009Y76837222D01*
X77311271Y76866552D01*
X77209814Y76949814D01*
X77126552Y77051271D01*
X77097222Y77087009D01*
X77013557Y77243534D01*
X76962037Y77413373D01*
X76944641Y77590000D01*
X76962037Y77766627D01*
X77013557Y77936466D01*
X77097222Y78092991D01*
X77126552Y78128729D01*
X77209814Y78230186D01*
X77311271Y78313448D01*
X77347009Y78342778D01*
X77503534Y78426443D01*
X77673373Y78477963D01*
X77739557Y78484481D01*
X77805740Y78491000D01*
X77894260Y78491000D01*
X77960443Y78484481D01*
X77960443Y78484481D01*
G37*
G36*
X66363512Y78506073D02*
G01*
X66512812Y78476376D01*
X66676784Y78408456D01*
X66824354Y78309853D01*
X66949853Y78184354D01*
X67048456Y78036784D01*
X67116376Y77872812D01*
X67151000Y77698741D01*
X67151000Y77521259D01*
X67116376Y77347188D01*
X67048456Y77183216D01*
X66949853Y77035646D01*
X66824354Y76910147D01*
X66676784Y76811544D01*
X66512812Y76743624D01*
X66363512Y76713927D01*
X66338742Y76709000D01*
X66161258Y76709000D01*
X66136488Y76713927D01*
X65987188Y76743624D01*
X65823216Y76811544D01*
X65675646Y76910147D01*
X65550147Y77035646D01*
X65451544Y77183216D01*
X65383624Y77347188D01*
X65349000Y77521259D01*
X65349000Y77698741D01*
X65383624Y77872812D01*
X65451544Y78036784D01*
X65550147Y78184354D01*
X65675646Y78309853D01*
X65823216Y78408456D01*
X65987188Y78476376D01*
X66136488Y78506073D01*
X66161258Y78511000D01*
X66338742Y78511000D01*
X66363512Y78506073D01*
X66363512Y78506073D01*
G37*
G36*
X41681000Y76779000D02*
G01*
X40019000Y76779000D01*
X40019000Y78441000D01*
X41681000Y78441000D01*
X41681000Y76779000D01*
X41681000Y76779000D01*
G37*
G36*
X101226425Y79738012D02*
G01*
X101392710Y79704937D01*
X101575336Y79629291D01*
X101739694Y79519470D01*
X101879470Y79379694D01*
X101989291Y79215336D01*
X102064937Y79032710D01*
X102103500Y78838836D01*
X102103500Y78641164D01*
X102064937Y78447290D01*
X101989291Y78264664D01*
X101879470Y78100306D01*
X101739694Y77960530D01*
X101575336Y77850709D01*
X101392710Y77775063D01*
X101226425Y77741988D01*
X101198837Y77736500D01*
X101001163Y77736500D01*
X100973575Y77741988D01*
X100807290Y77775063D01*
X100624664Y77850709D01*
X100460306Y77960530D01*
X100320530Y78100306D01*
X100210709Y78264664D01*
X100135063Y78447290D01*
X100096500Y78641164D01*
X100096500Y78838836D01*
X100135063Y79032710D01*
X100210709Y79215336D01*
X100320530Y79379694D01*
X100460306Y79519470D01*
X100624664Y79629291D01*
X100807290Y79704937D01*
X100973575Y79738012D01*
X101001163Y79743500D01*
X101198837Y79743500D01*
X101226425Y79738012D01*
X101226425Y79738012D01*
G37*
G36*
X77960442Y81024482D02*
G01*
X78026627Y81017963D01*
X78196466Y80966443D01*
X78352991Y80882778D01*
X78388729Y80853448D01*
X78490186Y80770186D01*
X78573448Y80668729D01*
X78602778Y80632991D01*
X78602779Y80632989D01*
X78679536Y80489389D01*
X78686443Y80476466D01*
X78737963Y80306627D01*
X78755359Y80130000D01*
X78737963Y79953373D01*
X78686443Y79783534D01*
X78602778Y79627009D01*
X78573448Y79591271D01*
X78490186Y79489814D01*
X78388729Y79406552D01*
X78352991Y79377222D01*
X78196466Y79293557D01*
X78026627Y79242037D01*
X77960443Y79235519D01*
X77894260Y79229000D01*
X77805740Y79229000D01*
X77739557Y79235519D01*
X77673373Y79242037D01*
X77503534Y79293557D01*
X77347009Y79377222D01*
X77311271Y79406552D01*
X77209814Y79489814D01*
X77126552Y79591271D01*
X77097222Y79627009D01*
X77013557Y79783534D01*
X76962037Y79953373D01*
X76944641Y80130000D01*
X76962037Y80306627D01*
X77013557Y80476466D01*
X77020465Y80489389D01*
X77097221Y80632989D01*
X77097222Y80632991D01*
X77126552Y80668729D01*
X77209814Y80770186D01*
X77311271Y80853448D01*
X77347009Y80882778D01*
X77503534Y80966443D01*
X77673373Y81017963D01*
X77739558Y81024482D01*
X77805740Y81031000D01*
X77894260Y81031000D01*
X77960442Y81024482D01*
X77960442Y81024482D01*
G37*
G36*
X101226425Y82278012D02*
G01*
X101392710Y82244937D01*
X101575336Y82169291D01*
X101739694Y82059470D01*
X101879470Y81919694D01*
X101989291Y81755336D01*
X102064937Y81572710D01*
X102103500Y81378836D01*
X102103500Y81181164D01*
X102064937Y80987290D01*
X101989291Y80804664D01*
X101879470Y80640306D01*
X101739694Y80500530D01*
X101575336Y80390709D01*
X101392710Y80315063D01*
X101226425Y80281988D01*
X101198837Y80276500D01*
X101001163Y80276500D01*
X100973575Y80281988D01*
X100807290Y80315063D01*
X100624664Y80390709D01*
X100460306Y80500530D01*
X100320530Y80640306D01*
X100210709Y80804664D01*
X100135063Y80987290D01*
X100096500Y81181164D01*
X100096500Y81378836D01*
X100135063Y81572710D01*
X100210709Y81755336D01*
X100320530Y81919694D01*
X100460306Y82059470D01*
X100624664Y82169291D01*
X100807290Y82244937D01*
X100973575Y82278012D01*
X101001163Y82283500D01*
X101198837Y82283500D01*
X101226425Y82278012D01*
X101226425Y82278012D01*
G37*
G36*
X16806564Y82510611D02*
G01*
X16997833Y82431385D01*
X16997835Y82431384D01*
X17169973Y82316365D01*
X17316365Y82169973D01*
X17410016Y82029815D01*
X17431385Y81997833D01*
X17510611Y81806564D01*
X17551000Y81603516D01*
X17551000Y81396484D01*
X17510611Y81193436D01*
X17505527Y81181163D01*
X17431384Y81002165D01*
X17316365Y80830027D01*
X17169973Y80683635D01*
X16997835Y80568616D01*
X16997834Y80568615D01*
X16997833Y80568615D01*
X16806564Y80489389D01*
X16603516Y80449000D01*
X16396484Y80449000D01*
X16193436Y80489389D01*
X16002167Y80568615D01*
X16002166Y80568615D01*
X16002165Y80568616D01*
X15830027Y80683635D01*
X15683635Y80830027D01*
X15568616Y81002165D01*
X15494473Y81181163D01*
X15489389Y81193436D01*
X15449000Y81396484D01*
X15449000Y81603516D01*
X15489389Y81806564D01*
X15568615Y81997833D01*
X15589985Y82029815D01*
X15683635Y82169973D01*
X15830027Y82316365D01*
X16002165Y82431384D01*
X16002167Y82431385D01*
X16193436Y82510611D01*
X16396484Y82551000D01*
X16603516Y82551000D01*
X16806564Y82510611D01*
X16806564Y82510611D01*
G37*
G36*
X23306564Y82510611D02*
G01*
X23497833Y82431385D01*
X23497835Y82431384D01*
X23669973Y82316365D01*
X23816365Y82169973D01*
X23910016Y82029815D01*
X23931385Y81997833D01*
X24010611Y81806564D01*
X24051000Y81603516D01*
X24051000Y81396484D01*
X24010611Y81193436D01*
X24005527Y81181163D01*
X23931384Y81002165D01*
X23816365Y80830027D01*
X23669973Y80683635D01*
X23497835Y80568616D01*
X23497834Y80568615D01*
X23497833Y80568615D01*
X23306564Y80489389D01*
X23103516Y80449000D01*
X22896484Y80449000D01*
X22693436Y80489389D01*
X22502167Y80568615D01*
X22502166Y80568615D01*
X22502165Y80568616D01*
X22330027Y80683635D01*
X22183635Y80830027D01*
X22068616Y81002165D01*
X21994473Y81181163D01*
X21989389Y81193436D01*
X21949000Y81396484D01*
X21949000Y81603516D01*
X21989389Y81806564D01*
X22068615Y81997833D01*
X22089985Y82029815D01*
X22183635Y82169973D01*
X22330027Y82316365D01*
X22502165Y82431384D01*
X22502167Y82431385D01*
X22693436Y82510611D01*
X22896484Y82551000D01*
X23103516Y82551000D01*
X23306564Y82510611D01*
X23306564Y82510611D01*
G37*
G36*
X77960443Y83564481D02*
G01*
X78026627Y83557963D01*
X78196466Y83506443D01*
X78352991Y83422778D01*
X78388729Y83393448D01*
X78490186Y83310186D01*
X78573448Y83208729D01*
X78602778Y83172991D01*
X78686443Y83016466D01*
X78737963Y82846627D01*
X78755359Y82670000D01*
X78737963Y82493373D01*
X78686443Y82323534D01*
X78602778Y82167009D01*
X78573448Y82131271D01*
X78490186Y82029814D01*
X78388729Y81946552D01*
X78352991Y81917222D01*
X78196466Y81833557D01*
X78026627Y81782037D01*
X77960443Y81775519D01*
X77894260Y81769000D01*
X77805740Y81769000D01*
X77739557Y81775519D01*
X77673373Y81782037D01*
X77503534Y81833557D01*
X77347009Y81917222D01*
X77311271Y81946552D01*
X77209814Y82029814D01*
X77126552Y82131271D01*
X77097222Y82167009D01*
X77013557Y82323534D01*
X76962037Y82493373D01*
X76944641Y82670000D01*
X76962037Y82846627D01*
X77013557Y83016466D01*
X77097222Y83172991D01*
X77126552Y83208729D01*
X77209814Y83310186D01*
X77311271Y83393448D01*
X77347009Y83422778D01*
X77503534Y83506443D01*
X77673373Y83557963D01*
X77739557Y83564481D01*
X77805740Y83571000D01*
X77894260Y83571000D01*
X77960443Y83564481D01*
X77960443Y83564481D01*
G37*
G36*
X37277395Y84514454D02*
G01*
X37450466Y84442766D01*
X37450467Y84442765D01*
X37606227Y84338690D01*
X37738690Y84206227D01*
X37738691Y84206225D01*
X37842766Y84050466D01*
X37914454Y83877395D01*
X37951000Y83693667D01*
X37951000Y83506333D01*
X37914454Y83322605D01*
X37842766Y83149534D01*
X37842765Y83149533D01*
X37738690Y82993773D01*
X37606227Y82861310D01*
X37584252Y82846627D01*
X37450466Y82757234D01*
X37277395Y82685546D01*
X37093667Y82649000D01*
X36906333Y82649000D01*
X36722605Y82685546D01*
X36549534Y82757234D01*
X36415748Y82846627D01*
X36393773Y82861310D01*
X36261310Y82993773D01*
X36157235Y83149533D01*
X36157234Y83149534D01*
X36085546Y83322605D01*
X36049000Y83506333D01*
X36049000Y83693667D01*
X36085546Y83877395D01*
X36157234Y84050466D01*
X36261309Y84206225D01*
X36261310Y84206227D01*
X36393773Y84338690D01*
X36549533Y84442765D01*
X36549534Y84442766D01*
X36722605Y84514454D01*
X36906333Y84551000D01*
X37093667Y84551000D01*
X37277395Y84514454D01*
X37277395Y84514454D01*
G37*
G36*
X77960443Y86104481D02*
G01*
X78026627Y86097963D01*
X78196466Y86046443D01*
X78352991Y85962778D01*
X78388729Y85933448D01*
X78490186Y85850186D01*
X78573448Y85748729D01*
X78602778Y85712991D01*
X78686443Y85556466D01*
X78737963Y85386627D01*
X78755359Y85210000D01*
X78737963Y85033373D01*
X78686443Y84863534D01*
X78602778Y84707009D01*
X78573448Y84671271D01*
X78490186Y84569814D01*
X78422727Y84514453D01*
X78352991Y84457222D01*
X78196466Y84373557D01*
X78026627Y84322037D01*
X77960442Y84315518D01*
X77894260Y84309000D01*
X77805740Y84309000D01*
X77739558Y84315518D01*
X77673373Y84322037D01*
X77503534Y84373557D01*
X77347009Y84457222D01*
X77277273Y84514453D01*
X77209814Y84569814D01*
X77126552Y84671271D01*
X77097222Y84707009D01*
X77013557Y84863534D01*
X76962037Y85033373D01*
X76944641Y85210000D01*
X76962037Y85386627D01*
X77013557Y85556466D01*
X77097222Y85712991D01*
X77126552Y85748729D01*
X77209814Y85850186D01*
X77311271Y85933448D01*
X77347009Y85962778D01*
X77503534Y86046443D01*
X77673373Y86097963D01*
X77739557Y86104481D01*
X77805740Y86111000D01*
X77894260Y86111000D01*
X77960443Y86104481D01*
X77960443Y86104481D01*
G37*
G36*
X78751000Y86849000D02*
G01*
X76949000Y86849000D01*
X76949000Y88651000D01*
X78751000Y88651000D01*
X78751000Y86849000D01*
X78751000Y86849000D01*
G37*
G36*
X101698228Y89768297D02*
G01*
X101853100Y89704147D01*
X101992481Y89611015D01*
X102111015Y89492481D01*
X102204147Y89353100D01*
X102268297Y89198228D01*
X102301000Y89033816D01*
X102301000Y88866184D01*
X102268297Y88701772D01*
X102204147Y88546900D01*
X102111015Y88407519D01*
X101992481Y88288985D01*
X101853100Y88195853D01*
X101698228Y88131703D01*
X101533816Y88099000D01*
X101366184Y88099000D01*
X101201772Y88131703D01*
X101046900Y88195853D01*
X100907519Y88288985D01*
X100788985Y88407519D01*
X100695853Y88546900D01*
X100631703Y88701772D01*
X100599000Y88866184D01*
X100599000Y89033816D01*
X100631703Y89198228D01*
X100695853Y89353100D01*
X100788985Y89492481D01*
X100907519Y89611015D01*
X101046900Y89704147D01*
X101201772Y89768297D01*
X101366184Y89801000D01*
X101533816Y89801000D01*
X101698228Y89768297D01*
X101698228Y89768297D01*
G37*
G36*
X98198228Y89768297D02*
G01*
X98353100Y89704147D01*
X98492481Y89611015D01*
X98611015Y89492481D01*
X98704147Y89353100D01*
X98768297Y89198228D01*
X98801000Y89033816D01*
X98801000Y88866184D01*
X98768297Y88701772D01*
X98704147Y88546900D01*
X98611015Y88407519D01*
X98492481Y88288985D01*
X98353100Y88195853D01*
X98198228Y88131703D01*
X98033816Y88099000D01*
X97866184Y88099000D01*
X97701772Y88131703D01*
X97546900Y88195853D01*
X97407519Y88288985D01*
X97288985Y88407519D01*
X97195853Y88546900D01*
X97131703Y88701772D01*
X97099000Y88866184D01*
X97099000Y89033816D01*
X97131703Y89198228D01*
X97195853Y89353100D01*
X97288985Y89492481D01*
X97407519Y89611015D01*
X97546900Y89704147D01*
X97701772Y89768297D01*
X97866184Y89801000D01*
X98033816Y89801000D01*
X98198228Y89768297D01*
X98198228Y89768297D01*
G37*
G36*
X60451000Y89249000D02*
G01*
X58649000Y89249000D01*
X58649000Y91051000D01*
X60451000Y91051000D01*
X60451000Y89249000D01*
X60451000Y89249000D01*
G37*
G36*
X54580443Y91044481D02*
G01*
X54646627Y91037963D01*
X54816466Y90986443D01*
X54972991Y90902778D01*
X55008729Y90873448D01*
X55110186Y90790186D01*
X55193448Y90688729D01*
X55222778Y90652991D01*
X55306443Y90496466D01*
X55357963Y90326627D01*
X55375359Y90150000D01*
X55357963Y89973373D01*
X55306443Y89803534D01*
X55222778Y89647009D01*
X55193448Y89611271D01*
X55110186Y89509814D01*
X55008729Y89426552D01*
X54972991Y89397222D01*
X54816466Y89313557D01*
X54646627Y89262037D01*
X54580442Y89255518D01*
X54514260Y89249000D01*
X54425740Y89249000D01*
X54359558Y89255518D01*
X54293373Y89262037D01*
X54123534Y89313557D01*
X53967009Y89397222D01*
X53931271Y89426552D01*
X53829814Y89509814D01*
X53746552Y89611271D01*
X53717222Y89647009D01*
X53633557Y89803534D01*
X53582037Y89973373D01*
X53564641Y90150000D01*
X53582037Y90326627D01*
X53633557Y90496466D01*
X53717222Y90652991D01*
X53746552Y90688729D01*
X53829814Y90790186D01*
X53931271Y90873448D01*
X53967009Y90902778D01*
X54123534Y90986443D01*
X54293373Y91037963D01*
X54359557Y91044481D01*
X54425740Y91051000D01*
X54514260Y91051000D01*
X54580443Y91044481D01*
X54580443Y91044481D01*
G37*
G36*
X52040443Y91044481D02*
G01*
X52106627Y91037963D01*
X52276466Y90986443D01*
X52432991Y90902778D01*
X52468729Y90873448D01*
X52570186Y90790186D01*
X52653448Y90688729D01*
X52682778Y90652991D01*
X52766443Y90496466D01*
X52817963Y90326627D01*
X52835359Y90150000D01*
X52817963Y89973373D01*
X52766443Y89803534D01*
X52682778Y89647009D01*
X52653448Y89611271D01*
X52570186Y89509814D01*
X52468729Y89426552D01*
X52432991Y89397222D01*
X52276466Y89313557D01*
X52106627Y89262037D01*
X52040442Y89255518D01*
X51974260Y89249000D01*
X51885740Y89249000D01*
X51819558Y89255518D01*
X51753373Y89262037D01*
X51583534Y89313557D01*
X51427009Y89397222D01*
X51391271Y89426552D01*
X51289814Y89509814D01*
X51206552Y89611271D01*
X51177222Y89647009D01*
X51093557Y89803534D01*
X51042037Y89973373D01*
X51024641Y90150000D01*
X51042037Y90326627D01*
X51093557Y90496466D01*
X51177222Y90652991D01*
X51206552Y90688729D01*
X51289814Y90790186D01*
X51391271Y90873448D01*
X51427009Y90902778D01*
X51583534Y90986443D01*
X51753373Y91037963D01*
X51819557Y91044481D01*
X51885740Y91051000D01*
X51974260Y91051000D01*
X52040443Y91044481D01*
X52040443Y91044481D01*
G37*
G36*
X49500443Y91044481D02*
G01*
X49566627Y91037963D01*
X49736466Y90986443D01*
X49892991Y90902778D01*
X49928729Y90873448D01*
X50030186Y90790186D01*
X50113448Y90688729D01*
X50142778Y90652991D01*
X50226443Y90496466D01*
X50277963Y90326627D01*
X50295359Y90150000D01*
X50277963Y89973373D01*
X50226443Y89803534D01*
X50142778Y89647009D01*
X50113448Y89611271D01*
X50030186Y89509814D01*
X49928729Y89426552D01*
X49892991Y89397222D01*
X49736466Y89313557D01*
X49566627Y89262037D01*
X49500442Y89255518D01*
X49434260Y89249000D01*
X49345740Y89249000D01*
X49279558Y89255518D01*
X49213373Y89262037D01*
X49043534Y89313557D01*
X48887009Y89397222D01*
X48851271Y89426552D01*
X48749814Y89509814D01*
X48666552Y89611271D01*
X48637222Y89647009D01*
X48553557Y89803534D01*
X48502037Y89973373D01*
X48484641Y90150000D01*
X48502037Y90326627D01*
X48553557Y90496466D01*
X48637222Y90652991D01*
X48666552Y90688729D01*
X48749814Y90790186D01*
X48851271Y90873448D01*
X48887009Y90902778D01*
X49043534Y90986443D01*
X49213373Y91037963D01*
X49279557Y91044481D01*
X49345740Y91051000D01*
X49434260Y91051000D01*
X49500443Y91044481D01*
X49500443Y91044481D01*
G37*
G36*
X57120443Y91044481D02*
G01*
X57186627Y91037963D01*
X57356466Y90986443D01*
X57512991Y90902778D01*
X57548729Y90873448D01*
X57650186Y90790186D01*
X57733448Y90688729D01*
X57762778Y90652991D01*
X57846443Y90496466D01*
X57897963Y90326627D01*
X57915359Y90150000D01*
X57897963Y89973373D01*
X57846443Y89803534D01*
X57762778Y89647009D01*
X57733448Y89611271D01*
X57650186Y89509814D01*
X57548729Y89426552D01*
X57512991Y89397222D01*
X57356466Y89313557D01*
X57186627Y89262037D01*
X57120442Y89255518D01*
X57054260Y89249000D01*
X56965740Y89249000D01*
X56899558Y89255518D01*
X56833373Y89262037D01*
X56663534Y89313557D01*
X56507009Y89397222D01*
X56471271Y89426552D01*
X56369814Y89509814D01*
X56286552Y89611271D01*
X56257222Y89647009D01*
X56173557Y89803534D01*
X56122037Y89973373D01*
X56104641Y90150000D01*
X56122037Y90326627D01*
X56173557Y90496466D01*
X56257222Y90652991D01*
X56286552Y90688729D01*
X56369814Y90790186D01*
X56471271Y90873448D01*
X56507009Y90902778D01*
X56663534Y90986443D01*
X56833373Y91037963D01*
X56899557Y91044481D01*
X56965740Y91051000D01*
X57054260Y91051000D01*
X57120443Y91044481D01*
X57120443Y91044481D01*
G37*
G36*
X46960443Y91044481D02*
G01*
X47026627Y91037963D01*
X47196466Y90986443D01*
X47352991Y90902778D01*
X47388729Y90873448D01*
X47490186Y90790186D01*
X47573448Y90688729D01*
X47602778Y90652991D01*
X47686443Y90496466D01*
X47737963Y90326627D01*
X47755359Y90150000D01*
X47737963Y89973373D01*
X47686443Y89803534D01*
X47602778Y89647009D01*
X47573448Y89611271D01*
X47490186Y89509814D01*
X47388729Y89426552D01*
X47352991Y89397222D01*
X47196466Y89313557D01*
X47026627Y89262037D01*
X46960442Y89255518D01*
X46894260Y89249000D01*
X46805740Y89249000D01*
X46739558Y89255518D01*
X46673373Y89262037D01*
X46503534Y89313557D01*
X46347009Y89397222D01*
X46311271Y89426552D01*
X46209814Y89509814D01*
X46126552Y89611271D01*
X46097222Y89647009D01*
X46013557Y89803534D01*
X45962037Y89973373D01*
X45944641Y90150000D01*
X45962037Y90326627D01*
X46013557Y90496466D01*
X46097222Y90652991D01*
X46126552Y90688729D01*
X46209814Y90790186D01*
X46311271Y90873448D01*
X46347009Y90902778D01*
X46503534Y90986443D01*
X46673373Y91037963D01*
X46739557Y91044481D01*
X46805740Y91051000D01*
X46894260Y91051000D01*
X46960443Y91044481D01*
X46960443Y91044481D01*
G37*
G36*
X37277395Y97214454D02*
G01*
X37450466Y97142766D01*
X37450467Y97142765D01*
X37606227Y97038690D01*
X37738690Y96906227D01*
X37738691Y96906225D01*
X37842766Y96750466D01*
X37914454Y96577395D01*
X37951000Y96393667D01*
X37951000Y96206333D01*
X37914454Y96022605D01*
X37842766Y95849534D01*
X37842765Y95849533D01*
X37738690Y95693773D01*
X37606227Y95561310D01*
X37527818Y95508919D01*
X37450466Y95457234D01*
X37277395Y95385546D01*
X37093667Y95349000D01*
X36906333Y95349000D01*
X36722605Y95385546D01*
X36549534Y95457234D01*
X36472182Y95508919D01*
X36393773Y95561310D01*
X36261310Y95693773D01*
X36157235Y95849533D01*
X36157234Y95849534D01*
X36085546Y96022605D01*
X36049000Y96206333D01*
X36049000Y96393667D01*
X36085546Y96577395D01*
X36157234Y96750466D01*
X36261309Y96906225D01*
X36261310Y96906227D01*
X36393773Y97038690D01*
X36549533Y97142765D01*
X36549534Y97142766D01*
X36722605Y97214454D01*
X36906333Y97251000D01*
X37093667Y97251000D01*
X37277395Y97214454D01*
X37277395Y97214454D01*
G37*
G36*
X85227395Y99664454D02*
G01*
X85400466Y99592766D01*
X85400467Y99592765D01*
X85556227Y99488690D01*
X85688690Y99356227D01*
X85688691Y99356225D01*
X85792766Y99200466D01*
X85864454Y99027395D01*
X85901000Y98843667D01*
X85901000Y98656333D01*
X85864454Y98472605D01*
X85792766Y98299534D01*
X85792765Y98299533D01*
X85688690Y98143773D01*
X85556227Y98011310D01*
X85477818Y97958919D01*
X85400466Y97907234D01*
X85227395Y97835546D01*
X85043667Y97799000D01*
X84856333Y97799000D01*
X84672605Y97835546D01*
X84499534Y97907234D01*
X84422182Y97958919D01*
X84343773Y98011310D01*
X84211310Y98143773D01*
X84107235Y98299533D01*
X84107234Y98299534D01*
X84035546Y98472605D01*
X83999000Y98656333D01*
X83999000Y98843667D01*
X84035546Y99027395D01*
X84107234Y99200466D01*
X84211309Y99356225D01*
X84211310Y99356227D01*
X84343773Y99488690D01*
X84499533Y99592765D01*
X84499534Y99592766D01*
X84672605Y99664454D01*
X84856333Y99701000D01*
X85043667Y99701000D01*
X85227395Y99664454D01*
X85227395Y99664454D01*
G37*
G36*
X72527395Y99664454D02*
G01*
X72700466Y99592766D01*
X72700467Y99592765D01*
X72856227Y99488690D01*
X72988690Y99356227D01*
X72988691Y99356225D01*
X73092766Y99200466D01*
X73164454Y99027395D01*
X73201000Y98843667D01*
X73201000Y98656333D01*
X73164454Y98472605D01*
X73092766Y98299534D01*
X73092765Y98299533D01*
X72988690Y98143773D01*
X72856227Y98011310D01*
X72777818Y97958919D01*
X72700466Y97907234D01*
X72527395Y97835546D01*
X72343667Y97799000D01*
X72156333Y97799000D01*
X71972605Y97835546D01*
X71799534Y97907234D01*
X71722182Y97958919D01*
X71643773Y98011310D01*
X71511310Y98143773D01*
X71407235Y98299533D01*
X71407234Y98299534D01*
X71335546Y98472605D01*
X71299000Y98656333D01*
X71299000Y98843667D01*
X71335546Y99027395D01*
X71407234Y99200466D01*
X71511309Y99356225D01*
X71511310Y99356227D01*
X71643773Y99488690D01*
X71799533Y99592765D01*
X71799534Y99592766D01*
X71972605Y99664454D01*
X72156333Y99701000D01*
X72343667Y99701000D01*
X72527395Y99664454D01*
X72527395Y99664454D01*
G37*
G36*
X99398228Y102368297D02*
G01*
X99553100Y102304147D01*
X99692481Y102211015D01*
X99811015Y102092481D01*
X99904147Y101953100D01*
X99968297Y101798228D01*
X100001000Y101633816D01*
X100001000Y101466184D01*
X99968297Y101301772D01*
X99904147Y101146900D01*
X99811015Y101007519D01*
X99692481Y100888985D01*
X99553100Y100795853D01*
X99398228Y100731703D01*
X99233816Y100699000D01*
X99066184Y100699000D01*
X98901772Y100731703D01*
X98746900Y100795853D01*
X98607519Y100888985D01*
X98488985Y101007519D01*
X98395853Y101146900D01*
X98331703Y101301772D01*
X98299000Y101466184D01*
X98299000Y101633816D01*
X98331703Y101798228D01*
X98395853Y101953100D01*
X98488985Y102092481D01*
X98607519Y102211015D01*
X98746900Y102304147D01*
X98901772Y102368297D01*
X99066184Y102401000D01*
X99233816Y102401000D01*
X99398228Y102368297D01*
X99398228Y102368297D01*
G37*
G36*
X102898228Y102368297D02*
G01*
X103053100Y102304147D01*
X103192481Y102211015D01*
X103311015Y102092481D01*
X103404147Y101953100D01*
X103468297Y101798228D01*
X103501000Y101633816D01*
X103501000Y101466184D01*
X103468297Y101301772D01*
X103404147Y101146900D01*
X103311015Y101007519D01*
X103192481Y100888985D01*
X103053100Y100795853D01*
X102898228Y100731703D01*
X102733816Y100699000D01*
X102566184Y100699000D01*
X102401772Y100731703D01*
X102246900Y100795853D01*
X102107519Y100888985D01*
X101988985Y101007519D01*
X101895853Y101146900D01*
X101831703Y101301772D01*
X101799000Y101466184D01*
X101799000Y101633816D01*
X101831703Y101798228D01*
X101895853Y101953100D01*
X101988985Y102092481D01*
X102107519Y102211015D01*
X102246900Y102304147D01*
X102401772Y102368297D01*
X102566184Y102401000D01*
X102733816Y102401000D01*
X102898228Y102368297D01*
X102898228Y102368297D01*
G37*
G36*
X73627395Y104564454D02*
G01*
X73800466Y104492766D01*
X73800467Y104492765D01*
X73956227Y104388690D01*
X74088690Y104256227D01*
X74088691Y104256225D01*
X74192766Y104100466D01*
X74264454Y103927395D01*
X74301000Y103743667D01*
X74301000Y103556333D01*
X74264454Y103372605D01*
X74192766Y103199534D01*
X74192765Y103199533D01*
X74088690Y103043773D01*
X73956227Y102911310D01*
X73877818Y102858919D01*
X73800466Y102807234D01*
X73627395Y102735546D01*
X73443667Y102699000D01*
X73256333Y102699000D01*
X73072605Y102735546D01*
X72899534Y102807234D01*
X72822182Y102858919D01*
X72743773Y102911310D01*
X72611310Y103043773D01*
X72507235Y103199533D01*
X72507234Y103199534D01*
X72435546Y103372605D01*
X72399000Y103556333D01*
X72399000Y103743667D01*
X72435546Y103927395D01*
X72507234Y104100466D01*
X72611309Y104256225D01*
X72611310Y104256227D01*
X72743773Y104388690D01*
X72899533Y104492765D01*
X72899534Y104492766D01*
X73072605Y104564454D01*
X73256333Y104601000D01*
X73443667Y104601000D01*
X73627395Y104564454D01*
X73627395Y104564454D01*
G37*
G36*
X86327395Y104564454D02*
G01*
X86500466Y104492766D01*
X86500467Y104492765D01*
X86656227Y104388690D01*
X86788690Y104256227D01*
X86788691Y104256225D01*
X86892766Y104100466D01*
X86964454Y103927395D01*
X87001000Y103743667D01*
X87001000Y103556333D01*
X86964454Y103372605D01*
X86892766Y103199534D01*
X86892765Y103199533D01*
X86788690Y103043773D01*
X86656227Y102911310D01*
X86577818Y102858919D01*
X86500466Y102807234D01*
X86327395Y102735546D01*
X86143667Y102699000D01*
X85956333Y102699000D01*
X85772605Y102735546D01*
X85599534Y102807234D01*
X85522182Y102858919D01*
X85443773Y102911310D01*
X85311310Y103043773D01*
X85207235Y103199533D01*
X85207234Y103199534D01*
X85135546Y103372605D01*
X85099000Y103556333D01*
X85099000Y103743667D01*
X85135546Y103927395D01*
X85207234Y104100466D01*
X85311309Y104256225D01*
X85311310Y104256227D01*
X85443773Y104388690D01*
X85599533Y104492765D01*
X85599534Y104492766D01*
X85772605Y104564454D01*
X85956333Y104601000D01*
X86143667Y104601000D01*
X86327395Y104564454D01*
X86327395Y104564454D01*
G37*
G36*
X91113512Y109046073D02*
G01*
X91262812Y109016376D01*
X91426784Y108948456D01*
X91574354Y108849853D01*
X91699853Y108724354D01*
X91798456Y108576784D01*
X91866376Y108412812D01*
X91901000Y108238741D01*
X91901000Y108061259D01*
X91866376Y107887188D01*
X91798456Y107723216D01*
X91699853Y107575646D01*
X91574354Y107450147D01*
X91426784Y107351544D01*
X91262812Y107283624D01*
X91113512Y107253927D01*
X91088742Y107249000D01*
X90911258Y107249000D01*
X90886488Y107253927D01*
X90737188Y107283624D01*
X90573216Y107351544D01*
X90425646Y107450147D01*
X90300147Y107575646D01*
X90201544Y107723216D01*
X90133624Y107887188D01*
X90099000Y108061259D01*
X90099000Y108238741D01*
X90133624Y108412812D01*
X90201544Y108576784D01*
X90300147Y108724354D01*
X90425646Y108849853D01*
X90573216Y108948456D01*
X90737188Y109016376D01*
X90886488Y109046073D01*
X90911258Y109051000D01*
X91088742Y109051000D01*
X91113512Y109046073D01*
X91113512Y109046073D01*
G37*
G36*
X24056564Y110760611D02*
G01*
X24247833Y110681385D01*
X24247835Y110681384D01*
X24419973Y110566365D01*
X24566365Y110419973D01*
X24671107Y110263216D01*
X24681385Y110247833D01*
X24760611Y110056564D01*
X24801000Y109853516D01*
X24801000Y109646484D01*
X24760611Y109443436D01*
X24681385Y109252167D01*
X24681384Y109252165D01*
X24566365Y109080027D01*
X24419973Y108933635D01*
X24247835Y108818616D01*
X24247834Y108818615D01*
X24247833Y108818615D01*
X24056564Y108739389D01*
X23853516Y108699000D01*
X23646484Y108699000D01*
X23443436Y108739389D01*
X23252167Y108818615D01*
X23252166Y108818615D01*
X23252165Y108818616D01*
X23080027Y108933635D01*
X22933635Y109080027D01*
X22818616Y109252165D01*
X22818615Y109252167D01*
X22739389Y109443436D01*
X22699000Y109646484D01*
X22699000Y109853516D01*
X22739389Y110056564D01*
X22818615Y110247833D01*
X22828894Y110263216D01*
X22933635Y110419973D01*
X23080027Y110566365D01*
X23252165Y110681384D01*
X23252167Y110681385D01*
X23443436Y110760611D01*
X23646484Y110801000D01*
X23853516Y110801000D01*
X24056564Y110760611D01*
X24056564Y110760611D01*
G37*
G36*
X21516564Y110760611D02*
G01*
X21707833Y110681385D01*
X21707835Y110681384D01*
X21879973Y110566365D01*
X22026365Y110419973D01*
X22131107Y110263216D01*
X22141385Y110247833D01*
X22220611Y110056564D01*
X22261000Y109853516D01*
X22261000Y109646484D01*
X22220611Y109443436D01*
X22141385Y109252167D01*
X22141384Y109252165D01*
X22026365Y109080027D01*
X21879973Y108933635D01*
X21707835Y108818616D01*
X21707834Y108818615D01*
X21707833Y108818615D01*
X21516564Y108739389D01*
X21313516Y108699000D01*
X21106484Y108699000D01*
X20903436Y108739389D01*
X20712167Y108818615D01*
X20712166Y108818615D01*
X20712165Y108818616D01*
X20540027Y108933635D01*
X20393635Y109080027D01*
X20278616Y109252165D01*
X20278615Y109252167D01*
X20199389Y109443436D01*
X20159000Y109646484D01*
X20159000Y109853516D01*
X20199389Y110056564D01*
X20278615Y110247833D01*
X20288894Y110263216D01*
X20393635Y110419973D01*
X20540027Y110566365D01*
X20712165Y110681384D01*
X20712167Y110681385D01*
X20903436Y110760611D01*
X21106484Y110801000D01*
X21313516Y110801000D01*
X21516564Y110760611D01*
X21516564Y110760611D01*
G37*
G36*
X18976564Y110760611D02*
G01*
X19167833Y110681385D01*
X19167835Y110681384D01*
X19339973Y110566365D01*
X19486365Y110419973D01*
X19591107Y110263216D01*
X19601385Y110247833D01*
X19680611Y110056564D01*
X19721000Y109853516D01*
X19721000Y109646484D01*
X19680611Y109443436D01*
X19601385Y109252167D01*
X19601384Y109252165D01*
X19486365Y109080027D01*
X19339973Y108933635D01*
X19167835Y108818616D01*
X19167834Y108818615D01*
X19167833Y108818615D01*
X18976564Y108739389D01*
X18773516Y108699000D01*
X18566484Y108699000D01*
X18363436Y108739389D01*
X18172167Y108818615D01*
X18172166Y108818615D01*
X18172165Y108818616D01*
X18000027Y108933635D01*
X17853635Y109080027D01*
X17738616Y109252165D01*
X17738615Y109252167D01*
X17659389Y109443436D01*
X17619000Y109646484D01*
X17619000Y109853516D01*
X17659389Y110056564D01*
X17738615Y110247833D01*
X17748894Y110263216D01*
X17853635Y110419973D01*
X18000027Y110566365D01*
X18172165Y110681384D01*
X18172167Y110681385D01*
X18363436Y110760611D01*
X18566484Y110801000D01*
X18773516Y110801000D01*
X18976564Y110760611D01*
X18976564Y110760611D01*
G37*
G36*
X16436564Y110760611D02*
G01*
X16627833Y110681385D01*
X16627835Y110681384D01*
X16799973Y110566365D01*
X16946365Y110419973D01*
X17051107Y110263216D01*
X17061385Y110247833D01*
X17140611Y110056564D01*
X17181000Y109853516D01*
X17181000Y109646484D01*
X17140611Y109443436D01*
X17061385Y109252167D01*
X17061384Y109252165D01*
X16946365Y109080027D01*
X16799973Y108933635D01*
X16627835Y108818616D01*
X16627834Y108818615D01*
X16627833Y108818615D01*
X16436564Y108739389D01*
X16233516Y108699000D01*
X16026484Y108699000D01*
X15823436Y108739389D01*
X15632167Y108818615D01*
X15632166Y108818615D01*
X15632165Y108818616D01*
X15460027Y108933635D01*
X15313635Y109080027D01*
X15198616Y109252165D01*
X15198615Y109252167D01*
X15119389Y109443436D01*
X15079000Y109646484D01*
X15079000Y109853516D01*
X15119389Y110056564D01*
X15198615Y110247833D01*
X15208894Y110263216D01*
X15313635Y110419973D01*
X15460027Y110566365D01*
X15632165Y110681384D01*
X15632167Y110681385D01*
X15823436Y110760611D01*
X16026484Y110801000D01*
X16233516Y110801000D01*
X16436564Y110760611D01*
X16436564Y110760611D01*
G37*
G36*
X69613512Y111346073D02*
G01*
X69762812Y111316376D01*
X69926784Y111248456D01*
X70074354Y111149853D01*
X70199853Y111024354D01*
X70298456Y110876784D01*
X70366376Y110712812D01*
X70401000Y110538741D01*
X70401000Y110361259D01*
X70366376Y110187188D01*
X70298456Y110023216D01*
X70199853Y109875646D01*
X70074354Y109750147D01*
X69926784Y109651544D01*
X69762812Y109583624D01*
X69613512Y109553927D01*
X69588742Y109549000D01*
X69411258Y109549000D01*
X69386488Y109553927D01*
X69237188Y109583624D01*
X69073216Y109651544D01*
X68925646Y109750147D01*
X68800147Y109875646D01*
X68701544Y110023216D01*
X68633624Y110187188D01*
X68599000Y110361259D01*
X68599000Y110538741D01*
X68633624Y110712812D01*
X68701544Y110876784D01*
X68800147Y111024354D01*
X68925646Y111149853D01*
X69073216Y111248456D01*
X69237188Y111316376D01*
X69386488Y111346073D01*
X69411258Y111351000D01*
X69588742Y111351000D01*
X69613512Y111346073D01*
X69613512Y111346073D01*
G37*
G36*
X91113512Y111586073D02*
G01*
X91262812Y111556376D01*
X91426784Y111488456D01*
X91574354Y111389853D01*
X91699853Y111264354D01*
X91798456Y111116784D01*
X91866376Y110952812D01*
X91901000Y110778741D01*
X91901000Y110601259D01*
X91866376Y110427188D01*
X91798456Y110263216D01*
X91699853Y110115646D01*
X91574354Y109990147D01*
X91426784Y109891544D01*
X91262812Y109823624D01*
X91113512Y109793927D01*
X91088742Y109789000D01*
X90911258Y109789000D01*
X90886488Y109793927D01*
X90737188Y109823624D01*
X90573216Y109891544D01*
X90425646Y109990147D01*
X90300147Y110115646D01*
X90201544Y110263216D01*
X90133624Y110427188D01*
X90099000Y110601259D01*
X90099000Y110778741D01*
X90133624Y110952812D01*
X90201544Y111116784D01*
X90300147Y111264354D01*
X90425646Y111389853D01*
X90573216Y111488456D01*
X90737188Y111556376D01*
X90886488Y111586073D01*
X90911258Y111591000D01*
X91088742Y111591000D01*
X91113512Y111586073D01*
X91113512Y111586073D01*
G37*
G36*
X102427395Y113084454D02*
G01*
X102600466Y113012766D01*
X102600467Y113012765D01*
X102756227Y112908690D01*
X102888690Y112776227D01*
X102888691Y112776225D01*
X102992766Y112620466D01*
X103064454Y112447395D01*
X103101000Y112263667D01*
X103101000Y112076333D01*
X103064454Y111892605D01*
X102992766Y111719534D01*
X102992765Y111719533D01*
X102888690Y111563773D01*
X102756227Y111431310D01*
X102694182Y111389853D01*
X102600466Y111327234D01*
X102427395Y111255546D01*
X102243667Y111219000D01*
X102056333Y111219000D01*
X101872605Y111255546D01*
X101699534Y111327234D01*
X101605818Y111389853D01*
X101543773Y111431310D01*
X101411310Y111563773D01*
X101307235Y111719533D01*
X101307234Y111719534D01*
X101235546Y111892605D01*
X101199000Y112076333D01*
X101199000Y112263667D01*
X101235546Y112447395D01*
X101307234Y112620466D01*
X101411309Y112776225D01*
X101411310Y112776227D01*
X101543773Y112908690D01*
X101699533Y113012765D01*
X101699534Y113012766D01*
X101872605Y113084454D01*
X102056333Y113121000D01*
X102243667Y113121000D01*
X102427395Y113084454D01*
X102427395Y113084454D01*
G37*
G36*
X69613512Y113886073D02*
G01*
X69762812Y113856376D01*
X69926784Y113788456D01*
X70074354Y113689853D01*
X70199853Y113564354D01*
X70298456Y113416784D01*
X70366376Y113252812D01*
X70401000Y113078741D01*
X70401000Y112901259D01*
X70366376Y112727188D01*
X70298456Y112563216D01*
X70199853Y112415646D01*
X70074354Y112290147D01*
X69926784Y112191544D01*
X69762812Y112123624D01*
X69613512Y112093927D01*
X69588742Y112089000D01*
X69411258Y112089000D01*
X69386488Y112093927D01*
X69237188Y112123624D01*
X69073216Y112191544D01*
X68925646Y112290147D01*
X68800147Y112415646D01*
X68701544Y112563216D01*
X68633624Y112727188D01*
X68599000Y112901259D01*
X68599000Y113078741D01*
X68633624Y113252812D01*
X68701544Y113416784D01*
X68800147Y113564354D01*
X68925646Y113689853D01*
X69073216Y113788456D01*
X69237188Y113856376D01*
X69386488Y113886073D01*
X69411258Y113891000D01*
X69588742Y113891000D01*
X69613512Y113886073D01*
X69613512Y113886073D01*
G37*
G36*
X91113512Y114126073D02*
G01*
X91262812Y114096376D01*
X91426784Y114028456D01*
X91574354Y113929853D01*
X91699853Y113804354D01*
X91798456Y113656784D01*
X91866376Y113492812D01*
X91901000Y113318741D01*
X91901000Y113141259D01*
X91866376Y112967188D01*
X91798456Y112803216D01*
X91699853Y112655646D01*
X91574354Y112530147D01*
X91426784Y112431544D01*
X91262812Y112363624D01*
X91113512Y112333927D01*
X91088742Y112329000D01*
X90911258Y112329000D01*
X90886488Y112333927D01*
X90737188Y112363624D01*
X90573216Y112431544D01*
X90425646Y112530147D01*
X90300147Y112655646D01*
X90201544Y112803216D01*
X90133624Y112967188D01*
X90099000Y113141259D01*
X90099000Y113318741D01*
X90133624Y113492812D01*
X90201544Y113656784D01*
X90300147Y113804354D01*
X90425646Y113929853D01*
X90573216Y114028456D01*
X90737188Y114096376D01*
X90886488Y114126073D01*
X90911258Y114131000D01*
X91088742Y114131000D01*
X91113512Y114126073D01*
X91113512Y114126073D01*
G37*
G36*
X102427395Y115624454D02*
G01*
X102600466Y115552766D01*
X102600467Y115552765D01*
X102756227Y115448690D01*
X102888690Y115316227D01*
X102888691Y115316225D01*
X102992766Y115160466D01*
X103064454Y114987395D01*
X103101000Y114803667D01*
X103101000Y114616333D01*
X103064454Y114432605D01*
X102992766Y114259534D01*
X102992765Y114259533D01*
X102888690Y114103773D01*
X102756227Y113971310D01*
X102694182Y113929853D01*
X102600466Y113867234D01*
X102427395Y113795546D01*
X102243667Y113759000D01*
X102056333Y113759000D01*
X101872605Y113795546D01*
X101699534Y113867234D01*
X101605818Y113929853D01*
X101543773Y113971310D01*
X101411310Y114103773D01*
X101307235Y114259533D01*
X101307234Y114259534D01*
X101235546Y114432605D01*
X101199000Y114616333D01*
X101199000Y114803667D01*
X101235546Y114987395D01*
X101307234Y115160466D01*
X101411309Y115316225D01*
X101411310Y115316227D01*
X101543773Y115448690D01*
X101699533Y115552765D01*
X101699534Y115552766D01*
X101872605Y115624454D01*
X102056333Y115661000D01*
X102243667Y115661000D01*
X102427395Y115624454D01*
X102427395Y115624454D01*
G37*
G36*
X69613512Y116426073D02*
G01*
X69762812Y116396376D01*
X69926784Y116328456D01*
X70074354Y116229853D01*
X70199853Y116104354D01*
X70298456Y115956784D01*
X70366376Y115792812D01*
X70388565Y115681258D01*
X70400489Y115621313D01*
X70401000Y115618741D01*
X70401000Y115441259D01*
X70366376Y115267188D01*
X70298456Y115103216D01*
X70199853Y114955646D01*
X70074354Y114830147D01*
X69926784Y114731544D01*
X69762812Y114663624D01*
X69613512Y114633927D01*
X69588742Y114629000D01*
X69411258Y114629000D01*
X69386488Y114633927D01*
X69237188Y114663624D01*
X69073216Y114731544D01*
X68925646Y114830147D01*
X68800147Y114955646D01*
X68701544Y115103216D01*
X68633624Y115267188D01*
X68599000Y115441259D01*
X68599000Y115618741D01*
X68599512Y115621313D01*
X68611435Y115681258D01*
X68633624Y115792812D01*
X68701544Y115956784D01*
X68800147Y116104354D01*
X68925646Y116229853D01*
X69073216Y116328456D01*
X69237188Y116396376D01*
X69386488Y116426073D01*
X69411258Y116431000D01*
X69588742Y116431000D01*
X69613512Y116426073D01*
X69613512Y116426073D01*
G37*
G36*
X91113512Y116666073D02*
G01*
X91262812Y116636376D01*
X91426784Y116568456D01*
X91574354Y116469853D01*
X91699853Y116344354D01*
X91798456Y116196784D01*
X91866376Y116032812D01*
X91901000Y115858741D01*
X91901000Y115681259D01*
X91866376Y115507188D01*
X91798456Y115343216D01*
X91699853Y115195646D01*
X91574354Y115070147D01*
X91426784Y114971544D01*
X91262812Y114903624D01*
X91113512Y114873927D01*
X91088742Y114869000D01*
X90911258Y114869000D01*
X90886488Y114873927D01*
X90737188Y114903624D01*
X90573216Y114971544D01*
X90425646Y115070147D01*
X90300147Y115195646D01*
X90201544Y115343216D01*
X90133624Y115507188D01*
X90099000Y115681259D01*
X90099000Y115858741D01*
X90133624Y116032812D01*
X90201544Y116196784D01*
X90300147Y116344354D01*
X90425646Y116469853D01*
X90573216Y116568456D01*
X90737188Y116636376D01*
X90886488Y116666073D01*
X90911258Y116671000D01*
X91088742Y116671000D01*
X91113512Y116666073D01*
X91113512Y116666073D01*
G37*
G36*
X13986823Y117298687D02*
G01*
X14147242Y117250024D01*
X14234048Y117203625D01*
X14295078Y117171004D01*
X14424659Y117064659D01*
X14531004Y116935078D01*
X14531005Y116935076D01*
X14610024Y116787242D01*
X14658687Y116626823D01*
X14675117Y116460000D01*
X14658687Y116293177D01*
X14610024Y116132758D01*
X14594841Y116104353D01*
X14531004Y115984922D01*
X14424659Y115855341D01*
X14295078Y115748996D01*
X14295076Y115748995D01*
X14147242Y115669976D01*
X13986823Y115621313D01*
X13861804Y115609000D01*
X13778196Y115609000D01*
X13653177Y115621313D01*
X13492758Y115669976D01*
X13344924Y115748995D01*
X13344922Y115748996D01*
X13215341Y115855341D01*
X13108996Y115984922D01*
X13045159Y116104353D01*
X13029976Y116132758D01*
X12981313Y116293177D01*
X12964883Y116460000D01*
X12981313Y116626823D01*
X13029976Y116787242D01*
X13108995Y116935076D01*
X13108996Y116935078D01*
X13215341Y117064659D01*
X13344922Y117171004D01*
X13405952Y117203625D01*
X13492758Y117250024D01*
X13653177Y117298687D01*
X13778196Y117311000D01*
X13861804Y117311000D01*
X13986823Y117298687D01*
X13986823Y117298687D01*
G37*
G36*
X6366823Y117298687D02*
G01*
X6527242Y117250024D01*
X6614048Y117203625D01*
X6675078Y117171004D01*
X6804659Y117064659D01*
X6911004Y116935078D01*
X6911005Y116935076D01*
X6990024Y116787242D01*
X7038687Y116626823D01*
X7055117Y116460000D01*
X7038687Y116293177D01*
X6990024Y116132758D01*
X6974841Y116104353D01*
X6911004Y115984922D01*
X6804659Y115855341D01*
X6675078Y115748996D01*
X6675076Y115748995D01*
X6527242Y115669976D01*
X6366823Y115621313D01*
X6241804Y115609000D01*
X6158196Y115609000D01*
X6033177Y115621313D01*
X5872758Y115669976D01*
X5724924Y115748995D01*
X5724922Y115748996D01*
X5595341Y115855341D01*
X5488996Y115984922D01*
X5425159Y116104353D01*
X5409976Y116132758D01*
X5361313Y116293177D01*
X5344883Y116460000D01*
X5361313Y116626823D01*
X5409976Y116787242D01*
X5488995Y116935076D01*
X5488996Y116935078D01*
X5595341Y117064659D01*
X5724922Y117171004D01*
X5785952Y117203625D01*
X5872758Y117250024D01*
X6033177Y117298687D01*
X6158196Y117311000D01*
X6241804Y117311000D01*
X6366823Y117298687D01*
X6366823Y117298687D01*
G37*
G36*
X102427395Y118164454D02*
G01*
X102600466Y118092766D01*
X102600467Y118092765D01*
X102756227Y117988690D01*
X102888690Y117856227D01*
X102888691Y117856225D01*
X102992766Y117700466D01*
X103064454Y117527395D01*
X103101000Y117343667D01*
X103101000Y117156333D01*
X103064454Y116972605D01*
X102992766Y116799534D01*
X102941081Y116722182D01*
X102888690Y116643773D01*
X102756227Y116511310D01*
X102694182Y116469853D01*
X102600466Y116407234D01*
X102427395Y116335546D01*
X102243667Y116299000D01*
X102056333Y116299000D01*
X101872605Y116335546D01*
X101699534Y116407234D01*
X101605818Y116469853D01*
X101543773Y116511310D01*
X101411310Y116643773D01*
X101358919Y116722182D01*
X101307234Y116799534D01*
X101235546Y116972605D01*
X101199000Y117156333D01*
X101199000Y117343667D01*
X101235546Y117527395D01*
X101307234Y117700466D01*
X101411309Y117856225D01*
X101411310Y117856227D01*
X101543773Y117988690D01*
X101699533Y118092765D01*
X101699534Y118092766D01*
X101872605Y118164454D01*
X102056333Y118201000D01*
X102243667Y118201000D01*
X102427395Y118164454D01*
X102427395Y118164454D01*
G37*
G36*
X69613512Y118966073D02*
G01*
X69762812Y118936376D01*
X69926784Y118868456D01*
X70074354Y118769853D01*
X70199853Y118644354D01*
X70298456Y118496784D01*
X70366376Y118332812D01*
X70388565Y118221258D01*
X70400489Y118161313D01*
X70401000Y118158741D01*
X70401000Y117981259D01*
X70366376Y117807188D01*
X70298456Y117643216D01*
X70199853Y117495646D01*
X70074354Y117370147D01*
X69926784Y117271544D01*
X69762812Y117203624D01*
X69613512Y117173927D01*
X69588742Y117169000D01*
X69411258Y117169000D01*
X69386488Y117173927D01*
X69237188Y117203624D01*
X69073216Y117271544D01*
X68925646Y117370147D01*
X68800147Y117495646D01*
X68701544Y117643216D01*
X68633624Y117807188D01*
X68599000Y117981259D01*
X68599000Y118158741D01*
X68599512Y118161313D01*
X68611435Y118221258D01*
X68633624Y118332812D01*
X68701544Y118496784D01*
X68800147Y118644354D01*
X68925646Y118769853D01*
X69073216Y118868456D01*
X69237188Y118936376D01*
X69386488Y118966073D01*
X69411258Y118971000D01*
X69588742Y118971000D01*
X69613512Y118966073D01*
X69613512Y118966073D01*
G37*
G36*
X91113512Y119206073D02*
G01*
X91262812Y119176376D01*
X91426784Y119108456D01*
X91574354Y119009853D01*
X91699853Y118884354D01*
X91798456Y118736784D01*
X91866376Y118572812D01*
X91901000Y118398741D01*
X91901000Y118221259D01*
X91866376Y118047188D01*
X91798456Y117883216D01*
X91699853Y117735646D01*
X91574354Y117610147D01*
X91426784Y117511544D01*
X91262812Y117443624D01*
X91113512Y117413927D01*
X91088742Y117409000D01*
X90911258Y117409000D01*
X90886488Y117413927D01*
X90737188Y117443624D01*
X90573216Y117511544D01*
X90425646Y117610147D01*
X90300147Y117735646D01*
X90201544Y117883216D01*
X90133624Y118047188D01*
X90099000Y118221259D01*
X90099000Y118398741D01*
X90133624Y118572812D01*
X90201544Y118736784D01*
X90300147Y118884354D01*
X90425646Y119009853D01*
X90573216Y119108456D01*
X90737188Y119176376D01*
X90886488Y119206073D01*
X90911258Y119211000D01*
X91088742Y119211000D01*
X91113512Y119206073D01*
X91113512Y119206073D01*
G37*
G36*
X13986823Y119838687D02*
G01*
X14147242Y119790024D01*
X14234048Y119743625D01*
X14295078Y119711004D01*
X14424659Y119604659D01*
X14531004Y119475078D01*
X14531005Y119475076D01*
X14610024Y119327242D01*
X14658687Y119166823D01*
X14675117Y119000000D01*
X14658687Y118833177D01*
X14610024Y118672758D01*
X14594841Y118644353D01*
X14531004Y118524922D01*
X14424659Y118395341D01*
X14295078Y118288996D01*
X14295076Y118288995D01*
X14147242Y118209976D01*
X13986823Y118161313D01*
X13861804Y118149000D01*
X13778196Y118149000D01*
X13653177Y118161313D01*
X13492758Y118209976D01*
X13344924Y118288995D01*
X13344922Y118288996D01*
X13215341Y118395341D01*
X13108996Y118524922D01*
X13045159Y118644353D01*
X13029976Y118672758D01*
X12981313Y118833177D01*
X12964883Y119000000D01*
X12981313Y119166823D01*
X13029976Y119327242D01*
X13108995Y119475076D01*
X13108996Y119475078D01*
X13215341Y119604659D01*
X13344922Y119711004D01*
X13405952Y119743625D01*
X13492758Y119790024D01*
X13653177Y119838687D01*
X13778196Y119851000D01*
X13861804Y119851000D01*
X13986823Y119838687D01*
X13986823Y119838687D01*
G37*
G36*
X7051000Y118149000D02*
G01*
X5349000Y118149000D01*
X5349000Y119851000D01*
X7051000Y119851000D01*
X7051000Y118149000D01*
X7051000Y118149000D01*
G37*
G36*
X69613512Y121506073D02*
G01*
X69762812Y121476376D01*
X69926784Y121408456D01*
X70074354Y121309853D01*
X70199853Y121184354D01*
X70298456Y121036784D01*
X70366376Y120872812D01*
X70401000Y120698741D01*
X70401000Y120521259D01*
X70366376Y120347188D01*
X70298456Y120183216D01*
X70199853Y120035646D01*
X70074354Y119910147D01*
X69926784Y119811544D01*
X69762812Y119743624D01*
X69613512Y119713927D01*
X69588742Y119709000D01*
X69411258Y119709000D01*
X69386488Y119713927D01*
X69237188Y119743624D01*
X69073216Y119811544D01*
X68925646Y119910147D01*
X68800147Y120035646D01*
X68701544Y120183216D01*
X68633624Y120347188D01*
X68599000Y120521259D01*
X68599000Y120698741D01*
X68633624Y120872812D01*
X68701544Y121036784D01*
X68800147Y121184354D01*
X68925646Y121309853D01*
X69073216Y121408456D01*
X69237188Y121476376D01*
X69386488Y121506073D01*
X69411258Y121511000D01*
X69588742Y121511000D01*
X69613512Y121506073D01*
X69613512Y121506073D01*
G37*
G36*
X91113512Y121746073D02*
G01*
X91262812Y121716376D01*
X91426784Y121648456D01*
X91574354Y121549853D01*
X91699853Y121424354D01*
X91798456Y121276784D01*
X91866376Y121112812D01*
X91901000Y120938741D01*
X91901000Y120761259D01*
X91866376Y120587188D01*
X91798456Y120423216D01*
X91699853Y120275646D01*
X91574354Y120150147D01*
X91426784Y120051544D01*
X91262812Y119983624D01*
X91113512Y119953927D01*
X91088742Y119949000D01*
X90911258Y119949000D01*
X90886488Y119953927D01*
X90737188Y119983624D01*
X90573216Y120051544D01*
X90425646Y120150147D01*
X90300147Y120275646D01*
X90201544Y120423216D01*
X90133624Y120587188D01*
X90099000Y120761259D01*
X90099000Y120938741D01*
X90133624Y121112812D01*
X90201544Y121276784D01*
X90300147Y121424354D01*
X90425646Y121549853D01*
X90573216Y121648456D01*
X90737188Y121716376D01*
X90886488Y121746073D01*
X90911258Y121751000D01*
X91088742Y121751000D01*
X91113512Y121746073D01*
X91113512Y121746073D01*
G37*
G36*
X69613512Y124046073D02*
G01*
X69762812Y124016376D01*
X69926784Y123948456D01*
X70074354Y123849853D01*
X70199853Y123724354D01*
X70298456Y123576784D01*
X70366376Y123412812D01*
X70396073Y123263512D01*
X70398960Y123249000D01*
X70401000Y123238741D01*
X70401000Y123061259D01*
X70366376Y122887188D01*
X70298456Y122723216D01*
X70199853Y122575646D01*
X70074354Y122450147D01*
X69926784Y122351544D01*
X69762812Y122283624D01*
X69613512Y122253927D01*
X69588742Y122249000D01*
X69411258Y122249000D01*
X69386488Y122253927D01*
X69237188Y122283624D01*
X69073216Y122351544D01*
X68925646Y122450147D01*
X68800147Y122575646D01*
X68701544Y122723216D01*
X68633624Y122887188D01*
X68599000Y123061259D01*
X68599000Y123238741D01*
X68601041Y123249000D01*
X68603927Y123263512D01*
X68633624Y123412812D01*
X68701544Y123576784D01*
X68800147Y123724354D01*
X68925646Y123849853D01*
X69073216Y123948456D01*
X69237188Y124016376D01*
X69386488Y124046073D01*
X69411258Y124051000D01*
X69588742Y124051000D01*
X69613512Y124046073D01*
X69613512Y124046073D01*
G37*
G36*
X103548228Y124918297D02*
G01*
X103703100Y124854147D01*
X103842481Y124761015D01*
X103961015Y124642481D01*
X104054147Y124503100D01*
X104118297Y124348228D01*
X104151000Y124183816D01*
X104151000Y124016184D01*
X104118297Y123851772D01*
X104054147Y123696900D01*
X103961015Y123557519D01*
X103842481Y123438985D01*
X103703100Y123345853D01*
X103548228Y123281703D01*
X103383816Y123249000D01*
X103216184Y123249000D01*
X103051772Y123281703D01*
X102896900Y123345853D01*
X102757519Y123438985D01*
X102638985Y123557519D01*
X102545853Y123696900D01*
X102481703Y123851772D01*
X102449000Y124016184D01*
X102449000Y124183816D01*
X102481703Y124348228D01*
X102545853Y124503100D01*
X102638985Y124642481D01*
X102757519Y124761015D01*
X102896900Y124854147D01*
X103051772Y124918297D01*
X103216184Y124951000D01*
X103383816Y124951000D01*
X103548228Y124918297D01*
X103548228Y124918297D01*
G37*
G36*
X100048228Y124918297D02*
G01*
X100203100Y124854147D01*
X100342481Y124761015D01*
X100461015Y124642481D01*
X100554147Y124503100D01*
X100618297Y124348228D01*
X100651000Y124183816D01*
X100651000Y124016184D01*
X100618297Y123851772D01*
X100554147Y123696900D01*
X100461015Y123557519D01*
X100342481Y123438985D01*
X100203100Y123345853D01*
X100048228Y123281703D01*
X99883816Y123249000D01*
X99716184Y123249000D01*
X99551772Y123281703D01*
X99396900Y123345853D01*
X99257519Y123438985D01*
X99138985Y123557519D01*
X99045853Y123696900D01*
X98981703Y123851772D01*
X98949000Y124016184D01*
X98949000Y124183816D01*
X98981703Y124348228D01*
X99045853Y124503100D01*
X99138985Y124642481D01*
X99257519Y124761015D01*
X99396900Y124854147D01*
X99551772Y124918297D01*
X99716184Y124951000D01*
X99883816Y124951000D01*
X100048228Y124918297D01*
X100048228Y124918297D01*
G37*
M02*
