G04 #@! TF.GenerationSoftware,KiCad,Pcbnew,(5.1.4)-1*
G04 #@! TF.CreationDate,2021-01-15T10:18:38-05:00*
G04 #@! TF.ProjectId,DATALITE,44415441-4c49-4544-952e-6b696361645f,rev?*
G04 #@! TF.SameCoordinates,Original*
G04 #@! TF.FileFunction,Copper,L2,Bot*
G04 #@! TF.FilePolarity,Positive*
%FSLAX46Y46*%
G04 Gerber Fmt 4.6, Leading zero omitted, Abs format (unit mm)*
G04 Created by KiCad (PCBNEW (5.1.4)-1) date 2021-01-15 10:18:38*
%MOMM*%
%LPD*%
G04 APERTURE LIST*
%ADD10C,2.500000*%
%ADD11R,1.560000X1.560000*%
%ADD12C,1.700000*%
%ADD13C,1.600000*%
%ADD14C,1.800000*%
%ADD15R,1.700000X1.700000*%
%ADD16O,1.700000X1.700000*%
%ADD17C,2.000000*%
%ADD18R,1.600000X1.600000*%
%ADD19O,1.600000X1.600000*%
%ADD20C,1.905000*%
%ADD21C,1.200000*%
G04 APERTURE END LIST*
D10*
X34930000Y11250000D03*
X40010000Y11250000D03*
X29850000Y11250000D03*
X45090000Y11250000D03*
D11*
X40850000Y77610000D03*
D12*
X40850000Y75070000D03*
X40850000Y31890000D03*
X40850000Y72530000D03*
X40850000Y69990000D03*
X40850000Y67450000D03*
X40850000Y64910000D03*
X40850000Y62370000D03*
X40850000Y59830000D03*
X40850000Y57290000D03*
X40850000Y54750000D03*
X40850000Y52210000D03*
X40850000Y49670000D03*
X40850000Y47130000D03*
X40850000Y44590000D03*
X40850000Y42050000D03*
X40850000Y39510000D03*
X40850000Y36970000D03*
X40850000Y34430000D03*
X66250000Y77610000D03*
X66250000Y75070000D03*
X66250000Y72530000D03*
X66250000Y69990000D03*
X66250000Y67450000D03*
X66250000Y64910000D03*
X66250000Y62370000D03*
X66250000Y59830000D03*
X66250000Y57290000D03*
X66250000Y54750000D03*
X66250000Y52210000D03*
X66250000Y49670000D03*
X66250000Y47130000D03*
X66250000Y44590000D03*
X66250000Y42050000D03*
X66250000Y39510000D03*
X66250000Y36970000D03*
X66250000Y34430000D03*
X66250000Y31890000D03*
D13*
X99250000Y68350000D03*
X102750000Y68350000D03*
X103300000Y124100000D03*
X99800000Y124100000D03*
X102650000Y101550000D03*
X99150000Y101550000D03*
X97950000Y88950000D03*
X101450000Y88950000D03*
D12*
X69500000Y110450000D03*
X69500000Y112990000D03*
X69500000Y115530000D03*
X69500000Y118070000D03*
X69500000Y120610000D03*
X69500000Y123150000D03*
X91000000Y108150000D03*
X91000000Y110690000D03*
X91000000Y113230000D03*
X91000000Y115770000D03*
X91000000Y118310000D03*
X91000000Y120850000D03*
D14*
X84950000Y58950000D03*
X87490000Y58950000D03*
X90030000Y58950000D03*
D15*
X59550000Y90150000D03*
D16*
X57010000Y90150000D03*
X54470000Y90150000D03*
X51930000Y90150000D03*
X49390000Y90150000D03*
X46850000Y90150000D03*
D15*
X77850000Y87750000D03*
D16*
X77850000Y85210000D03*
X77850000Y82670000D03*
X77850000Y80130000D03*
X77850000Y77590000D03*
X77850000Y75050000D03*
X77850000Y72510000D03*
X77850000Y69970000D03*
X77850000Y67430000D03*
X77850000Y64890000D03*
D14*
X10200000Y37150000D03*
X12740000Y37150000D03*
X15280000Y37150000D03*
X17820000Y37150000D03*
X100050000Y56150000D03*
X100050000Y53610000D03*
X100050000Y51070000D03*
X100050000Y48530000D03*
X39370000Y18400000D03*
X41910000Y18400000D03*
X44450000Y18400000D03*
X32500000Y18400000D03*
X29960000Y18400000D03*
X27420000Y18400000D03*
D10*
X75840000Y11450000D03*
X80920000Y11450000D03*
X86000000Y11450000D03*
X66360000Y11450000D03*
X61280000Y11450000D03*
X56200000Y11450000D03*
D14*
X37000000Y96300000D03*
X37000000Y83600000D03*
X72250000Y98750000D03*
X84950000Y98750000D03*
X73350000Y103650000D03*
X86050000Y103650000D03*
X91200000Y48950000D03*
X78500000Y48950000D03*
X74800000Y38850000D03*
X74800000Y51550000D03*
X6300000Y49300000D03*
X6300000Y62000000D03*
X11650000Y49300000D03*
X11650000Y62000000D03*
X28600000Y46450000D03*
X15900000Y46450000D03*
X32400000Y63250000D03*
X32400000Y50550000D03*
D17*
X6050000Y68100000D03*
X6050000Y72600000D03*
X12550000Y68100000D03*
X12550000Y72600000D03*
X23000000Y81500000D03*
X23000000Y77000000D03*
X16500000Y81500000D03*
X16500000Y77000000D03*
X23400000Y63550000D03*
X23400000Y59050000D03*
X16900000Y63550000D03*
X16900000Y59050000D03*
X26900000Y68450000D03*
X26900000Y72950000D03*
X33400000Y68450000D03*
X33400000Y72950000D03*
D18*
X6200000Y119000000D03*
D19*
X13820000Y116460000D03*
X6200000Y116460000D03*
X13820000Y119000000D03*
D20*
X101100000Y76200000D03*
X101100000Y78740000D03*
X101100000Y81280000D03*
D17*
X23750000Y109750000D03*
X21210000Y109750000D03*
X16130000Y109750000D03*
X18670000Y109750000D03*
D14*
X102150000Y117250000D03*
X102150000Y114710000D03*
X102150000Y112170000D03*
D18*
X100800000Y39000000D03*
D19*
X100800000Y31380000D03*
D14*
X95050000Y68750000D03*
X88700000Y68900000D03*
X65350000Y110500000D03*
X65450000Y120450000D03*
X47800000Y39050000D03*
X58550000Y39150000D03*
X77650000Y32750000D03*
X94000000Y32550000D03*
X88650000Y17150000D03*
X75800000Y17050000D03*
X91700000Y54500000D03*
X84800000Y54600000D03*
X54750000Y51900000D03*
X45000000Y51900000D03*
X34800000Y46850000D03*
X34700000Y33100000D03*
X47350000Y34250000D03*
X47700000Y21900000D03*
X91850000Y29700000D03*
X77350000Y29800000D03*
X95800000Y35750000D03*
X81650000Y35750000D03*
X73100000Y116500000D03*
X73100000Y107050000D03*
X47750000Y45100000D03*
X58050000Y44950000D03*
X3550000Y57950000D03*
X3400000Y80800000D03*
X47100000Y75000000D03*
X47200000Y67400000D03*
X62200000Y67250000D03*
X62600000Y75050000D03*
X71550000Y82600000D03*
X70950000Y64700000D03*
D21*
X70950000Y82000000D02*
X71550000Y82600000D01*
X70950000Y64700000D02*
X70950000Y82000000D01*
X91600000Y54600000D02*
X91700000Y54500000D01*
X84800000Y54600000D02*
X91600000Y54600000D01*
X65350000Y120350000D02*
X65450000Y120450000D01*
X65350000Y110500000D02*
X65350000Y120350000D01*
X94900000Y68900000D02*
X95050000Y68750000D01*
X88700000Y68900000D02*
X94900000Y68900000D01*
X91750000Y29800000D02*
X91850000Y29700000D01*
X77350000Y29800000D02*
X91750000Y29800000D01*
X73100000Y107050000D02*
X73100000Y116500000D01*
X88550000Y17050000D02*
X88650000Y17150000D01*
X75800000Y17050000D02*
X88550000Y17050000D01*
X81650000Y35750000D02*
X95800000Y35750000D01*
X62550000Y75000000D02*
X62600000Y75050000D01*
X47100000Y75000000D02*
X62550000Y75000000D01*
X62050000Y67400000D02*
X62200000Y67250000D01*
X47200000Y67400000D02*
X62050000Y67400000D01*
X3400000Y58100000D02*
X3550000Y57950000D01*
X3400000Y80800000D02*
X3400000Y58100000D01*
X58450000Y39050000D02*
X58550000Y39150000D01*
X47800000Y39050000D02*
X58450000Y39050000D01*
X77850000Y32550000D02*
X77650000Y32750000D01*
X94000000Y32550000D02*
X77850000Y32550000D01*
X45000000Y51900000D02*
X54750000Y51900000D01*
X34700000Y46750000D02*
X34800000Y46850000D01*
X34700000Y33100000D02*
X34700000Y46750000D01*
X47350000Y22250000D02*
X47700000Y21900000D01*
X47350000Y34250000D02*
X47350000Y22250000D01*
X57900000Y45100000D02*
X58050000Y44950000D01*
X47750000Y45100000D02*
X57900000Y45100000D01*
M02*
