G04 #@! TF.GenerationSoftware,KiCad,Pcbnew,(5.1.4)-1*
G04 #@! TF.CreationDate,2021-01-15T10:18:38-05:00*
G04 #@! TF.ProjectId,DATALITE,44415441-4c49-4544-952e-6b696361645f,rev?*
G04 #@! TF.SameCoordinates,Original*
G04 #@! TF.FileFunction,Copper,L1,Top*
G04 #@! TF.FilePolarity,Positive*
%FSLAX46Y46*%
G04 Gerber Fmt 4.6, Leading zero omitted, Abs format (unit mm)*
G04 Created by KiCad (PCBNEW (5.1.4)-1) date 2021-01-15 10:18:38*
%MOMM*%
%LPD*%
G04 APERTURE LIST*
%ADD10C,0.375000*%
%ADD11C,2.500000*%
%ADD12R,1.560000X1.560000*%
%ADD13C,1.700000*%
%ADD14C,1.600000*%
%ADD15C,1.800000*%
%ADD16R,1.700000X1.700000*%
%ADD17O,1.700000X1.700000*%
%ADD18C,2.000000*%
%ADD19R,1.600000X1.600000*%
%ADD20O,1.600000X1.600000*%
%ADD21C,1.905000*%
%ADD22C,1.200000*%
G04 APERTURE END LIST*
D10*
X29273549Y21271428D02*
X29461049Y22771428D01*
X30086049Y22628571D02*
X30166406Y22700000D01*
X30318191Y22771428D01*
X30675334Y22771428D01*
X30809263Y22700000D01*
X30871763Y22628571D01*
X30925334Y22485714D01*
X30907477Y22342857D01*
X30809263Y22128571D01*
X29844977Y21271428D01*
X30773549Y21271428D01*
X32291406Y21414285D02*
X32211049Y21342857D01*
X31987834Y21271428D01*
X31844977Y21271428D01*
X31639620Y21342857D01*
X31514620Y21485714D01*
X31461049Y21628571D01*
X31425334Y21914285D01*
X31452120Y22128571D01*
X31559263Y22414285D01*
X31648549Y22557142D01*
X31809263Y22700000D01*
X32032477Y22771428D01*
X32175334Y22771428D01*
X32380691Y22700000D01*
X32443191Y22628571D01*
D11*
X34930000Y11250000D03*
X40010000Y11250000D03*
X29850000Y11250000D03*
X45090000Y11250000D03*
D12*
X40850000Y77610000D03*
D13*
X40850000Y75070000D03*
X40850000Y31890000D03*
X40850000Y72530000D03*
X40850000Y69990000D03*
X40850000Y67450000D03*
X40850000Y64910000D03*
X40850000Y62370000D03*
X40850000Y59830000D03*
X40850000Y57290000D03*
X40850000Y54750000D03*
X40850000Y52210000D03*
X40850000Y49670000D03*
X40850000Y47130000D03*
X40850000Y44590000D03*
X40850000Y42050000D03*
X40850000Y39510000D03*
X40850000Y36970000D03*
X40850000Y34430000D03*
X66250000Y77610000D03*
X66250000Y75070000D03*
X66250000Y72530000D03*
X66250000Y69990000D03*
X66250000Y67450000D03*
X66250000Y64910000D03*
X66250000Y62370000D03*
X66250000Y59830000D03*
X66250000Y57290000D03*
X66250000Y54750000D03*
X66250000Y52210000D03*
X66250000Y49670000D03*
X66250000Y47130000D03*
X66250000Y44590000D03*
X66250000Y42050000D03*
X66250000Y39510000D03*
X66250000Y36970000D03*
X66250000Y34430000D03*
X66250000Y31890000D03*
D14*
X99250000Y68350000D03*
X102750000Y68350000D03*
X103300000Y124100000D03*
X99800000Y124100000D03*
X102650000Y101550000D03*
X99150000Y101550000D03*
X97950000Y88950000D03*
X101450000Y88950000D03*
D13*
X69500000Y110450000D03*
X69500000Y112990000D03*
X69500000Y115530000D03*
X69500000Y118070000D03*
X69500000Y120610000D03*
X69500000Y123150000D03*
X91000000Y108150000D03*
X91000000Y110690000D03*
X91000000Y113230000D03*
X91000000Y115770000D03*
X91000000Y118310000D03*
X91000000Y120850000D03*
D15*
X84950000Y58950000D03*
X87490000Y58950000D03*
X90030000Y58950000D03*
D16*
X59550000Y90150000D03*
D17*
X57010000Y90150000D03*
X54470000Y90150000D03*
X51930000Y90150000D03*
X49390000Y90150000D03*
X46850000Y90150000D03*
D16*
X77850000Y87750000D03*
D17*
X77850000Y85210000D03*
X77850000Y82670000D03*
X77850000Y80130000D03*
X77850000Y77590000D03*
X77850000Y75050000D03*
X77850000Y72510000D03*
X77850000Y69970000D03*
X77850000Y67430000D03*
X77850000Y64890000D03*
D15*
X10200000Y37150000D03*
X12740000Y37150000D03*
X15280000Y37150000D03*
X17820000Y37150000D03*
X100050000Y56150000D03*
X100050000Y53610000D03*
X100050000Y51070000D03*
X100050000Y48530000D03*
X39370000Y18400000D03*
X41910000Y18400000D03*
X44450000Y18400000D03*
X32500000Y18400000D03*
X29960000Y18400000D03*
X27420000Y18400000D03*
D11*
X75840000Y11450000D03*
X80920000Y11450000D03*
X86000000Y11450000D03*
X66360000Y11450000D03*
X61280000Y11450000D03*
X56200000Y11450000D03*
D15*
X37000000Y96300000D03*
X37000000Y83600000D03*
X72250000Y98750000D03*
X84950000Y98750000D03*
X73350000Y103650000D03*
X86050000Y103650000D03*
X91200000Y48950000D03*
X78500000Y48950000D03*
X74800000Y38850000D03*
X74800000Y51550000D03*
X6300000Y49300000D03*
X6300000Y62000000D03*
X11650000Y49300000D03*
X11650000Y62000000D03*
X28600000Y46450000D03*
X15900000Y46450000D03*
X32400000Y63250000D03*
X32400000Y50550000D03*
D18*
X6050000Y68100000D03*
X6050000Y72600000D03*
X12550000Y68100000D03*
X12550000Y72600000D03*
X23000000Y81500000D03*
X23000000Y77000000D03*
X16500000Y81500000D03*
X16500000Y77000000D03*
X23400000Y63550000D03*
X23400000Y59050000D03*
X16900000Y63550000D03*
X16900000Y59050000D03*
X26900000Y68450000D03*
X26900000Y72950000D03*
X33400000Y68450000D03*
X33400000Y72950000D03*
D19*
X6200000Y119000000D03*
D20*
X13820000Y116460000D03*
X6200000Y116460000D03*
X13820000Y119000000D03*
D21*
X101100000Y76200000D03*
X101100000Y78740000D03*
X101100000Y81280000D03*
D18*
X23750000Y109750000D03*
X21210000Y109750000D03*
X16130000Y109750000D03*
X18670000Y109750000D03*
D15*
X102150000Y117250000D03*
X102150000Y114710000D03*
X102150000Y112170000D03*
D19*
X100800000Y39000000D03*
D20*
X100800000Y31380000D03*
D15*
X95050000Y68750000D03*
X88700000Y68900000D03*
X65350000Y110500000D03*
X65450000Y120450000D03*
X47800000Y39050000D03*
X58550000Y39150000D03*
X77650000Y32750000D03*
X94000000Y32550000D03*
X88650000Y17150000D03*
X75800000Y17050000D03*
X91700000Y54500000D03*
X84800000Y54600000D03*
X54750000Y51900000D03*
X45000000Y51900000D03*
X34800000Y46850000D03*
X34700000Y33100000D03*
X47350000Y34250000D03*
X47700000Y21900000D03*
X91850000Y29700000D03*
X77350000Y29800000D03*
X95800000Y35750000D03*
X81650000Y35750000D03*
X73100000Y116500000D03*
X73100000Y107050000D03*
X47750000Y45100000D03*
X58050000Y44950000D03*
X3550000Y57950000D03*
X3400000Y80800000D03*
X47100000Y75000000D03*
X47200000Y67400000D03*
X62200000Y67250000D03*
X62600000Y75050000D03*
X71550000Y82600000D03*
X70950000Y64700000D03*
D22*
X6300000Y49300000D02*
X11650000Y49300000D01*
X32400000Y44780000D02*
X32590000Y44590000D01*
X32400000Y50550000D02*
X32400000Y44780000D01*
X30740000Y44590000D02*
X32590000Y44590000D01*
X32590000Y44590000D02*
X40850000Y44590000D01*
X14500000Y46450000D02*
X11650000Y49300000D01*
X15900000Y46450000D02*
X14500000Y46450000D01*
X98450001Y69149999D02*
X99250000Y68350000D01*
X98450001Y76439703D02*
X98450001Y69149999D01*
X101100000Y78740000D02*
X100750298Y78740000D01*
X46850000Y92162754D02*
X46850000Y90150000D01*
X69500000Y110450000D02*
X65137246Y110450000D01*
X6599998Y122800000D02*
X27765787Y122800000D01*
X4399999Y120600001D02*
X6599998Y122800000D01*
X4399999Y117128631D02*
X4399999Y120600001D01*
X5068630Y116460000D02*
X4399999Y117128631D01*
X6200000Y116460000D02*
X5068630Y116460000D01*
X103422792Y112170000D02*
X102150000Y112170000D01*
X104050001Y112797209D02*
X103422792Y112170000D01*
X104050001Y118162001D02*
X104050001Y112797209D01*
X103300000Y118912002D02*
X104050001Y118162001D01*
X103300000Y124100000D02*
X103300000Y118912002D01*
X102750000Y74550000D02*
X101100000Y76200000D01*
X102750000Y68350000D02*
X102750000Y74550000D01*
X104450001Y109869999D02*
X103049999Y111270001D01*
X70702081Y120610000D02*
X69500000Y120610000D01*
X97112753Y97249999D02*
X93862745Y93999990D01*
X98349999Y97249999D02*
X97112753Y97249999D01*
X102650000Y101550000D02*
X98349999Y97249999D01*
X101660000Y114710000D02*
X102150000Y114710000D01*
X100249999Y113299999D02*
X101660000Y114710000D01*
X100249999Y103950001D02*
X100249999Y113299999D01*
X102650000Y101550000D02*
X100249999Y103950001D01*
X101100000Y88600000D02*
X101450000Y88950000D01*
X101100000Y81280000D02*
X101100000Y88600000D01*
X79900000Y87750000D02*
X77850000Y87750000D01*
X88780000Y78870000D02*
X79900000Y87750000D01*
X75800000Y87750000D02*
X72350000Y91200000D01*
X72350000Y91200000D02*
X71549999Y92000001D01*
X75800000Y87750000D02*
X77850000Y87750000D01*
X66062746Y97487254D02*
X75800000Y87750000D01*
X55287254Y97487254D02*
X66062746Y97487254D01*
X49390000Y90150000D02*
X49390000Y91590000D01*
X49390000Y91590000D02*
X55287254Y97487254D01*
X77850000Y77590000D02*
X79052081Y77590000D01*
X66250000Y59830000D02*
X65047919Y59830000D01*
X61200001Y92000001D02*
X62750000Y90450002D01*
X57657920Y92000001D02*
X61200001Y92000001D01*
X57010000Y90150000D02*
X57010000Y91352081D01*
X57010000Y91352081D02*
X57657920Y92000001D01*
X65047919Y62370000D02*
X66250000Y62370000D01*
X66250000Y62370000D02*
X63330000Y62370000D01*
X63330000Y62370000D02*
X59350000Y66350000D01*
X59350000Y66350000D02*
X59350000Y81400000D01*
X62750000Y84800000D02*
X62750000Y90450002D01*
X59350000Y81400000D02*
X62750000Y84800000D01*
X56717930Y93600011D02*
X64349989Y93600011D01*
X54470000Y90150000D02*
X54470000Y91352081D01*
X54470000Y91352081D02*
X56717930Y93600011D01*
X66250000Y91700000D02*
X66250000Y77610000D01*
X64349989Y93600011D02*
X66250000Y91700000D01*
X71550000Y83872792D02*
X71550000Y82600000D01*
X71550000Y88662755D02*
X71550000Y83872792D01*
X65012734Y95200021D02*
X71550000Y88662755D01*
X52779999Y91924834D02*
X56055185Y95200021D01*
X52779999Y90999999D02*
X52779999Y91924834D01*
X56055185Y95200021D02*
X65012734Y95200021D01*
X51930000Y90150000D02*
X52779999Y90999999D01*
X70740000Y64910000D02*
X70950000Y64700000D01*
X66250000Y64910000D02*
X70740000Y64910000D01*
X67452081Y75070000D02*
X66250000Y75070000D01*
X69047919Y75070000D02*
X67452081Y75070000D01*
X76647919Y82670000D02*
X69047919Y75070000D01*
X77850000Y82670000D02*
X76647919Y82670000D01*
X62620000Y75070000D02*
X62600000Y75050000D01*
X66250000Y75070000D02*
X62620000Y75070000D01*
X21795788Y111750001D02*
X21210000Y111164213D01*
X24710001Y111750001D02*
X21795788Y111750001D01*
X21210000Y111164213D02*
X21210000Y109750000D01*
X27200000Y94800000D02*
X27200000Y109260002D01*
X33249990Y88750010D02*
X27200000Y94800000D01*
X27200000Y109260002D02*
X24710001Y111750001D01*
X76370674Y80130000D02*
X77850000Y80130000D01*
X69750000Y73509326D02*
X76370674Y80130000D01*
X69750000Y69747919D02*
X69750000Y73509326D01*
X66250000Y67450000D02*
X67452081Y67450000D01*
X67452081Y67450000D02*
X69750000Y69747919D01*
X66050000Y67250000D02*
X66250000Y67450000D01*
X62200000Y67250000D02*
X66050000Y67250000D01*
X8200000Y119000000D02*
X6200000Y119000000D01*
X10000001Y120800001D02*
X8200000Y119000000D01*
X32499999Y120800001D02*
X10000001Y120800001D01*
X37899999Y115400001D02*
X32499999Y120800001D01*
X37000000Y96300000D02*
X37899999Y97199999D01*
X37899999Y97199999D02*
X37899999Y115400001D01*
X37899999Y82700001D02*
X37000000Y83600000D01*
X37960009Y82639991D02*
X37899999Y82700001D01*
X37960009Y69137910D02*
X37960009Y82639991D01*
X39647919Y67450000D02*
X37960009Y69137910D01*
X40850000Y67450000D02*
X39647919Y67450000D01*
X40850000Y59830000D02*
X39647919Y59830000D01*
X5050001Y71600001D02*
X6050000Y72600000D01*
X2850000Y69400000D02*
X5050001Y71600001D01*
X2850000Y65450000D02*
X2850000Y69400000D01*
X6300000Y62000000D02*
X2850000Y65450000D01*
X12550000Y72600000D02*
X6050000Y72600000D01*
X7199999Y61100001D02*
X6300000Y62000000D01*
X8200001Y60099999D02*
X7199999Y61100001D01*
X12562001Y60099999D02*
X8200001Y60099999D01*
X15939999Y65550001D02*
X13550001Y63160003D01*
X29140012Y60769990D02*
X24360001Y65550001D01*
X13550001Y63160003D02*
X13550001Y61087999D01*
X39910010Y60769990D02*
X29140012Y60769990D01*
X13550001Y61087999D02*
X12562001Y60099999D01*
X24360001Y65550001D02*
X15939999Y65550001D01*
X40850000Y59830000D02*
X39910010Y60769990D01*
X29400000Y73989998D02*
X29400000Y77000000D01*
X32629995Y70760003D02*
X29400000Y73989998D01*
X40850000Y64910000D02*
X39247262Y64910000D01*
X39247262Y64910000D02*
X38999999Y65157263D01*
X23000000Y77000000D02*
X29400000Y77000000D01*
X16500000Y77000000D02*
X16500000Y71550000D01*
X16500000Y68372756D02*
X16500000Y71550000D01*
X11650000Y63522756D02*
X16500000Y68372756D01*
X11650000Y62000000D02*
X11650000Y63522756D01*
X16500000Y77000000D02*
X23000000Y77000000D01*
X40850000Y64910000D02*
X37490000Y64910000D01*
X37490000Y64910000D02*
X36150000Y66250000D01*
X34049999Y70760003D02*
X32629995Y70760003D01*
X36150000Y68660002D02*
X34049999Y70760003D01*
X36150000Y66250000D02*
X36150000Y68660002D01*
X29660000Y57290000D02*
X40850000Y57290000D01*
X27049999Y59799999D02*
X27100000Y59850000D01*
X27049999Y49272793D02*
X27049999Y59799999D01*
X28600000Y47722792D02*
X27049999Y49272793D01*
X28600000Y46450000D02*
X28600000Y47722792D01*
X23400000Y63550000D02*
X27100000Y59850000D01*
X27100000Y59850000D02*
X29660000Y57290000D01*
X23400000Y63550000D02*
X16900000Y63550000D01*
X40320000Y62900000D02*
X40850000Y62370000D01*
X39647919Y62370000D02*
X40850000Y62370000D01*
X36969998Y62370000D02*
X39647919Y62370000D01*
X33280000Y62370000D02*
X32400000Y63250000D01*
X40850000Y62370000D02*
X33280000Y62370000D01*
X32400000Y67450000D02*
X33400000Y68450000D01*
X32400000Y63250000D02*
X32400000Y67450000D01*
X1249990Y70759992D02*
X7339998Y76850000D01*
X1249990Y64238008D02*
X1249990Y70759992D01*
X6988009Y58499989D02*
X1249990Y64238008D01*
X14935776Y58499989D02*
X6988009Y58499989D01*
X15485787Y59050000D02*
X14935776Y58499989D01*
X16900000Y59050000D02*
X15485787Y59050000D01*
X16900000Y59050000D02*
X23400000Y59050000D01*
X6050000Y68100000D02*
X12550000Y68100000D01*
X35900001Y78930003D02*
X36359999Y79390001D01*
X25109999Y79390001D02*
X23000000Y81500000D01*
X36359999Y79390001D02*
X25109999Y79390001D01*
X10435787Y76850000D02*
X7339998Y76850000D01*
X16500000Y81500000D02*
X15085787Y81500000D01*
X16500000Y81500000D02*
X23000000Y81500000D01*
X14550001Y74399999D02*
X11267894Y77682106D01*
X14550001Y70100001D02*
X14550001Y74399999D01*
X12550000Y68100000D02*
X14550001Y70100001D01*
X15085787Y81500000D02*
X11267894Y77682106D01*
X11267894Y77682106D02*
X10435787Y76850000D01*
X35900001Y76864214D02*
X35900001Y78930003D01*
X33400000Y74364213D02*
X35900001Y76864214D01*
X33400000Y72950000D02*
X33400000Y74364213D01*
X47750000Y46372792D02*
X47750000Y45100000D01*
X27000001Y85500001D02*
X37912001Y85500001D01*
X23000000Y81500000D02*
X27000001Y85500001D01*
X65890000Y44950000D02*
X66250000Y44590000D01*
X100049999Y67550001D02*
X99250000Y68350000D01*
X100050000Y56150000D02*
X100049999Y67550001D01*
X69060000Y44590000D02*
X74800000Y38850000D01*
X66250000Y44590000D02*
X69060000Y44590000D01*
X54337245Y99649999D02*
X54168623Y99481377D01*
X71350001Y99649999D02*
X54337245Y99649999D01*
X72250000Y98750000D02*
X71350001Y99649999D01*
X65137246Y110450000D02*
X54168623Y99481377D01*
X54168623Y99481377D02*
X46850000Y92162754D01*
X86800000Y124100000D02*
X99800000Y124100000D01*
X69500000Y110450000D02*
X73150000Y110450000D01*
X77150000Y103737998D02*
X77150000Y114450000D01*
X85287998Y95600000D02*
X77150000Y103737998D01*
X93200000Y95600000D02*
X85287998Y95600000D01*
X99150000Y101550000D02*
X93200000Y95600000D01*
X73150000Y110450000D02*
X77150000Y114450000D01*
X77150000Y114450000D02*
X86800000Y124100000D01*
X67609999Y10200001D02*
X66360000Y11450000D01*
X68610001Y9199999D02*
X67609999Y10200001D01*
X86000000Y9682234D02*
X81317766Y5000000D01*
X86000000Y11450000D02*
X86000000Y9682234D01*
X72810000Y5000000D02*
X66360000Y11450000D01*
X81317766Y5000000D02*
X72810000Y5000000D01*
X75699999Y37950001D02*
X74800000Y38850000D01*
X79250001Y34399999D02*
X75699999Y37950001D01*
X79250001Y24340001D02*
X79250001Y34399999D01*
X66360000Y11450000D02*
X79250001Y24340001D01*
X66360000Y9682234D02*
X61877766Y5200000D01*
X66360000Y11450000D02*
X66360000Y9682234D01*
X51140000Y5200000D02*
X45090000Y11250000D01*
X61877766Y5200000D02*
X51140000Y5200000D01*
X17820000Y44530000D02*
X17820000Y37150000D01*
X15900000Y46450000D02*
X17820000Y44530000D01*
X24199999Y38049999D02*
X30740000Y44590000D01*
X18719999Y38049999D02*
X24199999Y38049999D01*
X17820000Y37150000D02*
X18719999Y38049999D01*
X16130000Y108335787D02*
X16130000Y109750000D01*
X16130000Y90717998D02*
X16130000Y108335787D01*
X4312001Y78899999D02*
X16130000Y90717998D01*
X2487999Y78899999D02*
X4312001Y78899999D01*
X1499999Y79887999D02*
X2487999Y78899999D01*
X1499999Y111759999D02*
X1499999Y79887999D01*
X6200000Y116460000D02*
X1499999Y111759999D01*
X84950000Y54750000D02*
X84800000Y54600000D01*
X84950000Y58950000D02*
X84950000Y54750000D01*
X93350000Y56150000D02*
X100050000Y56150000D01*
X91700000Y54500000D02*
X93350000Y56150000D01*
X86000000Y13217766D02*
X86000000Y11450000D01*
X86200008Y13417774D02*
X86000000Y13217766D01*
X86000000Y11450000D02*
X86000000Y22550000D01*
X85699999Y53700001D02*
X84800000Y54600000D01*
X87179990Y52220010D02*
X85699999Y53700001D01*
X87179990Y23729990D02*
X87179990Y52220010D01*
X86000000Y22550000D02*
X87179990Y23729990D01*
X97150001Y78749999D02*
X98955149Y76944851D01*
X97150001Y88150001D02*
X97150001Y78749999D01*
X97950000Y88950000D02*
X97150001Y88150001D01*
X100750298Y78740000D02*
X98955149Y76944851D01*
X98955149Y76944851D02*
X98450001Y76439703D01*
X102037201Y79327499D02*
X104100000Y81390298D01*
X101677499Y79327499D02*
X102037201Y79327499D01*
X101100000Y78740000D02*
X101100000Y78750000D01*
X101100000Y78750000D02*
X101677499Y79327499D01*
X104100000Y81390298D02*
X104100000Y90600000D01*
X95225510Y93100000D02*
X93775510Y91650000D01*
X104100000Y90600000D02*
X101600000Y93100000D01*
X101600000Y93100000D02*
X95225510Y93100000D01*
X79350000Y91650000D02*
X72250000Y98750000D01*
X93775510Y91650000D02*
X79350000Y91650000D01*
X37400000Y120450000D02*
X35050000Y122800000D01*
X65450000Y120450000D02*
X37400000Y120450000D01*
X27765787Y122800000D02*
X35050000Y122800000D01*
X78699999Y84360001D02*
X80389999Y84360001D01*
X77850000Y85210000D02*
X78699999Y84360001D01*
X88700000Y76050000D02*
X88700000Y68900000D01*
X80389999Y84360001D02*
X88700000Y76050000D01*
X98850000Y68750000D02*
X99250000Y68350000D01*
X95050000Y68750000D02*
X98850000Y68750000D01*
X74550000Y29800000D02*
X77350000Y29800000D01*
X56200000Y11450000D02*
X74550000Y29800000D01*
X95860000Y53610000D02*
X100050000Y53610000D01*
X91200000Y48950000D02*
X95860000Y53610000D01*
X91850000Y48300000D02*
X91200000Y48950000D01*
X91850000Y29700000D02*
X91850000Y48300000D01*
X102750000Y67218630D02*
X102750000Y68350000D01*
X102750000Y55037208D02*
X102750000Y67218630D01*
X101322792Y53610000D02*
X102750000Y55037208D01*
X100050000Y53610000D02*
X101322792Y53610000D01*
X103049999Y111270001D02*
X102150000Y112170000D01*
X101100000Y76200000D02*
X103550000Y76200000D01*
X103550000Y76200000D02*
X106400000Y79050000D01*
X106400000Y107920000D02*
X102150000Y112170000D01*
X106400000Y79050000D02*
X106400000Y107920000D01*
X69500000Y120610000D02*
X73290000Y120610000D01*
X73100000Y120420000D02*
X73100000Y116500000D01*
X73290000Y120610000D02*
X73100000Y120420000D01*
X73100000Y103900000D02*
X73350000Y103650000D01*
X73100000Y107050000D02*
X73100000Y103900000D01*
X74249999Y102750001D02*
X74249999Y100800001D01*
X73350000Y103650000D02*
X74249999Y102750001D01*
X81050010Y93999990D02*
X87799990Y93999990D01*
X74249999Y100800001D02*
X81050010Y93999990D01*
X93862745Y93999990D02*
X87799990Y93999990D01*
X87799990Y93999990D02*
X86650010Y93999990D01*
X94750000Y19750000D02*
X88780000Y25720000D01*
X29850000Y11250000D02*
X34500000Y6600000D01*
X37899990Y3200010D02*
X94050010Y3200010D01*
X29850000Y11250000D02*
X37899990Y3200010D01*
X94050010Y3200010D02*
X94750000Y3900000D01*
X94750000Y13550000D02*
X94750000Y13600000D01*
X94750000Y13600000D02*
X94750000Y19750000D01*
X88780000Y25720000D02*
X88780000Y40067998D01*
X90929999Y76720001D02*
X88780000Y78870000D01*
X90929999Y59849999D02*
X90929999Y76720001D01*
X90030000Y58950000D02*
X90929999Y59849999D01*
X88780000Y56427208D02*
X88780000Y40067998D01*
X90030000Y57677208D02*
X88780000Y56427208D01*
X90030000Y58950000D02*
X90030000Y57677208D01*
X75840000Y17010000D02*
X75800000Y17050000D01*
X75840000Y11450000D02*
X75840000Y17010000D01*
X94600000Y11200000D02*
X94750000Y11200000D01*
X88650000Y17150000D02*
X94600000Y11200000D01*
X94750000Y3900000D02*
X94750000Y11200000D01*
X94750000Y11200000D02*
X94750000Y13600000D01*
X96500000Y91050000D02*
X93200000Y87750000D01*
X99350000Y91050000D02*
X96500000Y91050000D01*
X101450000Y88950000D02*
X99350000Y91050000D01*
X93282962Y87750000D02*
X93200000Y87750000D01*
X93200000Y87750000D02*
X79900000Y87750000D01*
X81650001Y37199999D02*
X81650001Y37399999D01*
X81650001Y37399999D02*
X70050000Y49000000D01*
X67452081Y54750000D02*
X66250000Y54750000D01*
X70050000Y52152081D02*
X67452081Y54750000D01*
X70050000Y49000000D02*
X70050000Y52152081D01*
X81650001Y37022793D02*
X81650001Y37399999D01*
X81650000Y35750000D02*
X81650001Y37022793D01*
X70349999Y113839999D02*
X69500000Y112990000D01*
X86337247Y125900001D02*
X74277245Y113839999D01*
X104164001Y125900001D02*
X86337247Y125900001D01*
X95800000Y35750000D02*
X104150000Y35750000D01*
X104150000Y35750000D02*
X106050011Y37650011D01*
X106050011Y37650011D02*
X106050011Y76437257D01*
X106050011Y76437257D02*
X108000010Y78387255D01*
X74277245Y113839999D02*
X70349999Y113839999D01*
X108000010Y78387255D02*
X108000010Y122063992D01*
X108000010Y122063992D02*
X104164001Y125900001D01*
X69500000Y115530000D02*
X61080000Y115530000D01*
X41900000Y90675508D02*
X53600000Y78975508D01*
X61080000Y115530000D02*
X41900000Y96350000D01*
X41900000Y96350000D02*
X41900000Y90675508D01*
X65047919Y57290000D02*
X66250000Y57290000D01*
X62535509Y57290000D02*
X65047919Y57290000D01*
X53600000Y66225509D02*
X62535509Y57290000D01*
X53600000Y78975508D02*
X53600000Y66225509D01*
X60770000Y118070000D02*
X69500000Y118070000D01*
X43150000Y100450000D02*
X60770000Y118070000D01*
X43150000Y100450000D02*
X43100000Y100450000D01*
X43100000Y100450000D02*
X40300000Y97650000D01*
X40300000Y97650000D02*
X40300000Y90012754D01*
X40300000Y90012754D02*
X45931377Y84381377D01*
X45931377Y84381377D02*
X48462754Y81850000D01*
X48900000Y81412754D02*
X45931377Y84381377D01*
X48900000Y77400000D02*
X48900000Y81412754D01*
X51450010Y74849990D02*
X48900000Y77400000D01*
X51450010Y66112745D02*
X51450010Y74849990D01*
X65047919Y52210000D02*
X65007919Y52250000D01*
X66250000Y52210000D02*
X65047919Y52210000D01*
X65007919Y52250000D02*
X62700000Y52250000D01*
X62700000Y52250000D02*
X59206377Y55743623D01*
X59206377Y55743623D02*
X59206377Y58356377D01*
X59206377Y58356377D02*
X51450010Y66112745D01*
X79052081Y77590000D02*
X86240000Y70402081D01*
X86240000Y61472792D02*
X86240000Y70402081D01*
X87490000Y60222792D02*
X86240000Y61472792D01*
X87490000Y58950000D02*
X87490000Y60222792D01*
X59550000Y84400000D02*
X59550000Y90150000D01*
X63607246Y59830000D02*
X63870000Y59830000D01*
X57500000Y65937246D02*
X63607246Y59830000D01*
X57500000Y82350000D02*
X57500000Y65937246D01*
X57500000Y82350000D02*
X59550000Y84400000D01*
X63870000Y59830000D02*
X66250000Y59830000D01*
X48372792Y75000000D02*
X49850000Y73522792D01*
X49850000Y73522792D02*
X49850000Y65450000D01*
X47100000Y75000000D02*
X48372792Y75000000D01*
X49850000Y65450000D02*
X52600000Y62700000D01*
X45875252Y82074768D02*
X39200010Y88750010D01*
X45975232Y82074768D02*
X45875252Y82074768D01*
X47100000Y80950000D02*
X45975232Y82074768D01*
X47100000Y75000000D02*
X47100000Y80950000D01*
X39200010Y88750010D02*
X33249990Y88750010D01*
X39370000Y18400000D02*
X39370000Y20620000D01*
X10200000Y33600000D02*
X10200000Y37150000D01*
X15000008Y28799992D02*
X10200000Y33600000D01*
X37399989Y20370011D02*
X37399989Y34250011D01*
X39370000Y18400000D02*
X37399989Y20370011D01*
X37399989Y34250011D02*
X35450000Y36200000D01*
X35450000Y36200000D02*
X32850000Y36200000D01*
X32850000Y36200000D02*
X25449992Y28799992D01*
X25449992Y28799992D02*
X15000008Y28799992D01*
X39370000Y18400000D02*
X39370000Y22420000D01*
X39370000Y22420000D02*
X41300000Y24350000D01*
X52600000Y32187245D02*
X52600000Y32700000D01*
X44762755Y24350000D02*
X52600000Y32187245D01*
X41300000Y24350000D02*
X44762755Y24350000D01*
X52600000Y62700000D02*
X52600000Y32700000D01*
X23750000Y109750000D02*
X23750000Y87350000D01*
X23750000Y87350000D02*
X23550000Y87150000D01*
X46300001Y68299999D02*
X47200000Y67400000D01*
X23550000Y87150000D02*
X38524757Y87150000D01*
X38524757Y87150000D02*
X45199999Y80474758D01*
X45199999Y80474758D02*
X45199999Y69400001D01*
X45199999Y69400001D02*
X46300001Y68299999D01*
X50125000Y61787755D02*
X50125000Y31975000D01*
X47200000Y64712755D02*
X50125000Y61787755D01*
X47200000Y67400000D02*
X47200000Y64712755D01*
X27420000Y18400000D02*
X26520001Y19299999D01*
X30650000Y37850000D02*
X36150000Y37850000D01*
X38999999Y35000001D02*
X38999999Y27700001D01*
X36150000Y37850000D02*
X38999999Y35000001D01*
X40475000Y26225000D02*
X44375000Y26225000D01*
X38999999Y27700001D02*
X40475000Y26225000D01*
X50125000Y31975000D02*
X44375000Y26225000D01*
X23200000Y30400000D02*
X30650000Y37850000D01*
X18217208Y30400000D02*
X23200000Y30400000D01*
X12740000Y35877208D02*
X18217208Y30400000D01*
X12740000Y37150000D02*
X12740000Y35877208D01*
X12740000Y38422792D02*
X12740000Y37150000D01*
X9287999Y39050001D02*
X12112791Y39050001D01*
X8299999Y38062001D02*
X9287999Y39050001D01*
X8299999Y33237247D02*
X8299999Y38062001D01*
X23137246Y18400000D02*
X8299999Y33237247D01*
X12112791Y39050001D02*
X12740000Y38422792D01*
X27420000Y18400000D02*
X23137246Y18400000D01*
X75150000Y51900000D02*
X74800000Y51550000D01*
X76647919Y72510000D02*
X77850000Y72510000D01*
X74650000Y70512081D02*
X76647919Y72510000D01*
X74650000Y52972792D02*
X74650000Y70512081D01*
X74800000Y52822792D02*
X74650000Y52972792D01*
X74800000Y51550000D02*
X74800000Y52822792D01*
X75900000Y51550000D02*
X78500000Y48950000D01*
X74800000Y51550000D02*
X75900000Y51550000D01*
X79052081Y69970000D02*
X77850000Y69970000D01*
X79700001Y69322080D02*
X79052081Y69970000D01*
X80530000Y69970000D02*
X77850000Y69970000D01*
X80920000Y24670000D02*
X84600000Y28350000D01*
X80920000Y11450000D02*
X80920000Y24670000D01*
X84600000Y28350000D02*
X84600000Y39550000D01*
X81650000Y42500000D02*
X81650000Y68850000D01*
X81650000Y68850000D02*
X80530000Y69970000D01*
X84600000Y39550000D02*
X81650000Y42500000D01*
X99490001Y5809999D02*
X95280002Y1600000D01*
X100800000Y31380000D02*
X99490001Y30070001D01*
X99490001Y30070001D02*
X99490001Y5809999D01*
X95280002Y1600000D02*
X31950000Y1600000D01*
X39647919Y42050000D02*
X38747918Y42950001D01*
X40850000Y42050000D02*
X39647919Y42050000D01*
X38747918Y42950001D02*
X31900001Y42950001D01*
X31900001Y42950001D02*
X23500000Y34550000D01*
X15280000Y35877208D02*
X15280000Y37150000D01*
X16607208Y34550000D02*
X15280000Y35877208D01*
X23500000Y34550000D02*
X16607208Y34550000D01*
X11102792Y42600000D02*
X11000000Y42600000D01*
X15280000Y38422792D02*
X11102792Y42600000D01*
X15280000Y37150000D02*
X15280000Y38422792D01*
X3550000Y30000000D02*
X3750000Y29800000D01*
X31950000Y1600000D02*
X3750000Y29800000D01*
X6100000Y42600000D02*
X3550000Y40050000D01*
X11102792Y42600000D02*
X6100000Y42600000D01*
X3550000Y57950000D02*
X3550000Y40050000D01*
X3550000Y40050000D02*
X3550000Y30000000D01*
X12688630Y119000000D02*
X13820000Y119000000D01*
X3400000Y109711370D02*
X12688630Y119000000D01*
X3400000Y80800000D02*
X3400000Y109711370D01*
X45849999Y46012001D02*
X45849999Y40900001D01*
X43041999Y48820001D02*
X45849999Y46012001D01*
X40850000Y49670000D02*
X41699999Y48820001D01*
X41699999Y48820001D02*
X43041999Y48820001D01*
X45849999Y40900001D02*
X47650000Y39100000D01*
X58550000Y39150000D02*
X58550000Y28950000D01*
X76377208Y32750000D02*
X77650000Y32750000D01*
X75237246Y32750000D02*
X76377208Y32750000D01*
X67537246Y25050000D02*
X75237246Y32750000D01*
X62450000Y25050000D02*
X67537246Y25050000D01*
X58550000Y28950000D02*
X62450000Y25050000D01*
X99150001Y47630001D02*
X100050000Y48530000D01*
X93899999Y42379999D02*
X99150001Y47630001D01*
X93899999Y34837999D02*
X93899999Y42379999D01*
X94000000Y34737998D02*
X93899999Y34837999D01*
X94000000Y32550000D02*
X94000000Y34737998D01*
X29960000Y16220000D02*
X34930000Y11250000D01*
X29960000Y18400000D02*
X29960000Y16220000D01*
X44450000Y18400000D02*
X44450000Y21462002D01*
X42052081Y54750000D02*
X40850000Y54750000D01*
X44900000Y51902081D02*
X42052081Y54750000D01*
X54750000Y31762002D02*
X54568999Y31581001D01*
X54750000Y51900000D02*
X54750000Y31762002D01*
X44450000Y21462002D02*
X54568999Y31581001D01*
X54568999Y31581001D02*
X55100000Y32112002D01*
X34700000Y20600000D02*
X32500000Y18400000D01*
X34700000Y33100000D02*
X34700000Y20600000D01*
X34800000Y46850000D02*
X34800000Y52350000D01*
X39647919Y52210000D02*
X40850000Y52210000D01*
X34940000Y52210000D02*
X39647919Y52210000D01*
X34800000Y52350000D02*
X34940000Y52210000D01*
X41910000Y13150000D02*
X40010000Y11250000D01*
X41910000Y18400000D02*
X41910000Y13150000D01*
X47700000Y20627208D02*
X47700000Y21900000D01*
X47700000Y16619998D02*
X47700000Y20627208D01*
X55119999Y9199999D02*
X47700000Y16619998D01*
X59029999Y9199999D02*
X55119999Y9199999D01*
X61280000Y11450000D02*
X59029999Y9199999D01*
X47350000Y34250000D02*
X43350000Y38250000D01*
X42052081Y47130000D02*
X40850000Y47130000D01*
X43350000Y45832081D02*
X42052081Y47130000D01*
X43350000Y38250000D02*
X43350000Y45832081D01*
X60950000Y42050000D02*
X58050000Y44950000D01*
X66250000Y42050000D02*
X60950000Y42050000D01*
X43599989Y79812013D02*
X43599989Y66050011D01*
X37912001Y85500001D02*
X43599989Y79812013D01*
X47750000Y61900000D02*
X47750000Y45100000D01*
X43599989Y66050011D02*
X47750000Y61900000D01*
X13820000Y116460000D02*
X13820000Y115328630D01*
X18670000Y111610000D02*
X13820000Y116460000D01*
X18670000Y109750000D02*
X18670000Y111610000D01*
X102150000Y117250000D02*
X101877998Y117250000D01*
X84950000Y98750000D02*
X84950000Y98900000D01*
X86050000Y99850000D02*
X84950000Y98750000D01*
X86050000Y103650000D02*
X86050000Y99850000D01*
X100877208Y117250000D02*
X102150000Y117250000D01*
X94750000Y111122792D02*
X100877208Y117250000D01*
X94750000Y102700000D02*
X94750000Y111122792D01*
X90800000Y98750000D02*
X94750000Y102700000D01*
X84950000Y98750000D02*
X90800000Y98750000D01*
X101322792Y51070000D02*
X100050000Y51070000D01*
X101950001Y50442791D02*
X101322792Y51070000D01*
X101950001Y42150001D02*
X101950001Y50442791D01*
X100800000Y41000000D02*
X101950001Y42150001D01*
X100800000Y39000000D02*
X100800000Y41000000D01*
M02*
