M48
; DRILL file {KiCad (5.1.4)-1} date 1/15/2021 10:18:43 AM
; FORMAT={-:-/ absolute / metric / decimal}
; #@! TF.CreationDate,2021-01-15T10:18:43-05:00
; #@! TF.GenerationSoftware,Kicad,Pcbnew,(5.1.4)-1
; #@! TF.FileFunction,Plated,1,2,PTH
FMAT,2
METRIC
T1C0.800
T2C1.000
T3C1.040
T4C1.100
%
G90
G05
T1
X3.4Y80.8
X3.55Y57.95
X34.7Y33.1
X34.8Y46.85
X45.0Y51.9
X47.1Y75.0
X47.2Y67.4
X47.35Y34.25
X47.7Y21.9
X47.75Y45.1
X47.8Y39.05
X54.75Y51.9
X58.05Y44.95
X58.55Y39.15
X62.2Y67.25
X62.6Y75.05
X65.35Y110.5
X65.45Y120.45
X70.95Y64.7
X71.55Y82.6
X73.1Y116.5
X73.1Y107.05
X75.8Y17.05
X77.35Y29.8
X77.65Y32.75
X81.65Y35.75
X84.8Y54.6
X88.65Y17.15
X88.7Y68.9
X91.7Y54.5
X91.85Y29.7
X94.0Y32.55
X95.05Y68.75
X95.8Y35.75
X99.25Y68.35
X102.75Y68.35
X37.0Y96.3
X37.0Y83.6
X74.8Y51.55
X74.8Y38.85
X40.85Y75.07
X40.85Y72.53
X40.85Y69.99
X40.85Y67.45
X40.85Y64.91
X40.85Y62.37
X40.85Y59.83
X40.85Y57.29
X40.85Y54.75
X40.85Y52.21
X40.85Y49.67
X40.85Y47.13
X40.85Y44.59
X40.85Y42.05
X40.85Y39.51
X40.85Y36.97
X40.85Y34.43
X40.85Y31.89
X66.25Y77.61
X66.25Y75.07
X66.25Y72.53
X66.25Y69.99
X66.25Y67.45
X66.25Y64.91
X66.25Y62.37
X66.25Y59.83
X66.25Y57.29
X66.25Y54.75
X66.25Y52.21
X66.25Y49.67
X66.25Y47.13
X66.25Y44.59
X66.25Y42.05
X66.25Y39.51
X66.25Y36.97
X66.25Y34.43
X66.25Y31.89
X10.2Y37.15
X12.74Y37.15
X15.28Y37.15
X17.82Y37.15
X46.85Y90.15
X49.39Y90.15
X51.93Y90.15
X54.47Y90.15
X57.01Y90.15
X97.95Y88.95
X101.45Y88.95
X11.65Y62.0
X11.65Y49.3
X72.25Y98.75
X84.95Y98.75
X6.3Y62.0
X6.3Y49.3
X6.2Y119.0
X6.2Y116.46
X13.82Y119.0
X13.82Y116.46
X84.95Y58.95
X87.49Y58.95
X90.03Y58.95
X100.8Y39.0
X100.8Y31.38
X16.13Y109.75
X18.67Y109.75
X21.21Y109.75
X23.75Y109.75
X99.15Y101.55
X102.65Y101.55
X15.9Y46.45
X28.6Y46.45
X99.8Y124.1
X103.3Y124.1
X100.05Y56.15
X100.05Y53.61
X100.05Y51.07
X100.05Y48.53
X78.5Y48.95
X91.2Y48.95
X27.42Y18.4
X29.96Y18.4
X32.5Y18.4
X73.35Y103.65
X86.05Y103.65
X32.4Y63.25
X32.4Y50.55
X102.15Y117.25
X102.15Y114.71
X102.15Y112.17
X69.5Y123.15
X69.5Y120.61
X69.5Y118.07
X69.5Y115.53
X69.5Y112.99
X69.5Y110.45
X91.0Y120.85
X91.0Y118.31
X91.0Y115.77
X91.0Y113.23
X91.0Y110.69
X91.0Y108.15
X39.37Y18.4
X41.91Y18.4
X44.45Y18.4
T2
X59.55Y90.15
X77.85Y87.75
X77.85Y85.21
X77.85Y82.67
X77.85Y80.13
X77.85Y77.59
X77.85Y75.05
X77.85Y72.51
X77.85Y69.97
X77.85Y67.43
X77.85Y64.89
X56.2Y11.45
X61.28Y11.45
X66.36Y11.45
X29.85Y11.25
X34.93Y11.25
X40.01Y11.25
X45.09Y11.25
X101.1Y81.28
X101.1Y78.74
X101.1Y76.2
X75.84Y11.45
X80.92Y11.45
X86.0Y11.45
T3
X40.85Y77.61
T4
X6.05Y72.6
X6.05Y68.1
X12.55Y72.6
X12.55Y68.1
X16.9Y63.55
X16.9Y59.05
X23.4Y63.55
X23.4Y59.05
X26.9Y72.95
X26.9Y68.45
X33.4Y72.95
X33.4Y68.45
X16.5Y81.5
X16.5Y77.0
X23.0Y81.5
X23.0Y77.0
T0
M30
